<svg width="344" height="458" viewBox="0 0 344 458" fill="none" xmlns="http://www.w3.org/2000/svg">
<path d="M172.049 52.5996C173.574 54.2947 174.888 56.2639 176.28 58.0725C178.816 61.367 181.426 64.6438 184.199 67.7428C185.139 68.7796 186.092 69.8034 187.059 70.8142C188.027 71.8249 189.008 72.8222 190.002 73.8062C190.997 74.7902 192.004 75.7605 193.026 76.7172C194.047 77.6737 195.081 78.6161 196.128 79.5444C197.174 80.4727 198.234 81.3866 199.306 82.2861C200.378 83.1857 201.462 84.0705 202.558 84.9404C203.654 85.8104 204.762 86.6651 205.881 87.5046C207.001 88.3443 208.131 89.1687 209.273 89.9778C210.415 90.7866 211.568 91.5797 212.732 92.357C213.895 93.1346 215.07 93.896 216.254 94.6413C217.438 95.3869 218.633 96.1161 219.837 96.829C221.042 97.5419 222.256 98.2382 223.479 98.918C224.703 99.5978 225.935 100.261 227.177 100.907C228.418 101.553 229.669 102.182 230.927 102.794C232.186 103.406 233.453 104.001 234.728 104.579C236.003 105.156 237.286 105.716 238.576 106.259C243.129 108.178 247.813 109.975 252.538 111.427C255.039 112.195 263.163 113.834 264.783 114.817C264.828 114.844 264.872 114.875 264.916 114.903C260.119 114.465 255.048 112.903 250.436 111.545C223.866 103.719 198.568 86.9456 180.835 65.6779C177.78 61.9905 174.869 58.193 172.101 54.2857C168.156 59.0009 164.495 63.9134 160.278 68.4011C141.224 88.6732 117.117 105.283 90.0769 112.759C81.8858 115.023 73.3348 116.356 64.8719 117.101C60.543 117.482 56.1704 117.432 51.8281 117.426C51.5375 133.075 51.8042 148.707 51.7653 164.356C51.733 177.211 51.3487 190.074 51.987 202.92C52.0815 204.901 52.1998 206.881 52.3417 208.86C52.4837 210.839 52.6496 212.816 52.8393 214.79C53.0287 216.765 53.2419 218.737 53.4789 220.707C53.7158 222.676 53.9764 224.643 54.2606 226.606C54.5446 228.569 54.8523 230.529 55.1838 232.485C55.515 234.441 55.8697 236.393 56.2477 238.34C56.626 240.288 57.0275 242.23 57.4524 244.168C57.877 246.106 58.325 248.039 58.7965 249.966C59.2677 251.893 59.7619 253.814 60.2793 255.729C60.7969 257.645 61.3373 259.553 61.9005 261.456C62.4638 263.358 63.0498 265.253 63.6585 267.142C64.2674 269.03 64.8989 270.911 65.5528 272.784C66.2068 274.657 66.8831 276.522 67.5819 278.379C68.2809 280.236 69.0019 282.084 69.745 283.924C70.4883 285.764 71.2536 287.594 72.0408 289.416C72.828 291.237 73.6369 293.049 74.4676 294.851C76.4875 299.159 78.6422 303.399 80.9317 307.571C83.2212 311.743 85.641 315.838 88.191 319.857C90.3554 323.314 93.2395 326.639 95.071 330.235C93.2297 328.491 91.7963 326.063 90.3695 323.976C84.8031 315.832 79.4919 307.372 75.1909 298.491C74.3139 296.711 73.4591 294.92 72.6267 293.119C71.7942 291.318 70.9845 289.507 70.1975 287.686C69.4103 285.865 68.646 284.034 67.9047 282.194C67.1634 280.354 66.4453 278.504 65.7504 276.646C65.0552 274.788 64.3834 272.922 63.7351 271.047C63.0867 269.172 62.4619 267.289 61.8605 265.398C61.2592 263.508 60.6815 261.61 60.1274 259.706C59.5736 257.801 59.0436 255.889 58.5374 253.971C58.0313 252.053 57.5492 250.129 57.0912 248.199C56.6332 246.269 56.1994 244.333 55.7898 242.392C55.3802 240.451 54.995 238.505 54.6342 236.555C54.2732 234.605 53.9366 232.65 53.6244 230.691C53.3124 228.732 53.0248 226.769 52.7617 224.803C52.4987 222.837 52.2603 220.868 52.0465 218.896C51.8328 216.924 51.6438 214.95 51.4794 212.973C51.3148 210.996 51.175 209.018 51.0601 207.038C50.3459 195.991 50.6463 184.836 50.6503 173.771C50.7341 154.478 50.578 135.187 50.182 115.898C56.7993 115.891 63.3269 115.815 69.916 115.092C104.406 111.306 135.493 92.8546 159.073 67.9928C163.696 63.1185 167.852 57.8366 172.049 52.5996Z" fill="#FEFEFE"/>
<path d="M172.101 54.2852C174.869 58.1925 177.78 61.99 180.835 65.6774C198.568 86.9451 223.866 103.719 250.436 111.544C255.048 112.903 260.119 114.464 264.916 114.903C272.291 117.286 284.115 117.386 292.035 117.417L292.026 168.264C292.047 183.429 292.241 198.518 290.895 213.644C290.794 214.908 290.682 216.171 290.559 217.433C290.437 218.696 290.304 219.957 290.161 221.217C290.018 222.477 289.864 223.735 289.701 224.993C289.537 226.25 289.363 227.506 289.179 228.761C288.994 230.016 288.799 231.269 288.594 232.52C288.39 233.772 288.174 235.022 287.949 236.27C287.723 237.517 287.488 238.763 287.242 240.007C286.996 241.251 286.74 242.493 286.473 243.733C286.207 244.973 285.93 246.211 285.644 247.446C285.357 248.681 285.06 249.914 284.753 251.145C284.446 252.375 284.129 253.603 283.802 254.829C283.475 256.054 283.138 257.276 282.791 258.496C282.444 259.716 282.086 260.933 281.719 262.147C281.352 263.361 280.975 264.572 280.588 265.779C280.201 266.987 279.804 268.192 279.397 269.393C278.99 270.594 278.574 271.792 278.147 272.986C277.721 274.181 277.284 275.372 276.838 276.559C276.392 277.746 275.936 278.93 275.471 280.11C275.005 281.29 274.53 282.466 274.046 283.637C273.561 284.81 273.066 285.978 272.563 287.141C272.058 288.305 271.545 289.465 271.022 290.621C270.499 291.776 269.966 292.928 269.425 294.074C268.883 295.221 268.331 296.363 267.77 297.501C267.21 298.639 266.64 299.772 266.06 300.9C265.481 302.029 264.893 303.153 264.295 304.272C263.697 305.39 263.09 306.504 262.474 307.613C261.858 308.722 261.233 309.826 260.599 310.924C259.965 312.023 259.321 313.116 258.669 314.205C258.017 315.293 257.356 316.375 256.686 317.453C256.016 318.53 255.338 319.602 254.65 320.668C253.962 321.734 253.266 322.794 252.561 323.849C251.856 324.904 251.143 325.953 250.421 326.996C248.549 329.748 246.614 332.454 244.616 335.116C242.618 337.777 240.559 340.391 238.438 342.956C236.318 345.52 234.138 348.034 231.9 350.499C229.661 352.962 227.367 355.371 225.015 357.726C219.96 362.694 214.692 367.425 209.21 371.919C204.177 376.053 176.449 397.047 172.058 397.004C171.89 397 171.838 396.98 171.661 396.947C169.692 397.312 155.735 387.689 153.284 386.008C136.736 374.644 120.966 361.293 107.762 346.144C103.296 341.017 99.4462 335.422 95.071 330.235C93.2394 326.638 90.3554 323.313 88.1909 319.856C85.641 315.838 83.2212 311.743 80.9317 307.571C78.6421 303.399 76.4874 299.159 74.4676 294.85C73.6369 293.048 72.828 291.237 72.0408 289.415C71.2535 287.594 70.4883 285.763 69.745 283.924C69.0019 282.084 68.2808 280.235 67.5819 278.379C66.8831 276.522 66.2067 274.656 65.5528 272.783C64.8988 270.91 64.2674 269.029 63.6584 267.141C63.0497 265.253 62.4637 263.358 61.9005 261.455C61.3372 259.553 60.7968 257.644 60.2792 255.729C59.7619 253.813 59.2676 251.892 58.7964 249.965C58.325 248.038 57.877 246.106 57.4523 244.168C57.0275 242.23 56.6259 240.287 56.2477 238.34C55.8696 236.392 55.515 234.441 55.1837 232.484C54.8523 230.528 54.5446 228.569 54.2606 226.606C53.9764 224.642 53.7158 222.676 53.4789 220.706C53.2419 218.737 53.0287 216.765 52.8392 214.79C52.6495 212.815 52.4837 210.838 52.3417 208.86C52.1997 206.881 52.0815 204.901 51.987 202.919C51.3487 190.073 51.733 177.21 51.7652 164.356C51.8042 148.707 51.5375 133.075 51.8281 117.425C56.1704 117.432 60.543 117.482 64.8718 117.1C73.3348 116.355 81.8857 115.023 90.0769 112.758C117.117 105.283 141.224 88.6727 160.278 68.4006C164.495 63.9129 168.156 59.0004 172.101 54.2852ZM171.706 75.9346C167.119 82.0131 161.619 87.2554 156.017 92.3864C133.434 113.07 107.071 126.915 76.582 131.222C73.0687 131.719 68.7654 131.651 65.5511 133.209C65.1282 137.447 65.1755 141.791 65.1772 146.048C65.1796 153.551 65.3979 161.052 65.3801 168.555C65.3509 180.802 65.2965 192.962 66.1924 205.184C69.6361 252.161 84.1641 295.905 114.348 332.698C128.157 349.529 143.611 362.313 161.426 374.63C163.887 376.335 168.912 380.402 171.769 380.814L172.348 380.438C175.185 380.744 195.991 364.907 199.124 362.394C200.477 361.293 201.817 360.176 203.142 359.042C204.468 357.908 205.78 356.758 207.077 355.592C208.375 354.427 209.658 353.246 210.926 352.049C212.194 350.852 213.448 349.64 214.686 348.412C215.925 347.184 217.148 345.941 218.356 344.684C219.564 343.425 220.756 342.152 221.933 340.866C223.11 339.578 224.27 338.276 225.415 336.96C226.56 335.645 227.688 334.316 228.8 332.973C229.912 331.63 231.007 330.273 232.085 328.903C233.164 327.533 234.226 326.149 235.27 324.753C236.315 323.357 237.342 321.948 238.352 320.527C239.362 319.106 240.354 317.672 241.329 316.226C242.303 314.781 243.26 313.323 244.199 311.854C245.138 310.385 246.058 308.904 246.961 307.412C247.863 305.921 248.747 304.418 249.612 302.905C250.478 301.391 251.324 299.868 252.152 298.333C252.98 296.799 253.789 295.255 254.579 293.701C255.369 292.147 256.14 290.584 256.891 289.011C257.643 287.438 258.375 285.856 259.087 284.265C259.8 282.674 260.493 281.075 261.166 279.466C261.839 277.859 262.493 276.243 263.126 274.619C263.76 272.995 264.373 271.364 264.966 269.725C265.56 268.086 266.133 266.44 266.686 264.787C267.239 263.134 267.771 261.474 268.283 259.808C268.795 258.142 269.287 256.47 269.758 254.791C270.229 253.113 270.679 251.43 271.108 249.741C271.538 248.051 271.947 246.357 272.334 244.658C272.722 242.959 273.089 241.255 273.435 239.547C273.781 237.839 274.106 236.127 274.41 234.41C274.713 232.694 274.996 230.975 275.257 229.252C275.519 227.528 275.759 225.802 275.978 224.074C276.197 222.345 276.395 220.613 276.572 218.879C278.283 202.994 278.618 187.023 278.752 171.06C278.856 158.52 278.865 145.98 278.779 133.44C269.693 131.767 260.695 130.649 251.712 128.324C230.142 122.743 207.439 109.519 190.619 95.0797C186.415 91.4289 182.412 87.5707 178.609 83.5052C177.182 81.9859 173.101 76.8335 171.706 75.9346Z" fill="black"/>
<path d="M171.706 75.9346C173.101 76.8335 177.182 81.9859 178.609 83.5052C182.412 87.5707 186.415 91.4288 190.619 95.0796C207.439 109.519 230.142 122.742 251.712 128.324C260.695 130.649 269.693 131.767 278.779 133.44C278.865 145.98 278.856 158.52 278.752 171.06C278.618 187.023 278.283 202.994 276.572 218.879C276.395 220.613 276.197 222.344 275.978 224.074C275.759 225.802 275.519 227.528 275.257 229.251C274.996 230.975 274.713 232.694 274.41 234.41C274.106 236.127 273.781 237.839 273.435 239.547C273.089 241.255 272.722 242.959 272.334 244.658C271.947 246.357 271.538 248.051 271.108 249.741C270.679 251.43 270.229 253.113 269.758 254.791C269.287 256.47 268.795 258.142 268.283 259.808C267.771 261.474 267.239 263.133 266.686 264.787C266.133 266.44 265.56 268.086 264.967 269.725C264.373 271.364 263.76 272.995 263.126 274.619C262.493 276.243 261.839 277.859 261.166 279.466C260.493 281.074 259.8 282.674 259.087 284.265C258.375 285.856 257.643 287.438 256.891 289.011C256.14 290.584 255.369 292.147 254.579 293.701C253.789 295.255 252.98 296.799 252.152 298.333C251.324 299.868 250.478 301.391 249.612 302.905C248.747 304.418 247.863 305.921 246.961 307.412C246.058 308.904 245.138 310.385 244.199 311.854C243.26 313.323 242.303 314.78 241.329 316.226C240.354 317.672 239.362 319.106 238.352 320.527C237.342 321.948 236.315 323.357 235.271 324.753C234.226 326.149 233.164 327.533 232.085 328.903C231.007 330.273 229.912 331.63 228.8 332.973C227.688 334.316 226.56 335.645 225.415 336.96C224.27 338.276 223.11 339.577 221.933 340.866C220.756 342.152 219.564 343.425 218.356 344.684C217.148 345.941 215.925 347.184 214.686 348.412C213.448 349.64 212.194 350.852 210.926 352.049C209.658 353.246 208.375 354.427 207.077 355.592C205.78 356.758 204.468 357.907 203.142 359.042C201.817 360.176 200.477 361.293 199.124 362.394C195.991 364.907 175.185 380.744 172.348 380.438L171.769 380.814C168.912 380.401 163.887 376.335 161.426 374.63C143.611 362.313 128.158 349.529 114.348 332.698C84.1641 295.905 69.6362 252.161 66.1925 205.184C65.2965 192.962 65.351 180.801 65.3802 168.555C65.398 161.052 65.1796 153.551 65.1773 146.047C65.1756 141.791 65.1282 137.447 65.5512 133.209C68.7654 131.651 73.0688 131.719 76.582 131.222C107.071 126.914 133.434 113.069 156.017 92.3863C161.619 87.2554 167.119 82.0131 171.706 75.9346ZM126.163 181.684C125.473 181.899 124.777 182.073 124.393 182.74C123.584 184.146 123.666 259.26 124.052 266.819C124.103 267.817 124.216 268.818 124.514 269.775C125.204 270.606 126.853 270.723 127.881 270.812C133.638 271.309 139.696 270.861 145.483 270.849L179.909 270.841L203.577 270.851C207.976 270.87 212.795 271.412 217.121 270.643C217.99 270.077 219.03 269.529 219.236 268.421C219.882 264.95 219.68 261.136 219.671 257.607C219.655 251.433 219.489 245.263 219.499 239.087L219.643 201.406C219.629 195.653 219.765 189.787 219.466 184.051C219.439 183.534 219.321 182.967 219.035 182.527C218.71 182.025 218.313 181.852 217.738 181.769C214.301 181.274 210.538 181.639 207.061 181.668L189.124 181.691L146.485 181.78C139.713 181.777 132.933 181.615 126.163 181.684ZM70.6175 225.269L70.7428 224.046L70.6867 223.914C69.9704 220.23 69.1756 211.561 69.2116 207.735C74.617 207.593 80.0233 207.511 85.4303 207.489C88.9257 207.47 92.7195 207.742 96.1692 207.19C87.6522 207.13 77.3748 207.674 69.0762 206.822C68.1859 202.914 68.0936 193.072 68.3492 188.961L68.3311 188.736L68.3405 187.883C68.2332 176.651 68.1877 165.419 68.2041 154.186C68.1833 147.809 67.7425 141.163 68.2293 134.817C73.8351 133.946 79.4634 133.189 85.0215 132.044C86.223 131.808 87.4213 131.557 88.6163 131.289C89.8111 131.022 91.0024 130.74 92.19 130.442C93.3777 130.143 94.5613 129.83 95.7409 129.501C96.9203 129.173 98.0953 128.829 99.2659 128.469C100.437 128.11 101.602 127.736 102.763 127.347C103.924 126.957 105.079 126.553 106.23 126.134C107.38 125.714 108.525 125.28 109.664 124.831C110.803 124.382 111.936 123.919 113.063 123.44C114.19 122.962 115.31 122.469 116.425 121.962C117.539 121.455 118.646 120.933 119.747 120.397C120.848 119.861 121.941 119.311 123.027 118.746C124.114 118.182 125.193 117.604 126.264 117.011C127.335 116.419 128.399 115.813 129.455 115.193C130.51 114.574 131.557 113.94 132.597 113.293C133.636 112.646 134.666 111.986 135.688 111.312C136.71 110.639 137.723 109.952 138.727 109.252C145.634 104.445 152.029 99.3875 157.476 92.9497C155.234 94.4539 153.234 96.349 151.179 98.0984C148.62 100.291 146.002 102.412 143.326 104.461C142.497 105.1 141.66 105.728 140.815 106.346C139.97 106.965 139.119 107.573 138.26 108.172C137.401 108.77 136.535 109.358 135.663 109.937C134.79 110.515 133.911 111.082 133.025 111.64C132.138 112.197 131.246 112.744 130.347 113.281C129.448 113.817 128.543 114.343 127.631 114.859C126.72 115.374 125.803 115.879 124.88 116.372C123.956 116.866 123.027 117.349 122.093 117.821C121.158 118.293 120.218 118.754 119.273 119.204C118.328 119.653 117.377 120.092 116.421 120.52C115.465 120.947 114.505 121.364 113.539 121.769C112.574 122.174 111.604 122.567 110.629 122.95C109.654 123.332 108.675 123.703 107.691 124.062C106.708 124.421 105.72 124.769 104.728 125.105C103.737 125.441 102.741 125.765 101.741 126.078C100.742 126.391 99.7392 126.692 98.7327 126.981C92.483 128.775 86.249 130.368 79.8349 131.474C76.3096 132.082 72.702 132.328 69.1985 133.019C68.3912 133.179 66.6309 133.312 66.4498 134.161C65.6681 137.822 66.2698 148.265 66.2825 152.721C66.3551 177.944 65.6191 202.773 70.4448 227.68C70.7582 229.299 71.0471 233.078 71.8161 234.372C71.8104 234.333 71.803 234.294 71.799 234.256C71.4855 231.244 70.9306 228.274 70.6175 225.269ZM261.736 155.685C259.018 156.641 256.81 157.912 255.534 160.619C255.476 160.742 255.42 160.866 255.368 160.992C255.316 161.118 255.266 161.245 255.22 161.374C255.174 161.502 255.131 161.631 255.092 161.762C255.052 161.892 255.016 162.023 254.983 162.156C254.95 162.288 254.92 162.421 254.894 162.555C254.867 162.688 254.844 162.823 254.824 162.957C254.804 163.092 254.788 163.227 254.775 163.363C254.762 163.499 254.752 163.635 254.746 163.771C254.74 163.907 254.737 164.043 254.738 164.18C254.738 164.316 254.742 164.452 254.749 164.588C254.757 164.724 254.767 164.86 254.781 164.996C254.796 165.131 254.813 165.266 254.834 165.401C254.855 165.536 254.879 165.67 254.906 165.803C254.934 165.937 254.965 166.07 254.999 166.201C255.033 166.333 255.07 166.464 255.111 166.594C255.151 166.725 255.195 166.854 255.242 166.982C255.919 168.796 257.071 170.13 258.336 171.569C256.909 172.938 250.389 179.001 250.01 180.154C251.549 179.221 252.829 177.607 254.138 176.371C255.786 174.837 257.511 173.381 259.146 171.838C262.019 172.699 264.875 173.215 267.647 171.726C269.649 170.651 271.199 168.676 271.824 166.499C272.44 164.35 272.025 162.103 270.918 160.186C269.667 158.018 267.565 156.559 265.156 155.947C264.011 155.656 262.913 155.55 261.736 155.685ZM171.676 120.442C164.112 120.645 156.09 123.812 150.62 128.99C142.609 136.573 140.629 144.427 140.35 155.036L140.366 169.284C140.37 172.23 140.259 175.264 140.566 178.192L141.199 177.629L141.508 177.712C141.618 177.219 141.627 176.786 141.616 176.282C141.518 171.885 141.592 167.466 141.61 163.068C141.647 153.854 141.432 144.062 146.564 135.97C151.19 128.673 158.279 124.105 166.646 122.291C174.078 120.679 181.754 122.406 188.104 126.479C194.998 130.901 199.527 137.212 201.37 145.162C201.829 147.145 201.934 149.18 202.363 151.16C202.503 150.878 202.404 151.024 202.693 150.747L202.901 150.99L203.039 150.924C203.053 150.828 203.07 150.733 203.081 150.637C203.221 149.445 202.824 147.976 202.595 146.799C201.573 141.537 200.044 136.974 196.65 132.714C190.276 124.712 182.337 121.405 172.384 120.285C172.086 116.3 172.284 112.224 172.117 108.221C172.074 112.06 172.411 116.341 171.739 120.11L171.676 120.442ZM177.247 84.4846C179.353 87.7013 182.66 90.5892 185.389 93.3278C204.171 112.179 231.228 126.655 257.271 132.11C260.992 132.889 267.431 134.495 271 134.393C261.515 131.86 251.99 129.702 242.661 126.591C226.352 121.152 210.602 112.18 196.946 101.794C192.358 98.2554 187.916 94.5437 183.618 90.6587C181.942 89.1441 178.873 85.3704 177.247 84.4846ZM147.399 167.048C147.678 170.749 147.354 174.477 147.687 178.171C147.755 178.147 147.822 178.119 147.891 178.099C148.234 177.996 148.571 177.989 148.92 178.064C148.956 172.714 148.956 167.364 148.92 162.014C148.908 157.378 148.603 152.582 149.617 148.031C149.732 147.533 149.86 147.038 150.003 146.546C150.146 146.055 150.302 145.568 150.473 145.086C150.643 144.604 150.828 144.127 151.026 143.655C151.224 143.183 151.435 142.717 151.66 142.258C151.884 141.798 152.122 141.345 152.373 140.899C152.623 140.452 152.886 140.014 153.162 139.583C153.438 139.152 153.726 138.729 154.026 138.314C154.326 137.899 154.637 137.494 154.96 137.097C155.195 136.808 155.437 136.525 155.686 136.248C155.934 135.971 156.19 135.7 156.452 135.436C156.715 135.172 156.984 134.915 157.259 134.664C157.534 134.413 157.815 134.169 158.103 133.933C158.39 133.696 158.683 133.467 158.982 133.245C159.281 133.022 159.585 132.808 159.895 132.601C160.204 132.394 160.519 132.195 160.839 132.004C161.158 131.812 161.482 131.629 161.811 131.454C162.14 131.279 162.473 131.112 162.81 130.954C163.147 130.795 163.488 130.645 163.832 130.504C164.177 130.362 164.525 130.23 164.876 130.105C165.227 129.981 165.581 129.866 165.938 129.759C166.295 129.653 166.655 129.555 167.016 129.467C167.378 129.378 167.742 129.298 168.108 129.228C168.474 129.158 168.841 129.097 169.21 129.044C169.579 128.992 169.949 128.949 170.32 128.916C170.682 128.887 171.045 128.867 171.409 128.857C171.772 128.846 172.135 128.844 172.499 128.852C172.862 128.859 173.226 128.876 173.588 128.901C173.951 128.926 174.313 128.961 174.674 129.005C175.035 129.048 175.394 129.1 175.753 129.162C176.111 129.223 176.468 129.293 176.822 129.372C177.177 129.451 177.53 129.539 177.88 129.635C178.231 129.732 178.579 129.837 178.924 129.951C179.269 130.065 179.611 130.187 179.951 130.317C180.29 130.448 180.625 130.587 180.957 130.735C181.29 130.882 181.618 131.038 181.942 131.202C182.267 131.366 182.587 131.537 182.903 131.717C183.219 131.897 183.53 132.084 183.837 132.279C184.143 132.475 184.445 132.677 184.741 132.887C185.038 133.098 185.329 133.315 185.615 133.54C185.9 133.764 186.18 133.996 186.454 134.234C186.76 134.5 187.059 134.773 187.351 135.053C187.644 135.334 187.929 135.621 188.207 135.915C188.486 136.21 188.756 136.511 189.02 136.819C189.283 137.126 189.539 137.441 189.786 137.761C190.034 138.082 190.274 138.408 190.506 138.74C190.737 139.072 190.961 139.41 191.176 139.753C191.391 140.096 191.597 140.445 191.795 140.798C191.993 141.151 192.182 141.509 192.362 141.872C192.542 142.235 192.713 142.602 192.875 142.973C193.037 143.344 193.19 143.719 193.333 144.097C193.476 144.476 193.61 144.858 193.735 145.243C193.86 145.628 193.975 146.016 194.08 146.407C194.185 146.798 194.281 147.191 194.367 147.587C194.453 147.982 194.529 148.38 194.596 148.779C194.662 149.179 194.718 149.579 194.765 149.981C194.811 150.383 194.848 150.787 194.875 151.19L195.372 151.094C195.658 151.838 195.694 152.592 195.767 153.378L195.904 153.43L196.053 153.018C195.223 144.988 193.217 138.129 186.656 132.829C181.649 128.784 175.127 127.328 168.79 128.038C162.435 128.75 156.896 132.276 152.98 137.253C145.394 146.897 148.161 156.087 147.399 167.048ZM89.7807 159.682C90.6763 159.627 91.5921 159.618 92.4668 159.406L91.4849 159.142C91.2413 159.067 91.0005 158.989 90.7579 158.912L90.4717 158.825C88.3946 158.167 86.9497 156.695 85.9789 154.77C85.0799 152.988 84.8468 150.937 85.4918 149.032C85.5303 148.919 85.5716 148.808 85.6157 148.697C85.6601 148.587 85.707 148.478 85.7565 148.37C85.8062 148.262 85.8585 148.155 85.9134 148.05C85.9682 147.945 86.0258 147.841 86.086 147.738C86.1461 147.636 86.2087 147.535 86.2738 147.435C86.339 147.336 86.4066 147.238 86.4767 147.142C86.5468 147.046 86.6193 146.952 86.6941 146.859C86.7689 146.767 86.8459 146.677 86.9252 146.588C87.0045 146.499 87.0859 146.413 87.1694 146.328C87.2532 146.244 87.339 146.161 87.4268 146.081C87.5143 146.001 87.604 145.923 87.6959 145.847C87.7875 145.771 87.8808 145.698 87.976 145.627C88.0714 145.556 88.1685 145.487 88.2673 145.421C88.366 145.354 88.4664 145.291 88.5683 145.229C88.6702 145.168 88.7735 145.109 88.8784 145.053C88.9834 144.997 89.0897 144.944 89.1972 144.893C89.3105 144.838 89.4251 144.786 89.5412 144.737C89.6569 144.688 89.774 144.642 89.8922 144.599C90.0105 144.555 90.1297 144.515 90.25 144.478C90.3703 144.44 90.4913 144.406 90.6131 144.375C90.7352 144.344 90.8579 144.315 90.9813 144.29C91.1047 144.265 91.2287 144.243 91.3532 144.224C91.4775 144.205 91.6024 144.189 91.7278 144.177C91.853 144.164 91.9785 144.154 92.1044 144.148C92.23 144.141 92.3558 144.138 92.4816 144.138C92.6077 144.137 92.7336 144.14 92.8592 144.146C92.9851 144.152 93.1106 144.162 93.2358 144.174C93.3612 144.186 93.4862 144.202 93.6107 144.221C93.7352 144.239 93.8592 144.261 93.9826 144.285C94.106 144.31 94.2288 144.338 94.3511 144.369C94.4732 144.4 94.5943 144.434 94.7146 144.47C94.8349 144.507 94.9542 144.547 95.0727 144.59C96.7376 145.211 97.995 146.448 98.7092 148.059C99.5484 149.952 99.6646 152.449 98.8765 154.381C97.9584 156.631 95.9388 157.943 93.7877 158.839C94.2802 159.252 94.5792 159.553 95.2393 159.593C96.834 158.956 98.1811 158.116 99.5877 157.143C101.998 160.334 105.191 163.114 108.034 165.933C112.711 170.571 117.408 175.873 122.818 179.633C120.637 176.85 117.92 174.324 115.484 171.757C110.515 166.518 105.618 161.039 100.025 156.455C101.016 153.494 101.744 150.603 100.297 147.638C100.234 147.51 100.167 147.383 100.097 147.258C100.028 147.133 99.9549 147.009 99.879 146.888C99.8033 146.766 99.7245 146.647 99.6428 146.529C99.5613 146.411 99.4768 146.296 99.3895 146.182C99.3019 146.068 99.2118 145.957 99.1191 145.848C99.0261 145.739 98.9306 145.632 98.8325 145.527C98.7344 145.423 98.6339 145.321 98.5308 145.221C98.4278 145.122 98.3223 145.025 98.2144 144.931C98.1064 144.836 97.9964 144.745 97.8842 144.656C97.7717 144.567 97.6572 144.481 97.5405 144.397C97.4238 144.314 97.3052 144.233 97.1847 144.156C97.0643 144.078 96.9419 144.004 96.8176 143.932C96.6933 143.861 96.5673 143.792 96.4396 143.727C96.3122 143.662 96.1831 143.599 96.0523 143.54C95.9217 143.481 95.7897 143.426 95.6562 143.373C95.5227 143.32 95.3881 143.271 95.2524 143.225C92.9496 142.453 90.3158 142.727 88.1732 143.849C86.2893 144.836 84.8965 146.464 84.2649 148.497C83.5971 150.647 83.7086 153.552 84.7826 155.557C85.7461 157.356 87.5155 159.033 89.5062 159.615C89.5966 159.641 89.689 159.66 89.7807 159.682ZM140.288 179.337C137.039 179.442 133.788 179.508 130.537 179.532C128.142 179.527 125.005 179.09 122.694 179.579L122.641 179.842C123.066 180.17 123.191 180.285 123.739 180.337C126.884 180.631 130.364 180.311 133.542 180.319L157.218 180.343L157.498 180.129C155.746 179.158 149.705 181.021 149.023 178.693C148.964 178.493 148.946 178.268 148.92 178.064C148.571 177.989 148.234 177.996 147.891 178.099C147.822 178.119 147.755 178.147 147.687 178.171C147.354 174.477 147.678 170.749 147.399 167.048C147.032 171.014 147.288 175.183 147.365 179.172C145.574 179.186 143.719 179.29 141.934 179.194C141.897 178.428 142.008 176.887 141.616 176.282C141.627 176.786 141.618 177.219 141.508 177.712L141.199 177.629L140.566 178.192C140.259 175.264 140.37 172.23 140.366 169.284L140.35 155.036C139.725 156.114 140.17 176.545 140.288 179.337ZM68.3405 187.883L68.3311 188.736L68.3492 188.961C75.0115 188.843 81.7004 188.972 88.3661 188.962C93.5576 188.954 107.539 188.34 111.501 189.529C112.669 189.88 113.619 191.358 114.387 192.288L114.502 192.148C114.464 191.215 114.217 190.631 113.503 190.006C112.467 189.103 111.099 188.579 109.755 188.355C106.982 187.893 103.719 188.183 100.899 188.147C94.8906 188.07 88.7242 187.743 82.7384 188.08C77.9394 187.985 73.1401 187.92 68.3405 187.883ZM70.6867 223.914L70.7428 224.046L70.6175 225.269C73.444 225.241 76.3358 225.343 79.1533 225.168C81.9191 225.316 106.527 225.054 107.37 224.514L107.383 224.238C105.337 223.561 75.4721 223.922 70.6867 223.914ZM194.875 151.19L194.845 152.151C195.434 154.598 195.001 161.556 195.171 164.517L195.422 162.947C195.971 164.293 195.957 165.824 196.063 167.259L196.379 164.97C196.389 162.667 196.744 154.674 196.053 153.018L195.904 153.43L195.767 153.378C195.694 152.592 195.658 151.838 195.372 151.094L194.875 151.19ZM194.845 152.151C194.719 155.531 194.598 170.162 195.221 172.73C195.37 171.846 195.18 170.508 195.621 169.778L196.1 169.588C196.428 170.43 196.22 172.539 196.259 173.556C196.199 173.259 196.147 173.213 196.255 172.935C196.667 171.874 196.472 166.378 196.379 164.97L196.063 167.259C195.957 165.824 195.971 164.293 195.422 162.947L195.171 164.517C195.001 161.556 195.434 154.598 194.845 152.151ZM91.4849 159.142L92.4668 159.406C91.5921 159.618 90.6763 159.627 89.7807 159.682C91.5729 160.196 93.4484 159.959 95.2393 159.593C94.5792 159.553 94.2802 159.252 93.7877 158.839L91.4849 159.142Z" fill="#FEFEFE"/>
<path d="M91.4848 159.142L93.7877 158.839C94.2802 159.253 94.5792 159.554 95.2393 159.593C93.4484 159.959 91.5729 160.197 89.7806 159.682C90.6762 159.628 91.592 159.618 92.4668 159.407L91.4848 159.142Z" fill="#FEFEFE" fill-opacity="0.0196078"/>
<path d="M194.845 152.151C195.434 154.598 195.001 161.557 195.171 164.517L195.422 162.948C195.971 164.293 195.957 165.824 196.063 167.259L196.379 164.97C196.472 166.379 196.667 171.874 196.255 172.935C196.147 173.213 196.199 173.259 196.259 173.556C196.22 172.539 196.428 170.43 196.1 169.588L195.621 169.778C195.18 170.508 195.37 171.847 195.221 172.73C194.598 170.162 194.719 155.531 194.845 152.151Z" fill="#FEFEFE" fill-opacity="0.827451"/>
<path d="M194.875 151.191L195.371 151.095C195.658 151.839 195.694 152.593 195.767 153.379L195.904 153.43L196.053 153.018C196.744 154.675 196.389 162.668 196.379 164.97L196.063 167.259C195.957 165.824 195.97 164.293 195.422 162.948L195.171 164.517C195.001 161.557 195.434 154.598 194.845 152.152L194.875 151.191Z" fill="#FEFEFE" fill-opacity="0.737255"/>
<path d="M70.6866 223.915C75.4721 223.923 105.337 223.561 107.383 224.238L107.37 224.515C106.527 225.055 81.919 225.316 79.1533 225.169C76.3358 225.344 73.444 225.241 70.6174 225.269L70.7427 224.046L70.6866 223.915ZM70.7427 224.046L70.6174 225.269C73.444 225.241 76.3358 225.344 79.1533 225.169C80.1685 224.887 81.2656 224.929 82.3141 224.894L82.2526 224.776L82.4115 224.795C80.9102 224.739 79.3921 224.746 77.9137 224.458L77.6956 224.413L77.6577 224.45C78.953 224.367 80.3902 224.491 81.658 224.283C82.0971 224.211 82.2257 224.17 82.7041 224.22L81.9714 224.278L81.8922 224.171C78.1751 224.172 74.4586 224.13 70.7427 224.046Z" fill="#FEFEFE" fill-opacity="0.635294"/>
<path d="M70.7427 224.046C74.4586 224.13 78.1751 224.172 81.8922 224.171L81.9714 224.278L82.7041 224.219C82.2257 224.169 82.0971 224.211 81.658 224.282C80.3902 224.49 78.953 224.366 77.6577 224.45L77.6956 224.413L77.9137 224.458C79.3921 224.745 80.9102 224.738 82.4115 224.794L82.2526 224.776L82.3141 224.894C81.2656 224.929 80.1685 224.887 79.1533 225.168C76.3358 225.343 73.444 225.24 70.6174 225.269L70.7427 224.046Z" fill="#FEFEFE" fill-opacity="0.552941"/>
<path d="M68.3405 187.883C73.1401 187.92 77.9394 187.985 82.7384 188.08C88.7241 187.743 94.8906 188.07 100.899 188.147C103.719 188.183 106.982 187.893 109.755 188.355C111.099 188.579 112.467 189.103 113.503 190.006C114.217 190.631 114.464 191.215 114.502 192.148L114.387 192.288C113.619 191.358 112.669 189.88 111.501 189.529C107.539 188.34 93.5576 188.954 88.366 188.962C81.7004 188.972 75.0115 188.843 68.3492 188.961L68.3311 188.736L68.3405 187.883ZM68.3405 187.883L68.3311 188.736C70.8492 188.67 73.3799 188.762 75.9001 188.742C77.613 188.729 79.4257 188.541 81.1246 188.739C81.1743 188.745 81.2233 188.752 81.2727 188.759L81.6533 188.466L81.6805 188.603L79.7509 188.413C80.7547 188.346 81.7423 188.217 82.7384 188.08C77.9394 187.985 73.1401 187.92 68.3405 187.883Z" fill="#FEFEFE" fill-opacity="0.27451"/>
<path d="M68.3405 187.883C73.1401 187.92 77.9394 187.985 82.7384 188.08C81.7423 188.217 80.7547 188.346 79.7509 188.413L81.6805 188.603L81.6533 188.466L81.2727 188.759C81.2233 188.752 81.1743 188.745 81.1246 188.739C79.4257 188.541 77.613 188.729 75.9001 188.742C73.3799 188.762 70.8492 188.67 68.3311 188.736L68.3405 187.883Z" fill="#FEFEFE" fill-opacity="0.0235294"/>
<path d="M140.288 179.337C140.17 176.545 139.725 156.115 140.35 155.036L140.366 169.284C140.37 172.23 140.259 175.264 140.566 178.192L141.199 177.629L141.508 177.712C141.617 177.219 141.627 176.786 141.616 176.282C142.008 176.887 141.897 178.428 141.934 179.194C143.719 179.29 145.574 179.186 147.365 179.173C147.288 175.183 147.032 171.014 147.399 167.048C147.678 170.749 147.354 174.477 147.687 178.171C147.755 178.147 147.822 178.119 147.891 178.099C148.234 177.996 148.571 177.989 148.92 178.064C148.946 178.268 148.964 178.493 149.023 178.693C149.705 181.021 155.746 179.158 157.498 180.129L157.218 180.343L133.542 180.319C130.364 180.311 126.884 180.631 123.739 180.337C123.191 180.286 123.066 180.17 122.641 179.842L122.694 179.579C125.005 179.09 128.142 179.527 130.537 179.532C133.788 179.508 137.038 179.443 140.288 179.337Z" fill="#FEFEFE" fill-opacity="0.847059"/>
<path d="M92.2626 249.386C93.2375 249.346 94.209 249.3 95.1547 249.585C96.7823 250.074 98.1593 251.133 98.9088 252.678C98.9943 252.854 99.0707 253.034 99.1379 253.217C99.2053 253.401 99.2632 253.588 99.3116 253.778C99.3597 253.967 99.3982 254.159 99.4271 254.353C99.456 254.546 99.4749 254.741 99.4839 254.936C99.4931 255.132 99.4923 255.327 99.4816 255.523C99.4708 255.718 99.4501 255.912 99.4194 256.106C99.3889 256.299 99.3487 256.49 99.2988 256.679C99.2489 256.869 99.1894 257.055 99.1204 257.238C98.341 259.282 96.7971 260.165 94.9078 260.97C93.7817 261.051 92.5636 261.036 91.4883 260.667C91.3987 260.637 91.31 260.604 91.2222 260.569C91.1342 260.534 91.0472 260.496 90.9612 260.457C90.8752 260.418 90.7903 260.376 90.7065 260.332C90.6228 260.288 90.5402 260.242 90.4589 260.194C90.3774 260.146 90.2972 260.096 90.2184 260.043C90.1396 259.991 90.0622 259.936 89.9863 259.88C89.9101 259.824 89.8357 259.766 89.7629 259.706C89.6899 259.645 89.6184 259.584 89.5485 259.52C89.4787 259.456 89.4106 259.39 89.3443 259.323C89.278 259.255 89.2134 259.186 89.1505 259.116C89.0878 259.045 89.0268 258.973 88.9677 258.899C88.9086 258.826 88.8515 258.75 88.7964 258.673C88.7411 258.596 88.6879 258.518 88.6368 258.439C88.5858 258.359 88.5367 258.279 88.4897 258.197C88.4426 258.115 88.3978 258.031 88.3553 257.947C88.3127 257.863 88.2723 257.777 88.234 257.691C88.1594 257.517 88.0936 257.339 88.0365 257.159C87.9794 256.978 87.9312 256.795 87.892 256.61C87.8531 256.425 87.8233 256.238 87.8027 256.05C87.7821 255.861 87.7708 255.673 87.7688 255.483C87.7667 255.294 87.7741 255.105 87.7909 254.916C87.8075 254.728 87.8335 254.54 87.8689 254.354C87.904 254.168 87.9483 253.984 88.0016 253.802C88.0549 253.621 88.117 253.442 88.188 253.266C88.9607 251.305 90.4183 250.238 92.2626 249.386Z" fill="black"/>
<path d="M145.279 316.226C146.186 316.23 147.063 316.286 147.931 316.564C149.445 317.05 150.652 318.119 151.374 319.525C151.422 319.62 151.468 319.716 151.51 319.813C151.553 319.911 151.594 320.009 151.632 320.109C151.67 320.208 151.705 320.309 151.737 320.41C151.77 320.511 151.8 320.613 151.827 320.716C151.855 320.819 151.88 320.923 151.901 321.027C151.924 321.131 151.943 321.236 151.96 321.341C151.976 321.446 151.99 321.551 152.002 321.657C152.013 321.763 152.021 321.869 152.027 321.976C152.033 322.082 152.036 322.188 152.036 322.295C152.037 322.401 152.034 322.508 152.029 322.614C152.024 322.72 152.016 322.826 152.005 322.932C151.995 323.038 151.981 323.144 151.965 323.249C151.949 323.354 151.93 323.459 151.909 323.563C151.887 323.667 151.863 323.771 151.836 323.874C151.81 323.977 151.78 324.079 151.748 324.181C151.716 324.282 151.681 324.383 151.644 324.483C150.89 326.481 149.422 327.433 147.582 328.313C146.31 328.333 145.036 328.271 143.764 328.228C142.397 327.182 141.252 326.144 140.586 324.51C139.973 323.001 139.953 321.284 140.644 319.795C141.593 317.749 143.29 316.981 145.279 316.226Z" fill="black"/>
<path d="M91.4849 159.142C91.2413 159.068 91.0004 158.989 90.7579 158.912L90.4717 158.825C88.3946 158.167 86.9497 156.695 85.9788 154.77C85.0799 152.988 84.8467 150.937 85.4917 149.032C85.5302 148.919 85.5716 148.808 85.6157 148.698C85.66 148.587 85.7069 148.478 85.7564 148.37C85.8062 148.262 85.8585 148.155 85.9133 148.05C85.9682 147.945 86.0258 147.841 86.086 147.738C86.146 147.636 86.2086 147.535 86.2738 147.435C86.339 147.336 86.4066 147.238 86.4767 147.142C86.5468 147.046 86.6192 146.952 86.6941 146.86C86.7689 146.767 86.8459 146.677 86.9252 146.588C87.0045 146.5 87.0859 146.413 87.1694 146.328C87.2532 146.244 87.3389 146.162 87.4267 146.081C87.5143 146.001 87.604 145.923 87.6958 145.847C87.7874 145.771 87.8808 145.698 87.976 145.627C88.0714 145.556 88.1685 145.487 88.2672 145.421C88.366 145.355 88.4663 145.291 88.5682 145.23C88.6701 145.168 88.7735 145.11 88.8783 145.053C88.9833 144.997 89.0896 144.944 89.1971 144.893C89.3104 144.838 89.4251 144.786 89.5411 144.737C89.6569 144.688 89.7739 144.642 89.8922 144.599C90.0104 144.555 90.1297 144.515 90.2499 144.478C90.3702 144.44 90.4913 144.406 90.6131 144.375C90.7351 144.344 90.8579 144.315 90.9813 144.29C91.1047 144.265 91.2286 144.243 91.3532 144.224C91.4775 144.205 91.6023 144.189 91.7277 144.177C91.8529 144.164 91.9785 144.154 92.1043 144.148C92.23 144.141 92.3557 144.138 92.4816 144.138C92.6077 144.137 92.7335 144.14 92.8592 144.146C92.985 144.152 93.1106 144.162 93.2358 144.174C93.3612 144.186 93.4861 144.202 93.6107 144.221C93.7352 144.239 93.8591 144.261 93.9825 144.285C94.1059 144.31 94.2288 144.338 94.3511 144.369C94.4731 144.4 94.5943 144.434 94.7146 144.471C94.8348 144.507 94.9542 144.547 95.0727 144.59C96.7376 145.211 97.995 146.448 98.7092 148.059C99.5484 149.952 99.6646 152.449 98.8765 154.381C97.9584 156.631 95.9387 157.943 93.7877 158.839L91.4849 159.142Z" fill="#FEFEFE"/>
<path d="M91.2135 145.632C92.188 145.542 93.1787 145.568 94.128 145.82C95.6905 146.236 97.0685 147.218 97.8734 148.634C97.9234 148.722 97.9711 148.81 98.0165 148.9C98.062 148.99 98.1051 149.081 98.1459 149.173C98.1868 149.265 98.2254 149.358 98.2614 149.452C98.2977 149.545 98.3315 149.64 98.3629 149.736C98.3942 149.831 98.4231 149.928 98.4495 150.025C98.476 150.122 98.4999 150.22 98.5214 150.318C98.5429 150.416 98.562 150.515 98.5785 150.614C98.5951 150.714 98.6091 150.813 98.6205 150.913C98.632 151.013 98.6409 151.113 98.6474 151.214C98.6539 151.314 98.6577 151.415 98.6588 151.515C98.6602 151.616 98.6589 151.716 98.6551 151.817C98.6513 151.918 98.6451 152.018 98.6363 152.118C98.6274 152.218 98.6159 152.318 98.6021 152.418C98.5882 152.518 98.5717 152.617 98.5527 152.715C98.5339 152.814 98.5125 152.913 98.4885 153.01C98.4645 153.108 98.4381 153.205 98.4092 153.302C97.7118 155.57 96.0127 156.648 93.9943 157.651C92.7043 157.728 91.4627 157.748 90.2433 157.246C90.0531 157.169 89.8675 157.083 89.6863 156.987C89.5049 156.891 89.3286 156.787 89.1575 156.673C88.9866 156.56 88.8219 156.439 88.6634 156.309C88.5046 156.179 88.3527 156.042 88.2078 155.897C88.0627 155.752 87.9253 155.6 87.7956 155.441C87.666 155.283 87.5445 155.118 87.4311 154.947C87.318 154.776 87.2137 154.6 87.118 154.419C87.0226 154.238 86.9364 154.052 86.8594 153.862C86.8206 153.768 86.7843 153.672 86.7505 153.575C86.7165 153.479 86.685 153.381 86.6561 153.283C86.6272 153.185 86.6008 153.086 86.5768 152.987C86.5531 152.887 86.5318 152.787 86.513 152.687C86.4942 152.586 86.478 152.485 86.4643 152.384C86.4506 152.282 86.4397 152.181 86.4314 152.079C86.4229 151.977 86.417 151.874 86.4139 151.772C86.4106 151.67 86.4099 151.568 86.4119 151.465C86.4139 151.363 86.4185 151.261 86.4257 151.159C86.4331 151.057 86.4429 150.955 86.4552 150.853C86.4678 150.752 86.4828 150.651 86.5003 150.55C86.5177 150.449 86.5379 150.349 86.5607 150.249C86.5833 150.149 86.6085 150.05 86.6363 149.951C86.6641 149.853 86.6943 149.755 86.727 149.658C86.7597 149.561 86.7949 149.465 86.8325 149.37C86.8701 149.275 86.9102 149.181 86.9528 149.088C87.8 147.253 89.3755 146.253 91.2135 145.632Z" fill="black"/>
<path d="M262.73 157.298C264.269 157.271 265.773 157.476 267.091 158.328C268.677 159.353 269.653 160.901 270.029 162.726C270.444 164.737 270.039 166.964 268.869 168.66C267.662 170.409 266.082 171.138 264.035 171.491C262.377 171.501 260.795 171.272 259.41 170.288C257.822 169.16 256.887 167.412 256.562 165.517C256.229 163.573 256.604 161.385 257.818 159.793C259.164 158.028 260.641 157.555 262.73 157.298Z" fill="#FEFEFE"/>
<path d="M262.083 158.603C262.984 158.547 263.845 158.495 264.729 158.718C266.271 159.108 267.627 160.053 268.427 161.436C268.479 161.526 268.529 161.618 268.576 161.71C268.623 161.803 268.668 161.897 268.71 161.992C268.753 162.087 268.793 162.183 268.83 162.281C268.867 162.378 268.902 162.476 268.934 162.575C268.966 162.674 268.996 162.774 269.023 162.874C269.05 162.975 269.074 163.076 269.095 163.178C269.117 163.279 269.136 163.382 269.152 163.484C269.168 163.587 269.182 163.69 269.193 163.794C269.204 163.897 269.212 164.001 269.217 164.105C269.223 164.209 269.225 164.313 269.225 164.417C269.225 164.521 269.222 164.625 269.217 164.729C269.211 164.833 269.203 164.937 269.192 165.04C269.181 165.144 269.167 165.247 269.151 165.35C269.135 165.452 269.116 165.554 269.094 165.656C269.072 165.758 269.048 165.859 269.021 165.96C268.994 166.06 268.964 166.16 268.932 166.259C268.248 168.342 266.781 169.319 264.931 170.268C263.587 170.323 262.283 170.327 261.025 169.793C259.586 169.182 258.396 167.989 257.855 166.517C257.788 166.333 257.73 166.146 257.681 165.956C257.632 165.766 257.592 165.574 257.562 165.38C257.532 165.186 257.511 164.992 257.5 164.796C257.489 164.6 257.488 164.404 257.496 164.208C257.504 164.013 257.521 163.818 257.548 163.624C257.576 163.429 257.612 163.237 257.658 163.046C257.704 162.856 257.76 162.668 257.824 162.482C257.888 162.297 257.962 162.116 258.044 161.938C258.88 160.154 260.307 159.281 262.083 158.603Z" fill="black"/>
<path d="M171.485 123.328C179.28 123.469 186.835 126.144 192.419 131.693C201.135 140.354 201.159 151.019 201.105 162.417L201.077 178.003L197.537 178.003C197.477 173.072 197.458 168.142 197.48 163.211C197.484 157.278 197.797 151.111 196.25 145.327C196.141 144.919 196.02 144.513 195.889 144.111C195.758 143.709 195.617 143.311 195.465 142.916C195.313 142.522 195.151 142.131 194.979 141.745C194.807 141.358 194.625 140.977 194.433 140.6C194.241 140.224 194.039 139.852 193.828 139.486C193.616 139.12 193.395 138.759 193.165 138.404C192.935 138.049 192.695 137.701 192.447 137.359C192.198 137.016 191.941 136.681 191.675 136.352C186.778 130.221 179.912 127.511 172.292 126.669C172.242 126.667 172.191 126.663 172.141 126.663C165.476 126.6 158.509 129.812 153.876 134.505C145.971 142.513 146.218 152.348 146.221 162.714L146.237 178.006L142.676 178L142.64 162.746C142.592 152.484 142.368 142.323 149.454 133.985C155.221 127.199 162.726 124.004 171.485 123.328Z" fill="black"/>
<path d="M69.3818 190.136L95.2782 190.073C100.351 190.07 105.625 189.784 110.665 190.301L113.214 192.828L106.761 199.276C104.795 201.259 102.747 203.172 100.748 205.122C97.0439 205.607 93.0849 205.304 89.3446 205.291L70.0648 205.27C69.6603 200.249 69.5327 195.171 69.3818 190.136Z" fill="black"/>
<path d="M116.062 195.466C117.413 196.779 118.868 198.006 120.264 199.273L120.356 208.822C116.625 212.973 110.805 218.678 106.519 222.267C103.447 222.453 100.304 222.373 97.22 222.424C89.8562 222.546 82.4421 222.595 75.0814 222.35L71.7156 222.345C71.3006 217.845 70.8081 213.354 70.2382 208.872L101.856 208.868C104.147 207.211 106.062 205.07 108.086 203.107L116.062 195.466Z" fill="black"/>
<path d="M259.923 199.065C264.587 198.951 269.279 199.056 273.947 199.057C273.878 208.457 273.23 218.346 271.56 227.604L237.732 227.598L223.495 227.605L223.553 214.479L244.893 214.401C249.946 209.376 255.264 204.452 259.923 199.065Z" fill="black"/>
<path d="M214.757 274.525C215.8 274.419 216.866 274.409 217.915 274.364C227.371 283.212 236.042 292.879 245.586 301.655C242.607 307.804 238.365 313.897 234.443 319.479C233.498 320.732 232.523 321.962 231.519 323.168C223.544 315.372 215.333 307.625 207.8 299.409C207.76 291.115 207.651 282.871 207.806 274.573C210.125 274.587 212.439 274.601 214.757 274.525Z" fill="black"/>
<path d="M173.848 274.575L187.642 274.577C187.462 296.688 187.479 318.8 187.693 340.91C189.879 342.853 200.586 354.449 202.129 354.774C202.014 354.965 201.903 355.153 201.773 355.331C200.79 356.703 192.239 363.696 190.877 363.938C190.635 364.276 190.399 364.508 190.072 364.766C187.575 366.746 176.328 375.252 174.036 374.997C173.594 361.287 173.931 347.58 173.943 333.867L173.848 274.575Z" fill="black"/>
<path d="M191.316 274.627L204.011 274.633L204.068 301.134C212.42 309.489 221 317.661 229.126 326.233C225.525 331.533 221.335 336.088 216.985 340.769C215.398 342.694 206.697 352.019 204.793 352.207C202.868 352.039 193.127 340.738 191.405 338.725C191.08 317.359 191.05 295.993 191.316 274.627Z" fill="black"/>
<path d="M169.657 130.668C170.561 130.592 171.497 130.597 172.405 130.59C177.728 130.552 183.121 132.935 186.874 136.666C189.625 139.402 191.785 142.925 192.814 146.672C194.305 152.104 193.736 158.341 193.706 163.942C193.683 168.628 193.692 173.315 193.735 178.001L174.576 178.005L150.066 178.004L150.039 162.435C150.012 157.91 149.712 153.182 150.594 148.722C150.746 147.957 150.935 147.202 151.161 146.456C151.388 145.709 151.65 144.976 151.949 144.255C152.248 143.535 152.582 142.831 152.95 142.143C153.318 141.456 153.72 140.788 154.154 140.14C157.86 134.66 163.291 131.886 169.657 130.668Z" fill="black"/>
<path d="M223.563 231.505C239.402 231.304 255.26 231.439 271.101 231.442C270.008 236.674 269.149 241.964 267.884 247.159C264.767 259.951 260.215 272.058 254.866 284.066C252.879 288.805 250.293 293.899 247.533 298.231C238.845 289.611 229.593 281.404 221.335 272.377C222.157 271.229 222.929 270.122 223.202 268.715C224.143 263.875 223.539 258.409 223.506 253.489L223.563 231.505Z" fill="black"/>
<path d="M119.682 214.391L119.942 214.603C121.065 217.367 120.347 224.892 120.248 228.132C116.792 231.944 113.146 235.462 109.48 239.059C106.399 242.082 103.397 245.18 100.043 247.905C97.8297 246.376 95.3084 245.304 92.5689 245.61C92.4058 245.627 92.2432 245.647 92.0811 245.672C91.9192 245.697 91.7579 245.726 91.5973 245.758C91.4368 245.791 91.2771 245.828 91.1183 245.869C90.9595 245.91 90.802 245.955 90.6456 246.004C90.4891 246.052 90.3339 246.105 90.18 246.162C90.0262 246.218 89.8739 246.278 89.7232 246.343C89.5722 246.407 89.4231 246.475 89.2757 246.546C89.1283 246.618 88.9829 246.693 88.8393 246.772C88.6957 246.851 88.5542 246.933 88.4147 247.019C88.2751 247.105 88.1379 247.195 88.0028 247.288C87.8678 247.381 87.7352 247.477 87.6051 247.576C87.475 247.676 87.3474 247.778 87.2224 247.884C87.0972 247.99 86.975 248.099 86.8556 248.211C86.736 248.323 86.6193 248.438 86.5055 248.556C86.3918 248.674 86.281 248.794 86.1733 248.917C86.0656 249.041 85.961 249.167 85.8595 249.296C84.2907 251.315 83.4677 254.109 83.8177 256.65C83.8399 256.804 83.8659 256.957 83.8956 257.11C83.9252 257.263 83.9587 257.414 83.9961 257.565C84.0335 257.716 84.0746 257.866 84.1194 258.015C84.1642 258.164 84.2127 258.312 84.2648 258.459C84.3172 258.605 84.3731 258.75 84.4325 258.894C84.4918 259.038 84.5549 259.18 84.6216 259.321C84.6881 259.461 84.7581 259.6 84.8316 259.737C84.905 259.874 84.9818 260.009 85.062 260.143C85.1424 260.276 85.226 260.407 85.3126 260.537C85.3995 260.666 85.4896 260.792 85.5827 260.917C85.6759 261.042 85.7721 261.164 85.8713 261.284C85.9705 261.404 86.0726 261.521 86.1777 261.636C86.2829 261.75 86.3909 261.863 86.5015 261.972C86.6122 262.081 86.7255 262.188 86.8415 262.292C86.9575 262.395 87.0761 262.496 87.1972 262.594C87.3182 262.692 87.4416 262.787 87.5674 262.879C87.7018 262.976 87.8383 263.069 87.977 263.16C88.116 263.25 88.2571 263.337 88.4002 263.42C88.5433 263.504 88.6884 263.584 88.8353 263.66C88.9824 263.736 89.1312 263.809 89.2817 263.878C89.4325 263.947 89.5847 264.013 89.7386 264.074C89.8922 264.136 90.0474 264.194 90.2042 264.248C90.3608 264.302 90.5186 264.352 90.6779 264.398C90.8369 264.444 90.997 264.487 91.1583 264.525C91.3195 264.564 91.4816 264.598 91.6444 264.629C91.8074 264.659 91.971 264.686 92.1352 264.709C92.2993 264.731 92.464 264.75 92.629 264.764C92.7941 264.778 92.9595 264.789 93.1252 264.795C93.2907 264.802 93.4563 264.804 93.622 264.802C93.7878 264.801 93.9534 264.795 94.1189 264.785C94.2844 264.776 94.4495 264.762 94.6141 264.744C94.7789 264.726 94.9432 264.704 95.1069 264.678C97.7151 264.288 100.174 262.859 101.727 260.718C103.84 257.807 103.509 254.626 102.96 251.274C106.859 245.739 115.173 238.612 120.257 233.552L120.261 266.14C120.275 267.888 120.422 271.26 121.834 272.524C125.016 275.371 131.116 274.613 135.049 274.416C135.041 277.772 135.014 281.128 134.966 284.484C133.94 285.345 133.019 286.326 132.082 287.281C128.672 291.091 124.976 294.729 121.417 298.403L106.053 314.413C101.996 309.701 99.073 304.02 96.1328 298.576C95.0023 296.493 93.9073 294.392 92.8477 292.273C91.7882 290.154 90.7647 288.017 89.7772 285.863C88.79 283.709 87.8393 281.539 86.9251 279.354C86.0109 277.168 85.134 274.967 84.2944 272.752C83.4546 270.536 82.6523 268.308 81.8877 266.065C81.1234 263.823 80.397 261.568 79.7085 259.301C79.0203 257.035 78.3705 254.757 77.7591 252.468C77.1474 250.179 76.5748 247.881 76.0411 245.573C74.5751 239.165 73.5447 232.729 72.4496 226.254L108.194 226.118C112.127 222.31 115.957 218.401 119.682 214.391Z" fill="black"/>
<path d="M139.009 274.456C144.074 274.387 149.139 274.364 154.205 274.385C153.968 284.075 154.092 293.788 154.091 303.481C151.864 306.065 149.312 308.98 146.616 311.06C143.961 313.108 140.144 314.028 138.18 316.852C138.088 316.986 138 317.122 137.914 317.261C137.829 317.399 137.748 317.539 137.669 317.682C137.591 317.824 137.516 317.969 137.445 318.115C137.374 318.261 137.306 318.409 137.243 318.558C137.179 318.707 137.118 318.858 137.062 319.011C137.005 319.163 136.953 319.317 136.904 319.472C136.855 319.627 136.809 319.783 136.768 319.94C136.727 320.097 136.689 320.255 136.656 320.414C136.622 320.573 136.593 320.733 136.567 320.893C136.541 321.054 136.519 321.215 136.501 321.376C136.484 321.538 136.47 321.7 136.46 321.862C136.45 322.024 136.444 322.187 136.442 322.349C136.441 322.512 136.443 322.674 136.449 322.836C136.455 322.999 136.465 323.161 136.479 323.323C136.493 323.485 136.511 323.646 136.533 323.807C136.555 323.968 136.581 324.129 136.61 324.288C137.124 326.925 138.754 329.164 140.995 330.623C143.146 332.024 145.703 332.605 148.229 332.042C148.386 332.009 148.543 331.971 148.698 331.93C148.853 331.889 149.008 331.844 149.161 331.795C149.314 331.746 149.466 331.693 149.616 331.636C149.767 331.579 149.916 331.519 150.063 331.455C150.211 331.39 150.356 331.323 150.5 331.251C150.644 331.18 150.786 331.104 150.926 331.026C151.067 330.947 151.205 330.865 151.341 330.779C151.477 330.694 151.611 330.605 151.742 330.512C151.874 330.42 152.003 330.324 152.13 330.225C152.256 330.127 152.381 330.025 152.502 329.919C152.624 329.814 152.743 329.706 152.859 329.595C152.975 329.484 153.088 329.37 153.199 329.253C153.309 329.137 153.416 329.017 153.521 328.895C153.625 328.773 153.726 328.648 153.824 328.521C153.922 328.394 154.017 328.264 154.109 328.132C154.2 328 154.288 327.866 154.373 327.729C155.744 325.472 156.111 322.661 155.482 320.107C154.669 316.804 152.57 314.831 149.764 313.112L158.072 304.736C158.268 294.608 158.134 284.503 158.133 274.376C162.147 274.431 166.161 274.456 170.175 274.451C170.402 290.944 170.419 307.438 170.227 323.932L170.222 375.372C170.036 375.375 169.872 375.389 169.69 375.352C168.011 375.009 162.59 370.802 160.883 369.604C142.708 356.857 119.356 336.605 108.137 317.562C112.457 312.84 116.998 308.356 121.477 303.786C127.28 297.864 133.024 291.907 138.895 286.049L139.009 274.456Z" fill="black"/>
<path d="M169.693 84.0273C170.583 84.9561 170.102 116.261 170.07 119.446C162.012 120.289 155.018 123.018 149.179 128.822C138.884 139.053 138.754 148.138 138.788 161.666L138.744 178.008C133.788 178.059 128.986 177.556 124.045 178.282C119.676 174.061 115.368 169.78 111.12 165.438C108.038 162.262 105.039 158.964 101.791 155.958C102.593 152.868 102.646 149.433 101.042 146.581C99.7654 144.312 97.4868 142.588 94.9723 141.917C92.3976 141.229 89.647 141.754 87.3693 143.086C85.1437 144.388 83.5181 146.436 82.9014 148.951C82.8593 149.119 82.8213 149.287 82.7875 149.456C82.7537 149.625 82.7242 149.795 82.6991 149.966C82.6738 150.136 82.6529 150.307 82.6363 150.479C82.6195 150.651 82.6071 150.823 82.599 150.995C82.5912 151.168 82.5875 151.34 82.5879 151.512C82.5886 151.685 82.5935 151.858 82.6027 152.03C82.6121 152.202 82.6257 152.374 82.6434 152.545C82.6613 152.717 82.6835 152.888 82.7099 153.058C82.7363 153.229 82.7671 153.399 82.8023 153.567C82.8372 153.737 82.8763 153.905 82.9195 154.071C82.963 154.239 83.0105 154.404 83.0623 154.569C83.114 154.733 83.1698 154.897 83.2296 155.059C83.2894 155.22 83.3532 155.38 83.4211 155.539C83.4891 155.698 83.561 155.855 83.6367 156.01C83.7124 156.165 83.792 156.318 83.8756 156.469C83.9589 156.62 84.046 156.769 84.1369 156.915C84.22 157.052 84.3065 157.187 84.3963 157.319C84.4861 157.452 84.5793 157.582 84.6758 157.71C84.7721 157.838 84.8714 157.963 84.9738 158.086C85.0763 158.209 85.1819 158.329 85.2906 158.446C85.3992 158.564 85.5106 158.679 85.6248 158.791C85.739 158.903 85.8559 159.013 85.9755 159.119C86.0953 159.225 86.2176 159.329 86.3424 159.429C86.4671 159.529 86.5943 159.627 86.724 159.72C86.8537 159.814 86.9856 159.905 87.1197 159.993C87.2539 160.08 87.3902 160.164 87.5286 160.245C87.667 160.325 87.8073 160.402 87.9495 160.476C88.0915 160.55 88.2354 160.62 88.3812 160.686C88.5268 160.753 88.674 160.816 88.8229 160.875C88.9716 160.935 89.1218 160.99 89.2734 161.042C89.425 161.094 89.5778 161.142 89.7316 161.186C89.8857 161.23 90.0407 161.271 90.1966 161.307C93.6645 162.11 96.5005 160.854 99.4056 159.081L113.832 173.529L120.838 180.53C119.738 185.036 120.192 190.061 120.282 194.669L111.954 186.388C97.9221 185.77 83.4963 186.303 69.4353 186.372L69.4246 136.051C102.31 131.762 128.193 121.435 153.463 99.7154C159.178 94.8033 164.796 89.7713 169.693 84.0273Z" fill="black"/>
<path d="M173.615 84.2275C175.949 85.6703 177.844 88.2751 179.817 90.1987C183.649 93.9341 187.598 97.6951 191.739 101.084C192.473 101.692 193.211 102.293 193.955 102.887C194.699 103.482 195.449 104.07 196.204 104.651C196.958 105.232 197.718 105.806 198.483 106.374C199.248 106.941 200.018 107.502 200.793 108.056C201.568 108.61 202.348 109.157 203.133 109.696C203.918 110.236 204.707 110.769 205.501 111.295C206.296 111.821 207.095 112.339 207.899 112.851C208.702 113.362 209.51 113.867 210.323 114.364C211.136 114.861 211.953 115.35 212.774 115.833C213.596 116.315 214.421 116.79 215.251 117.258C216.081 117.726 216.915 118.186 217.753 118.639C218.592 119.092 219.434 119.537 220.28 119.975C221.126 120.413 221.976 120.843 222.83 121.265C223.684 121.688 224.541 122.103 225.403 122.511C226.264 122.918 227.129 123.317 227.997 123.709C228.866 124.101 229.738 124.485 230.613 124.861C231.488 125.238 232.367 125.606 233.249 125.967C234.131 126.328 235.016 126.68 235.904 127.025C236.793 127.37 237.684 127.706 238.578 128.035C239.472 128.364 240.37 128.685 241.27 128.998C242.17 129.311 243.072 129.616 243.978 129.912C244.883 130.209 245.792 130.498 246.702 130.778C247.613 131.059 248.526 131.331 249.441 131.595C250.357 131.86 251.275 132.116 252.195 132.364C253.115 132.611 254.037 132.851 254.962 133.082C255.886 133.314 256.813 133.537 257.741 133.751C258.669 133.966 259.6 134.173 260.532 134.371C261.464 134.569 262.398 134.759 263.333 134.94C264.269 135.122 265.206 135.295 266.144 135.46C267.083 135.625 268.023 135.781 268.964 135.929C269.906 136.077 270.848 136.217 271.792 136.348C272.736 136.479 273.681 136.602 274.627 136.716C274.63 156.235 274.898 175.684 274.312 195.203C269.064 195.266 263.817 195.266 258.569 195.205C253.721 200.486 248.562 205.462 243.417 210.453C236.882 211.166 230.078 210.652 223.501 210.64L223.509 197.705L235.579 197.708C238.003 194.909 240.642 192.326 243.268 189.719C248.474 184.24 253.777 178.856 259.177 173.567C259.482 173.675 259.79 173.774 260.102 173.862C262.743 174.631 265.153 174.708 267.621 173.336C270.044 171.988 272.216 169.584 272.944 166.873C272.983 166.726 273.018 166.578 273.05 166.429C273.082 166.28 273.11 166.13 273.134 165.98C273.158 165.83 273.178 165.679 273.194 165.528C273.211 165.377 273.223 165.225 273.232 165.074C273.241 164.922 273.246 164.77 273.247 164.618C273.248 164.466 273.245 164.314 273.239 164.161C273.232 164.01 273.222 163.858 273.208 163.706C273.193 163.555 273.175 163.404 273.154 163.253C273.132 163.103 273.106 162.953 273.077 162.804C273.047 162.655 273.014 162.506 272.977 162.359C272.941 162.211 272.9 162.064 272.856 161.919C272.811 161.773 272.763 161.629 272.712 161.486C272.66 161.343 272.605 161.201 272.546 161.061C272.488 160.92 272.426 160.782 272.36 160.644C272.294 160.507 272.225 160.372 272.152 160.238C272.08 160.104 272.004 159.972 271.925 159.842C270.462 157.42 267.989 155.357 265.197 154.712C265.051 154.68 264.905 154.651 264.758 154.626C264.611 154.601 264.463 154.579 264.315 154.562C264.167 154.544 264.018 154.529 263.87 154.519C263.721 154.508 263.572 154.501 263.423 154.497C263.274 154.494 263.124 154.494 262.975 154.498C262.826 154.502 262.677 154.509 262.528 154.52C262.38 154.531 262.231 154.545 262.083 154.564C261.935 154.582 261.788 154.603 261.641 154.629C261.494 154.654 261.347 154.683 261.202 154.715C261.056 154.748 260.911 154.784 260.767 154.823C260.624 154.863 260.481 154.905 260.339 154.952C260.197 154.998 260.057 155.048 259.917 155.101C259.778 155.154 259.64 155.21 259.503 155.27C259.367 155.33 259.232 155.393 259.098 155.46C258.965 155.526 258.833 155.596 258.702 155.668C258.572 155.741 258.444 155.817 258.318 155.896C256.078 157.293 254.502 159.629 253.941 162.197C253.215 165.516 254.171 168.364 255.943 171.151C251.765 175.342 247.672 179.613 243.662 183.964C240.971 186.827 238.284 189.846 235.364 192.474C232.48 195.071 227.107 194.095 223.488 193.899C223.587 189.908 224.567 182.568 221.57 179.566C218.997 176.989 208.766 178.008 204.838 178.067L204.897 161.8C204.91 150.921 205.165 141.685 198.109 132.535C191.849 124.418 183.501 120.774 173.567 119.472C173.564 107.732 173.392 95.9651 173.615 84.2275Z" fill="black"/>
<path d="M126.163 181.685C132.933 181.616 139.713 181.778 146.485 181.78L189.124 181.691L207.06 181.669C210.538 181.639 214.301 181.275 217.738 181.77C218.313 181.852 218.71 182.026 219.035 182.527C219.32 182.968 219.439 183.534 219.466 184.052C219.765 189.788 219.629 195.654 219.643 201.407L219.499 239.087C219.489 245.264 219.655 251.433 219.671 257.608C219.68 261.136 219.882 264.951 219.236 268.422C219.03 269.53 217.99 270.078 217.121 270.643C212.795 271.413 207.976 270.871 203.577 270.851L179.909 270.842L145.483 270.849C139.696 270.861 133.638 271.31 127.881 270.812C126.853 270.724 125.204 270.606 124.514 269.776C124.216 268.818 124.103 267.818 124.052 266.82C123.666 259.26 123.584 184.147 124.393 182.741C124.777 182.073 125.473 181.899 126.163 181.685ZM168.14 226.657C169.922 226.964 174.103 226.489 175.299 227.004C176.422 227.192 178.384 226.213 179.31 225.575C182.955 223.063 184.464 218.052 185.268 213.938C184.964 212.989 184.647 212.045 184.318 211.105C183.06 207.609 180.966 203.996 177.465 202.368C174.558 201.017 170.949 200.907 167.95 202.03C164.727 203.237 162.21 206.227 160.869 209.322C159.232 213.099 159.499 216.437 161.024 220.2C162.585 224.054 164.457 225.099 168.14 226.657Z" fill="black"/>
<path d="M168.14 226.656C169.922 226.963 174.103 226.488 175.299 227.003C175.1 227.127 174.638 227.334 174.501 227.5C173.606 228.581 174.697 238.974 173.973 241.55C173.762 242.299 173.504 242.67 172.83 243.048C172.154 243.133 171.522 243.127 170.936 242.724C168.672 241.164 170.592 230.895 169.662 227.811C169.439 227.072 168.774 226.941 168.14 226.656Z" fill="#FEFEFE"/>
</svg>
