<svg width="264" height="212" viewBox="0 0 264 212" fill="none" xmlns="http://www.w3.org/2000/svg">
<path fill-rule="evenodd" clip-rule="evenodd" d="M152.207 211.152C183.689 211.152 211.317 187.733 195.801 155.925C180.285 124.117 237.936 125.144 254.871 103.16C275.524 76.3504 269.543 -37.4542 136.96 31.9266C115.722 43.0406 61.1782 20.4929 43.0857 31.6807C21.789 44.8498 -8.17426 71.8158 21.789 99.4387C36.5483 113.045 -16.3673 148.361 6.80869 179.996C29.4226 210.863 45.2746 181.437 79.704 187.733C114.133 194.029 128.825 211.152 152.207 211.152Z" fill="#D7403D"/>
<path d="M115.665 155.816C115.665 155.816 122.914 152.406 125.621 150.034C128.327 147.661 131.691 141.767 131.691 141.767C131.691 141.767 168.648 168.457 192.745 164.65C198.297 163.773 209.116 160.082 209.805 153.58C211.689 135.825 185.625 131.287 191.318 122.283C194.794 116.787 205.59 124.967 205.59 124.967L250.368 146.992C250.368 146.992 234.898 185.125 197.357 186.654C151.176 188.533 115.665 155.816 115.665 155.816Z" fill="white"/>
<path fill-rule="evenodd" clip-rule="evenodd" d="M80.1634 6.47673C79.7431 6.31173 77.486 3.54807 74.6206 3.04507C73.3185 2.81649 74.5003 4.4745 73.0673 4.48942C68.7993 4.53386 61.8633 3.73201 60.5784 4.48942C59.6235 5.05055 61.7266 7.01083 60.5784 7.10082C49.7459 7.94991 33.22 18.7659 29.6345 24.0132C28.4935 25.6831 37.7221 22.8499 36.2517 23.6755C34.6013 24.6021 32.771 30.6694 31.6767 35.3554C30.9191 38.5823 30.442 42.7351 30.2737 47.2528C30.1334 51.1531 30.1895 51.7985 30.7507 53.9311C31.3961 56.3162 31.9012 57.0177 32.771 56.681C33.0797 56.5687 33.22 56.1478 33.22 55.3621C33.22 54.7448 33.5567 52.8929 33.9776 51.2373L34.7072 48.263L35.0158 49.4976C35.4087 50.9287 37.7096 55.3621 39.786 58.589C39.898 58.7603 40.3798 58.5424 40.8143 57.4923C41.2102 56.5352 41.0496 55.0064 41.7221 53.3679C43.2542 49.6355 46.2625 44.7827 49.7459 40.8982C54.8939 35.1573 56.602 28.5133 61.4277 23.18C70.4336 13.2269 81.7366 7.09438 80.1634 6.47673Z" fill="white"/>
<path fill-rule="evenodd" clip-rule="evenodd" d="M36.3797 25.031C34.935 26.1927 32.7906 35.6155 32.7538 35.773C31.9962 38.9999 31.2659 50.2057 32.0124 52.3273C32.7589 54.4489 34.8492 46.8011 34.8492 46.8011C34.8492 46.8011 38.0086 55.0052 40.8003 57.2545C40.9196 57.3506 37.482 47.1043 36.3797 41.1228C34.9246 33.2268 37.2019 24.3698 36.3797 25.031Z" fill="#E7EAEE"/>
<path fill-rule="evenodd" clip-rule="evenodd" d="M90.2262 190.058C92.92 189.468 97.4652 187.416 99.2054 186.715C100.946 186.013 106.248 178.525 108.157 170.079C109.532 163.85 110.233 154.983 109.447 153.495C109.331 153.284 108.907 149.252 110.037 150.569C112.548 153.495 115.529 158.09 124.936 149.857C127.498 147.615 130.894 144.721 130 142.163C127.498 135.004 116.654 120.591 115 119.499C113.024 118.194 103.033 119.303 88.1641 114.914C71.3019 109.938 64.2805 95.282 57.6818 97.1897C52.3453 98.7325 39.5597 108.214 36.3509 114.218C21.2022 142.563 39.5597 162.425 43.7404 168.129L47.7996 169.882L47.9399 173.502L48.1363 175.775C48.5011 180.124 48.6414 180.517 50.6056 181.976C55.5161 185.708 65.1968 189.188 73.9515 190.422C78.0202 190.984 86.8591 190.787 90.2262 190.058Z" fill="white"/>
<path fill-rule="evenodd" clip-rule="evenodd" d="M49.3961 172.177L49.5925 174.449C49.9573 178.799 50.0976 179.192 52.0618 180.651C54.9586 182.852 59.5156 184.966 64.5633 186.583C68.0719 187.707 71.8176 188.59 75.4077 189.097C79.4764 189.658 88.3153 189.461 91.6824 188.732C93.3468 188.371 79.6565 177.616 71.5914 180.651C65.3979 182.981 50.7998 165.204 56.7351 160.559C63.3933 155.349 51.1926 134.8 50.7998 130.338C50.4069 125.877 48.8599 124.811 48.8147 124.968C48.7696 125.124 48.7696 125.658 48.891 126.944C49.4145 132.488 49.3961 172.177 49.3961 172.177Z" fill="#E7EAEE"/>
<path fill-rule="evenodd" clip-rule="evenodd" d="M47.9343 129.065C48.5234 128.95 49.0939 129.335 49.2086 129.924C51.3263 140.804 60.2842 148.17 76.3023 152.022C92.4156 155.896 103.391 155.687 109.174 151.552C109.662 151.203 109.299 154.192 108.941 154.422C105.169 156.84 92.3451 160.449 77.0414 157.187C57.4742 153.017 48.2867 136.563 47.0753 130.339C46.9606 129.75 47.3452 129.18 47.9343 129.065Z" fill="#669DEF"/>
<path fill-rule="evenodd" clip-rule="evenodd" d="M39.7745 109.435C40.2954 109.137 59.7301 131.41 86.4011 136.452C113.072 141.494 119.53 138.287 120.568 131.41C120.657 130.817 121.211 130.408 121.804 130.498C122.398 130.588 122.806 131.141 122.717 131.735C121.401 140.45 109.06 142.523 86.0355 138.594C63.3003 134.715 47.7131 125.497 39.371 110.917C39.0729 110.397 39.2536 109.733 39.7745 109.435Z" fill="#669DEF"/>
<path fill-rule="evenodd" clip-rule="evenodd" d="M151.717 108.199C150.988 107.947 150.202 107.386 149.697 106.74L148.855 105.702L151.829 102.756C156.403 98.2661 159.911 93.6643 162.941 88.1926C163.951 86.3687 166.505 80.2797 166.505 79.6904C166.505 79.494 166.813 78.7083 167.178 77.8946C167.739 76.7161 168.16 76.2671 169.367 75.5937C170.798 74.7519 172.425 74.4713 173.127 74.9483C174.474 75.8462 174.474 78.6803 173.127 83.5627C171.64 88.9222 169.647 92.7664 165.523 98.2942C164.877 99.136 163.671 100.792 162.801 101.942C160.472 105.029 158.957 106.516 156.908 107.666C154.888 108.789 153.709 108.929 151.717 108.199ZM171.864 105.674L173.885 106.572C174.303 106.765 178.925 108.986 184.476 111.653C193.426 115.954 204.793 121.416 204.863 121.416C204.975 121.416 205.501 120.198 205.62 118.778C205.901 115.719 206.939 111.567 208.146 108.676C208.707 107.386 209.156 105.772 209.156 105.632C209.156 105.568 208.7 105.384 207.953 105.083C207.064 104.724 205.763 104.2 204.33 103.513C197.258 100.118 183.425 93.1873 181.713 92.1491C180.03 91.167 179.693 91.0828 179.693 91.7282C179.693 92.57 177.981 96.4703 176.662 98.5748C175.961 99.7253 174.586 101.802 173.604 103.177L171.864 105.674ZM204.386 116.365C205.19 116.831 203.796 117.515 203.46 117.628C201.477 117.796 199.143 117.423 197.23 116.309C196.23 115.6 188.357 111.225 183.134 108.324C180.746 106.997 178.912 105.978 178.542 105.758C177.364 105.057 176.242 104.299 176.045 104.075C175.456 103.317 176.017 102.98 177.673 103.121C178.668 103.205 202.648 115.357 204.386 116.365ZM97.9857 187.031L97.9858 187.031L97.9889 187.03L97.9898 187.03C98.5113 186.81 98.9601 186.62 99.3011 186.483C101.041 185.781 106.344 178.293 108.252 169.847C109.627 163.618 110.329 154.751 109.543 153.264C109.069 152.402 111.884 155.292 113.979 157.443C114.615 158.096 115.184 158.68 115.576 159.072C127.81 171.222 146.021 180.987 164.933 185.561C174.362 187.862 181.068 188.675 190.075 188.675C205.199 188.675 217.125 185.701 227.956 179.163C228.47 178.853 228.952 178.568 229.411 178.296L229.412 178.295C233.188 176.06 235.437 174.728 241.593 167.799C248.499 160.026 254.641 141.984 256.689 135.754C257.587 132.948 259.776 121.788 259.776 119.002C259.776 115.705 258.626 114.148 257.054 112.549C254.276 109.827 250.516 108.845 247.402 110.023L245.942 110.584L245.494 109.097C244.848 106.852 243.501 105.057 241.425 103.71C238.338 101.661 237.889 101.521 235.111 101.521C232.951 101.521 232.361 101.633 230.987 102.279L229.387 103.008L229.05 101.998C228.405 99.9217 226.24 97.027 224.561 96.1897C223.071 95.4471 220.493 95.379 218.696 95.7127C214.768 96.4422 211.962 98.2661 210.811 100.82C210.475 101.605 210.054 102.223 209.885 102.223C209.745 102.223 204.217 100.679 197.623 97.7605C196.512 97.2671 195.468 96.8043 194.487 96.3698L194.485 96.3686L194.485 96.3685C182.644 91.1201 180.077 89.9826 180.31 88.5574C180.507 87.3508 180.451 86.6774 180.114 85.6391C179.525 83.8994 178.851 83.4224 176.943 83.4224C175.428 83.4224 175.428 83.4224 175.596 82.6648C176.494 78.3716 176.466 75.9023 175.512 74.331C174.867 73.2928 174.109 72.8719 172.369 72.6193C171.359 72.479 170.882 72.5632 169.76 73.1805C169.002 73.5734 168.357 73.854 168.301 73.7978C168.244 73.7417 168.441 72.1984 168.75 70.3745C171.05 56.8777 169.273 45.2488 163.408 32.9024C163.352 32.7846 163.287 32.6452 163.213 32.4858L163.213 32.4847C161.43 28.6571 154.261 13.266 133.759 5.4999C132.831 5.14838 131.953 4.80848 131.109 4.48182C124.125 1.77858 119.482 -0.0185053 108.28 0.000143779C95.7248 0.0210464 91.4724 1.79598 83.1947 5.58408C82.0443 6.11722 81.0341 6.42587 80.9499 6.31363C80.8657 6.17334 80.3326 5.83662 79.7995 5.55602C79.2663 5.27542 78.1159 4.57392 77.2741 4.01272C74.8609 2.38524 73.3737 1.7118 72.6161 1.88016C71.7463 2.10464 71.7463 2.8342 72.6161 3.17092C72.9809 3.31122 73.4018 3.78824 73.5701 4.26526C73.9349 5.27542 74.3558 5.38766 74.6084 4.54586C74.7206 4.2372 74.889 4.01272 74.9731 4.06884C75.0051 4.0848 75.1119 4.1348 75.2749 4.2111L75.275 4.21114C75.6851 4.40314 76.4509 4.76161 77.2741 5.16318C78.4245 5.72438 79.6872 6.31364 80.0239 6.45394C80.6413 6.67841 80.4448 6.84677 77.7791 8.41813C67.3689 14.5352 58.8948 24.0475 54.1527 34.8787C53.4231 36.5062 52.7777 37.5163 52.1043 38.0775C50.3926 39.5086 47.0254 43.5773 46.2397 45.1767C45.8188 46.0465 44.9209 47.3934 44.2194 48.1791C43.546 48.9648 42.8164 49.9749 42.5639 50.3958C42.3394 50.8448 42.1149 51.1535 42.0308 51.0973C41.9746 51.0132 42.0588 49.6382 42.2552 48.0388C42.6761 44.3068 42.6761 43.3247 42.3394 43.2405C41.8343 43.1002 41.1048 45.0644 40.7961 47.5057C40.5716 48.9928 40.5155 51.2376 40.6558 53.5386L40.8242 57.1863L38.8319 53.9595C38.1457 52.8786 37.4699 51.7978 36.9906 51.0312L36.9901 51.0304C36.6858 50.5436 36.4607 50.1836 36.3626 50.0311C35.6331 48.9648 35.2122 47.3654 35.5208 46.8322C35.6892 46.5236 35.6611 46.3833 35.3805 46.3833C34.7913 46.3833 33.6408 48.2633 32.8832 50.4239C32.5184 51.4341 32.1536 52.2759 32.0414 52.2759C31.6205 52.2759 31.8169 42.2304 32.2659 39.0035C33.1919 32.6339 35.6331 24.7771 36.7274 24.7771C36.9519 24.7771 37.1483 24.6648 37.1483 24.4965C37.1483 23.9914 36.4188 24.1878 35.8295 24.8332C34.5107 26.2643 32.771 30.6697 31.6766 35.3557C30.919 38.5826 30.442 42.7355 30.2736 47.2531C30.1333 51.1535 30.1894 51.7988 30.7506 53.9314C31.396 56.3165 31.9011 57.018 32.771 56.6813C33.0796 56.569 33.2199 56.1481 33.2199 55.3624C33.2199 54.7451 33.5566 52.8932 33.9775 51.2376L34.7071 48.2633L35.0158 49.4979C35.4086 50.929 37.7095 55.3624 39.786 58.5893C41.217 60.778 41.2451 60.9183 41.7221 64.3416C41.9746 66.2778 42.7603 70.9871 44.5842 78.2313C46.1957 84.6321 55.2554 90.9816 57.5174 92.567L57.5176 92.5671C57.8156 92.7759 57.9955 92.9021 58.0249 92.9347C58.3055 93.2434 58.6984 93.4118 58.9228 93.3276C59.1754 93.2434 59.3157 93.3556 59.3157 93.6643C59.3157 93.9449 59.5121 94.3097 59.7366 94.478C60.0172 94.6745 60.2136 95.4321 60.2697 96.7509C60.41 99.3885 62.3742 104.439 63.8895 106.095C64.8716 107.161 66.9199 107.61 69.1928 107.217C70.68 106.993 71.1009 106.824 70.9606 106.488C70.8764 106.263 71.4095 106.544 72.1391 107.105C80.6693 113.615 89.3118 117.515 99.0205 119.199C102.781 119.844 109.01 120.209 112.405 119.956C114.582 119.814 115.181 119.775 115.292 119.989C115.334 120.07 115.306 120.187 115.267 120.349C115.071 121.135 115.323 121.612 119.448 128.599C122.731 134.127 123.012 134.492 126.66 138.224C134.404 146.221 142.85 152.422 152.419 157.22C161.426 161.71 175.807 165.442 188.953 166.62C202.099 167.799 211.541 155.733 211.513 152.646C211.457 148.409 210.868 145.631 209.436 142.938C208.033 140.328 207.107 139.43 202.898 136.624C198.212 133.509 195.322 130.956 193.414 128.234C192.208 126.523 191.759 124.586 191.759 123.548C191.759 122.875 192.629 121.359 193.919 121.051C195.098 120.742 195.322 120.77 196.641 121.416C197.427 121.78 199.475 122.734 201.159 123.548C202.87 124.334 204.526 125.12 204.863 125.288C205.855 125.564 206.275 127.507 206.503 128.56L206.503 128.56C206.553 128.796 206.595 128.986 206.63 129.104C207.023 130.563 208.882 132.447 210.082 133.089C212.188 134.215 217.378 134.366 218.809 132.822C219.174 132.429 220.383 131.946 220.632 132.093C220.882 132.239 221.783 133.453 221.783 134.435C221.811 136.119 222.681 137.662 224.533 139.206C228.04 142.124 230.762 142.825 233.512 141.535C234.943 140.861 236.116 140.598 236.116 140.598C236.116 140.598 237.286 142.091 237.356 142.601C237.907 146.588 243.81 148.259 245.381 148.427C245.741 148.463 246.442 148.309 247.154 148.153C248.106 147.944 249.077 147.73 249.282 147.96C249.683 148.413 242.575 160.166 241.593 161.654C232.249 175.684 214.066 184.27 191.815 185.168C177.364 185.757 159.602 181.716 144.197 174.365C134.348 169.623 125.621 163.814 116.277 155.677C114.65 154.274 112.77 152.674 112.096 152.113C111.423 151.58 109.824 149.756 108.589 148.073C106.513 145.267 105.334 144.256 105.334 145.21C105.334 145.631 106.681 148.213 108.224 150.766C108.842 151.776 109.234 152.478 109.094 152.366C108.954 152.253 108.505 154.274 108.084 156.855C106.709 165.133 104.436 173.298 102.135 178.377C100.872 181.127 98.4513 183.181 97.7218 183.742C95.028 185.79 90.9954 186.711 85.4114 187.272C78.3403 187.974 67.9301 186.402 59.9891 183.428C57.8846 182.642 52.4691 180.37 52.1043 180.117C52.0824 180.095 51.9581 179.288 51.7846 178.162L51.7843 178.16L51.7842 178.159C51.7354 177.842 51.6827 177.5 51.6273 177.143C50.6171 170.212 49.2141 143.527 49.2141 131.18C49.2141 126.074 49.158 124.951 48.8213 124.951C48.1198 124.951 47.8392 125.625 47.5305 128.038C46.829 133.538 46.9693 162.243 47.7269 168.276L47.8953 169.651L46.9412 169.118C45.4821 168.276 39.9263 162.636 37.9901 160.026C36.351 157.795 35.3768 154.938 34.648 152.8L34.6478 152.8L34.6477 152.799C34.4783 152.303 34.3221 151.845 34.174 151.442C30.1053 140.162 31.5363 127.505 37.1483 116.112C41.9185 106.404 47.783 101.016 56.3694 98.4064C57.7724 97.9855 59.007 97.5366 59.1473 97.4243C59.6805 96.9192 56.2572 97.1718 54.3771 97.761C48.2601 99.6411 41.8624 104.776 37.5131 111.342C31.396 120.546 28.6461 134.127 30.5823 145.716C31.0312 148.465 32.8551 154.414 33.3602 154.835C33.4049 154.88 33.6357 155.364 33.9848 156.096C34.9498 158.121 36.819 162.042 38.1585 163.814C39.786 166.031 44.6964 170.857 46.7448 172.344L48.0356 173.27L48.232 175.543C48.5968 179.893 48.7371 180.285 50.7013 181.745C55.6118 185.476 65.2925 188.956 74.0472 190.191C78.1159 190.752 86.9548 190.555 90.3219 189.826C92.4864 189.352 95.8461 187.934 97.9857 187.031ZM185.165 163.477C168.862 162.046 149.164 154.273 134.909 142.264C128.904 137.185 121.104 127.308 118.017 121.837C117.372 120.714 116.895 120.181 116.334 120.041C115.744 119.872 116.249 119.704 118.663 119.311C128.848 117.571 138.753 113.334 146.751 107.301L147.929 106.432L148.266 107.245C149.023 109.069 151.942 110.921 154.102 110.921C154.972 110.921 157.89 109.602 159.658 108.396L160.865 107.582L161.847 108.564C162.745 109.462 162.913 109.518 164.597 109.518C166.533 109.518 168.862 108.648 170.153 107.414L170.854 106.768L172.846 108.087C173.913 108.845 176.887 110.5 179.44 111.819C183.257 113.783 187.297 116.056 191.141 118.413L191.759 118.806L191.169 119.592C190.552 120.434 189.402 122.033 189.402 124.474C189.402 127.224 192.262 132.165 197.735 135.558C202.036 138.224 209.436 143.467 209.156 151.131C209.122 152.057 208.09 154.358 206.715 156.434C205.817 157.753 203.319 159.717 201.047 160.868C197.174 162.804 190.356 163.926 185.165 163.477ZM35.5489 37.5163C36.3065 37.6847 36.8116 37.9372 36.6994 38.0495C36.3346 38.4142 34.3984 38.2459 33.9495 37.7969C33.248 37.1235 33.4163 36.6465 34.3984 36.45C34.9035 36.3659 35.6611 35.945 36.082 35.5241C36.5029 35.1032 36.8677 34.9067 36.8677 35.047C36.8677 35.4118 35.4647 36.7026 34.7632 36.9832C34.3143 37.1796 34.4546 37.2638 35.5489 37.5163ZM46.7168 37.9653C47.5305 37.5163 47.3621 37.2077 46.4081 37.348C45.4541 37.4883 45.3979 37.376 46.0153 36.422C46.2678 36.0572 46.4081 35.5241 46.352 35.2435C46.2678 34.8787 46.0714 35.047 45.6224 35.945C45.2857 36.5903 44.8087 37.1235 44.5842 37.1235C43.8827 37.1235 43.8266 37.6847 44.5 37.9372C45.3699 38.302 46.0433 38.302 46.7168 37.9653ZM37.008 22.6445C36.3346 22.7568 34.2301 23.5986 32.3781 24.5245C30.4981 25.4225 28.8987 26.1801 28.7864 26.152C25.9243 25.8434 29.9088 21.0732 37.1483 16.1907C44.0791 11.5047 48.7651 9.03545 53.1144 7.77275C55.8363 6.98707 58.8948 6.87483 59.7646 7.52021C60.2417 7.88499 60.0733 7.91305 57.9969 7.94111C53.5073 7.94111 48.3162 10.242 39.8701 15.8821C35.4928 18.8003 30.4139 22.9813 30.4139 23.6547C30.4139 23.795 31.2277 23.5144 32.2378 23.0654C34.3984 22.0833 36.6152 21.5783 37.5973 21.8027C38.6355 22.0833 38.411 22.4481 37.008 22.6445ZM47.8672 25.0577C50.5049 24.5245 50.6171 24.4965 50.6171 24.2159C50.6171 24.0756 49.6069 23.9353 48.3442 23.8792L46.0714 23.795L48.1759 21.4099C49.3263 20.0911 50.6732 18.7723 51.1502 18.4636C52.1885 17.7902 52.2446 17.3131 51.4028 17.0325L50.7574 16.8361L51.4589 16.5836C51.8517 16.4433 52.5813 16.3872 53.0864 16.4713C53.844 16.5836 54.0124 16.5275 53.9282 16.1346C53.844 15.7418 53.5353 15.6576 52.1604 15.6857C48.1478 15.7418 46.4362 16.8081 49.5789 17.3131C50.4487 17.4534 51.1783 17.6779 51.1783 17.8182C51.1783 17.9305 51.038 18.0427 50.8696 18.0427C50.3365 18.0427 45.8188 22.6165 45.2576 23.7389C44.3878 25.3944 44.8648 25.6469 47.8672 25.0577ZM66.3868 14.1704C65.5731 14.2265 65.3766 14.3668 65.4328 14.7597L65.4414 14.8169C65.4729 15.0244 65.491 15.1436 65.4445 15.1798C65.3817 15.2287 65.2011 15.1263 64.7768 14.8856L64.7032 14.8439C64.1701 14.5633 64.1139 14.423 64.4226 14.1985C64.619 14.0301 65.1522 13.7776 65.5731 13.6934L66.3587 13.497L65.7695 12.8797C65.4608 12.5149 65.2925 12.1782 65.3766 12.0659C65.6011 11.8414 68.351 12.1501 68.7438 12.4588C68.9122 12.5991 69.1647 12.571 69.3331 12.4026C69.7259 12.0098 70.2591 12.3185 70.2591 12.9358C70.2591 13.2725 70.1749 13.3006 69.9224 13.048C69.6979 12.8235 69.5015 12.8235 69.2489 13.02C69.0244 13.2164 68.8561 13.2164 68.7158 12.9919C68.6316 12.8516 68.0985 12.7113 67.5373 12.7113C67.0195 12.7113 66.7747 12.7113 66.7248 12.81C66.6799 12.8985 66.7918 13.0663 67.0041 13.3847C67.4517 14.0841 67.4252 14.0862 66.3963 14.1697L66.3868 14.1704ZM62.1217 6.70647C62.1217 6.3417 61.785 5.69632 61.3641 5.27542L60.5784 4.48974L64.7874 4.6581C67.1164 4.77034 69.754 5.02288 70.68 5.27542C71.606 5.4999 72.6722 5.66826 73.0651 5.66826C73.6543 5.66826 73.5421 5.55602 72.4478 4.96676C70.5397 3.98466 68.0985 3.50764 63.4124 3.17092C57.8005 2.77808 54.9664 3.31122 55.4995 4.71422C55.5837 4.99482 56.0327 5.13512 56.7061 5.13512C58.0811 5.13512 60.3258 5.94886 61.0835 6.70647C61.8972 7.52021 62.1217 7.52021 62.1217 6.70647ZM48.4284 81.0093C50.7013 83.9275 53.7037 87.2386 55.1067 88.361C55.9485 89.0344 56.6781 89.5956 56.7342 89.5956C56.7622 89.5956 56.1449 88.3048 55.3592 86.7335C52.1885 80.42 50.3365 74.1346 49.4666 66.8951C49.2702 65.2957 48.9616 63.9488 48.6248 63.3876C47.9514 62.2652 47.9514 60.8061 48.6529 59.4311C49.0177 58.7016 49.2141 57.7756 49.2141 56.7654V55.2221L47.8672 56.6251C46.5484 58.0001 45.2857 58.5613 45.2857 57.7195C45.2857 57.1022 47.3621 54.1278 48.4565 53.2018C49.3263 52.4723 49.4386 52.2197 49.7192 50.0311C49.9156 48.7122 50.3646 46.3833 50.7293 44.84C51.1222 43.2967 51.3467 41.9778 51.2905 41.9217C51.0941 41.7253 44.5 49.2986 43.6021 51.7146C43.405 52.2451 42.8726 53.1738 42.4517 53.735L41.7221 54.6717C41.7221 54.6717 41.9487 55.9834 42.1991 57.6318C42.4521 59.2973 42.5708 60.4422 42.6765 61.462C42.8179 62.8261 42.9361 63.9662 43.3215 65.8288C43.7705 68.1297 44.2194 70.122 44.3317 70.2623C44.4158 70.4306 44.7806 71.7214 45.1454 73.1525C45.9311 76.3232 47.2499 79.466 48.4284 81.0093ZM162.296 107.554L161.706 106.965C161.706 106.965 171.487 94.5389 173.239 89.9604C174.577 86.4663 175.364 85.4755 176.426 85.4755C177.019 85.4755 177.504 85.6111 177.729 85.9478C178.122 86.5371 178.5 87.2666 177.995 89.764C177.153 93.8046 175.862 96.4703 171.99 102.223C171.092 103.541 169.942 105.001 169.437 105.506C168.258 106.6 165.607 107.722 164.064 107.975C163.081 108.115 162.801 108.059 162.296 107.554Z" fill="#00160A"/>
<path d="M239.994 135.003C243.485 125.492 242.956 123.465 242.351 123.267C242.351 123.267 241.018 124.025 240.428 125.624C239.334 128.626 235.588 136.483 234.185 137.886C232.53 139.542 232.53 139.542 230.846 139.542C229.163 139.542 224.307 137.006 223.646 134.507C222.588 130.508 227.142 116.617 227.255 115.831L226.497 115.298C225.992 115.775 219.422 135.698 210.783 130.506C209.794 129.912 207.697 127.111 207.528 125.624C206.593 121.303 210.883 106.193 211.613 103.089C212.266 100.311 215.666 97.7324 219.847 97.7324C226.272 97.7324 225.409 103.349 228.288 105.329C229.563 106.206 231.659 104.616 232.305 104.495C235.925 103.821 237.312 104.606 239.966 106.712C242.014 108.337 243.53 111.555 245.198 112.688C246.124 113.318 247.108 112.457 247.43 112.296C248.75 111.633 251.582 112.127 252.368 112.688C253.52 113.191 256.342 115.904 256.788 117.482C258.809 124.634 252.428 140.489 250.019 143.464C246.031 148.387 236.503 144.515 239.994 135.003Z" fill="white"/>
<path fill-rule="evenodd" clip-rule="evenodd" d="M78.6771 108.942C86.3655 113.797 94.2932 116.967 103.329 117.837C110.456 118.511 120.065 117.585 126.968 115.34C132.777 113.46 140.633 108.252 145.881 103.846C156.066 95.3162 162.492 81.992 165.298 67.8498C165.691 65.8575 166.29 60.8496 166.262 55.883C166.262 50.1026 163.718 34.3066 156.01 25.1986C140.113 6.4135 113.981 -2.04866 92.0189 5.18171C84.0965 7.78994 75.6614 12.5155 69.2918 18.6887C61.2666 26.5174 55.346 37.1802 52.9889 48.0675C50.5197 59.5721 53.7317 73.3214 59.3157 84.6016C63.7772 93.5807 71.1289 104.144 78.6771 108.942ZM153.597 75.0331C148.322 90.887 134.572 102.728 117.288 106.32C114.65 106.853 112.826 107.05 109.122 107.106C106.513 107.19 103.903 107.162 103.37 107.106C91.276 105.647 82.0723 101.185 73.5982 92.7109C69.8943 88.9789 68.3229 86.9586 66.022 82.9741C62.4023 76.6606 60.4661 70.2068 59.8769 62.4342C57.8566 35.8053 76.9093 13.6098 103.735 11.3089C114.257 10.411 125.93 13.6379 134.797 19.9233C138.08 22.2523 144.029 28.1449 145.881 30.8948C146.638 31.9891 153.99 42.7361 155.281 48.9093C156.936 56.9344 156.291 66.9799 153.597 75.0331Z" fill="white"/>
<path fill-rule="evenodd" clip-rule="evenodd" d="M166.272 55.8816C166.272 74.7158 157.363 95.3065 145.865 104.1C140.38 108.296 133.211 113.376 126.968 115.339C117.819 118.215 103.328 117.836 103.328 117.836C103.328 117.836 118.112 115.86 123.591 113.655C139.301 107.332 147.877 97.627 153.173 88.3149C163.626 69.9332 166.272 55.4241 166.272 55.8816Z" fill="#E7EAEE"/>
<path fill-rule="evenodd" clip-rule="evenodd" d="M103.65 103.738C96.1584 102.784 88.7225 100.118 82.7177 96.1615C79.154 93.8326 73.7665 88.3609 71.157 84.4605C67.425 78.8485 64.9557 72.8437 63.7491 66.3899C62.8793 61.7039 62.9073 54.4925 63.7772 50.3116C64.6751 46.0465 65.8256 42.7915 67.8739 38.6667C70.259 33.8965 72.7844 30.389 76.5725 26.6009C83.0263 20.1471 90.5183 16.0504 99.4414 14.0862C102.332 13.4688 112.798 12.9638 113.163 13.4408C113.247 13.5811 113.808 13.9459 114.397 14.2545C114.987 14.5912 116.558 15.7698 117.849 16.9202C119.785 18.6038 120.655 19.6701 122.338 22.3077C123.489 24.1036 124.415 25.731 124.415 25.8713C124.415 26.18 125.313 26.7412 125.818 26.7412C126.519 26.7412 126.996 24.6367 127.137 20.9328C127.221 18.8844 127.389 17.2008 127.501 17.2008C127.894 17.2008 132.215 19.5859 134.236 20.9328C138.192 23.5704 142.149 27.2743 145.067 31.1466C146.386 32.8863 146.582 33.3353 146.582 34.4016C146.582 35.3837 146.863 36.1413 147.733 37.6565C149.921 41.4727 151.633 46.2709 152.671 51.5743C153.345 55.1379 153.345 61.8723 152.643 65.6042C150.735 75.8742 145.067 86.088 137.687 92.5699C131.43 98.0416 124.78 101.409 116.923 103.064C114.229 103.654 106.148 104.046 103.65 103.738ZM83.5875 84.5447C83.8401 84.2641 84.0084 83.8432 83.9242 83.6468C83.899 83.5878 83.5477 83.4227 83.0335 83.181L83.0334 83.1809C81.8345 82.6173 79.7502 81.6374 78.847 80.6163C75.2553 76.5196 73.9365 73.461 73.1227 67.1475C72.3371 61.0024 72.9971 56.8481 74.4135 50.1713C75.1044 46.9142 76.9409 44.2238 78.0834 42.55C78.8603 41.4119 79.3164 40.7438 78.8735 40.687C77.7791 40.5186 77.6108 40.6028 76.4603 41.6972C73.991 44.0542 72.8686 45.9342 71.6901 49.554C69.8662 55.2221 69.5138 70.5401 73.1227 77.4455C76.7317 84.3511 82.9421 85.2743 83.5875 84.5447ZM123.489 60.9744C123.012 65.3334 120.991 71.6371 118.634 74.387C117.54 75.6778 113.523 77.8945 110.132 77.4456C106.857 77.0119 104.296 75.4814 102.107 72.1983C100.227 69.3643 99.2561 65.9242 98.5996 61.5917C97.466 54.1102 102.416 45.4011 104.548 43.2405C106.709 41.0237 108.252 40.238 110.216 40.21C112.125 40.21 113.359 40.6309 115.295 42.0058C118.831 44.4751 124.415 52.504 123.489 60.9744ZM85.664 37.7688C86.2252 37.1234 86.3093 36.8147 86.141 35.6081C86.0287 34.4858 85.8043 34.0368 85.215 33.5598C84.1768 32.718 82.886 32.718 81.932 33.6159C81.2585 34.2613 81.1744 34.4858 81.2585 36.029C81.3427 37.6846 81.3988 37.7968 82.3248 38.3019C83.5595 38.9753 84.766 38.7789 85.664 37.7688ZM103.173 20.4558C98.1226 24.0755 95.9339 25.5627 93.6611 26.9657C91.8652 28.0881 91.304 28.1161 91.304 27.106C91.304 26.5728 91.6969 25.9836 92.707 25.0576L94.11 23.7668L91.3882 23.4021C88.3297 23.0092 85.3553 22.1674 84.7099 21.522C83.6436 20.4277 84.5696 20.1752 87.6001 20.7364C88.947 20.9608 91.5566 21.2414 93.4085 21.2976L96.7757 21.4379L99.2169 19.6701C104.576 15.7978 110.132 13.6091 112.798 14.2826C114.453 14.6754 114.257 15.1244 112.377 15.3489C110.216 15.6014 108.898 16.331 103.173 20.4558Z" fill="white"/>
<path d="M110.385 73.6009C110.385 73.4606 110.553 73.3203 110.778 73.3203C111.002 73.3203 111.283 73.4606 111.367 73.6009C111.451 73.7693 111.283 73.8815 110.974 73.8815C110.637 73.8815 110.385 73.7693 110.385 73.6009Z" fill="white"/>
<path d="M112.068 73.349C112.068 73.0404 112.77 72.7598 113.556 72.7598C114.173 72.7878 114.173 72.7878 113.64 73.1807C113.022 73.6577 112.068 73.7419 112.068 73.349Z" fill="white"/>
<path d="M107.719 72.6201C107.635 72.3956 107.523 72.0028 107.438 71.7783C107.354 71.4977 107.495 71.3574 107.859 71.3574C108.168 71.3574 108.421 71.5258 108.421 71.7503C108.421 71.9747 108.505 72.3395 108.589 72.5921C108.701 72.9007 108.617 73.041 108.308 73.041C108.056 73.041 107.775 72.8446 107.719 72.6201Z" fill="white"/>
<path d="M109.206 71.9173C109.066 71.0755 109.375 70.7949 110.385 70.7949C110.693 70.7949 110.946 71.0755 111.058 71.5525C111.283 72.3663 110.918 72.7591 109.936 72.7591C109.487 72.7591 109.29 72.5627 109.206 71.9173Z" fill="white"/>
<path d="M106.344 72.0576C105.811 71.6367 105.811 71.6367 106.4 71.6367C106.765 71.6367 107.018 71.8051 107.018 72.0576C107.018 72.5627 107.018 72.5627 106.344 72.0576Z" fill="white"/>
<path d="M111.984 72.0294C111.619 71.6646 111.788 70.5703 112.237 70.4019C113.05 70.0933 113.415 70.2336 113.584 70.9631C113.696 71.384 113.752 71.7488 113.696 71.7769C113.471 72.0294 112.153 72.1978 111.984 72.0294Z" fill="white"/>
<path d="M114.482 71.4407C114.397 71.3565 114.313 70.9917 114.313 70.655C114.313 70.178 114.538 69.9816 115.211 69.8413C115.8 69.729 116.165 69.7852 116.334 70.0096C116.614 70.4586 116.614 71.0198 116.362 71.1601C115.857 71.4407 114.678 71.6091 114.482 71.4407Z" fill="white"/>
<path d="M105.053 70.5707C105.053 70.234 105.306 69.9534 105.671 69.8692C106.4 69.6728 106.372 69.6447 106.513 70.3743C106.569 70.7952 106.428 70.9635 105.839 71.0196C105.222 71.1038 105.053 70.9916 105.053 70.5707Z" fill="white"/>
<path d="M107.186 70.5992C106.793 70.1783 107.046 69.3926 107.579 69.3926C107.944 69.3926 108.14 69.589 108.14 69.9257C108.14 70.4589 107.495 70.9078 107.186 70.5992Z" fill="white"/>
<path d="M108.87 69.758C108.645 69.2249 109.122 68.832 110.048 68.832C110.469 68.832 110.665 69.0004 110.665 69.3652C110.665 69.6738 110.413 69.9544 110.048 70.0667C109.122 70.2911 109.066 70.2911 108.87 69.758Z" fill="white"/>
<path d="M116.979 69.6732C117.063 69.5329 117.203 69.3926 117.288 69.3926C117.372 69.3926 117.344 69.5329 117.26 69.6732C117.175 69.8415 117.035 69.9538 116.951 69.9538C116.867 69.9538 116.895 69.8415 116.979 69.6732Z" fill="white"/>
<path d="M111.395 69.1968C111.17 68.6356 111.451 68.355 112.349 68.2147C112.854 68.1586 113.079 68.2708 113.135 68.6637C113.331 69.5897 111.732 70.0947 111.395 69.1968Z" fill="white"/>
<path d="M104.661 68.7191C104.408 67.7932 104.464 67.709 105.194 67.709C105.587 67.709 105.895 67.8212 105.895 67.9615C105.895 68.1018 105.979 68.4105 106.064 68.635C106.148 68.9156 105.979 69.0839 105.502 69.1681C104.969 69.2803 104.773 69.1681 104.661 68.7191Z" fill="white"/>
<path d="M114.033 68.4096C114.033 67.9045 114.229 67.68 114.762 67.5397C115.548 67.3433 115.997 67.7362 115.997 68.6341C115.997 68.9989 115.772 69.1111 115.015 69.1111C114.145 69.1111 114.033 69.0269 114.033 68.4096Z" fill="white"/>
<path d="M103.819 68.4111C103.735 68.1867 103.791 67.9902 103.931 67.9902C104.099 67.9902 104.212 68.1867 104.212 68.4111C104.212 68.6356 104.156 68.832 104.099 68.832C104.043 68.832 103.931 68.6356 103.819 68.4111Z" fill="white"/>
<path d="M106.653 68.6346C106.26 68.2698 106.484 67.4841 106.99 67.3438C107.298 67.2596 107.607 67.2877 107.691 67.3719C108.028 67.6805 107.831 68.4943 107.41 68.6626C106.877 68.859 106.877 68.859 106.653 68.6346Z" fill="white"/>
<path d="M116.67 68.4375C116.362 67.6238 116.698 67.0065 117.484 66.9223C118.073 66.8381 118.242 66.9504 118.242 67.3993C118.242 68.3253 117.933 68.8304 117.372 68.8304C117.063 68.8304 116.754 68.662 116.67 68.4375Z" fill="white"/>
<path d="M108.617 68.0731C108.28 67.7644 108.393 67.2032 108.87 67.0349C109.403 66.8385 110.525 67.3997 110.216 67.7083C109.824 68.045 108.813 68.2976 108.617 68.0731Z" fill="white"/>
<path d="M111.058 67.3729C110.806 66.9801 111.704 66.3066 112.433 66.3066C112.77 66.3066 112.91 66.475 112.854 66.7837C112.742 67.3449 111.311 67.7938 111.058 67.3729Z" fill="white"/>
<path d="M103.37 67.1758C103.37 67.0355 103.286 66.7269 103.201 66.4743C103.117 66.2218 103.145 66.0254 103.314 66.0254C103.679 66.0254 103.959 67.0917 103.622 67.3161C103.482 67.4003 103.37 67.3442 103.37 67.1758Z" fill="white"/>
<path d="M104.127 66.5311C103.959 65.9138 104.296 65.4648 104.941 65.4648C105.306 65.4648 105.671 66.5592 105.446 66.924C105.138 67.401 104.268 67.1204 104.127 66.5311Z" fill="white"/>
<path d="M106.092 66.6701C105.671 66.2492 105.923 65.2391 106.484 65.0988C106.905 64.9865 107.13 65.1268 107.354 65.6319C107.523 65.9967 107.607 66.3615 107.551 66.4176C107.27 66.6701 106.26 66.8665 106.092 66.6701Z" fill="white"/>
<path d="M113.668 66.6699C113.303 66.3052 113.471 66.0807 114.313 65.772C115.015 65.5475 115.211 65.5756 115.351 65.9123C115.604 66.5858 114.201 67.2311 113.668 66.6699Z" fill="white"/>
<path d="M116.137 66.0254C115.857 65.5764 116.249 65.1836 116.979 65.1836C117.849 65.1836 118.101 65.9132 117.316 66.1376C116.474 66.3621 116.334 66.3341 116.137 66.0254Z" fill="white"/>
<path d="M118.522 65.3517C118.522 64.9308 119.027 64.4819 119.252 64.7064C119.448 64.9028 119.055 65.7446 118.775 65.7446C118.634 65.7446 118.522 65.5762 118.522 65.3517Z" fill="white"/>
<path d="M103.005 64.9874C102.893 64.9032 102.809 64.5384 102.837 64.2298C102.837 63.6966 102.865 63.6966 103.117 64.3139C103.398 64.9874 103.342 65.3241 103.005 64.9874Z" fill="white"/>
<path d="M103.538 64.5663C103.286 63.5842 103.314 63.5 104.043 63.5C104.857 63.5 105.362 64.5382 104.745 64.9311C104.099 65.3239 103.735 65.2117 103.538 64.5663Z" fill="white"/>
<path d="M113.191 65.1273C113.191 65.0431 113.331 64.5941 113.499 64.089C113.892 62.9666 114.762 62.9105 114.959 64.0049C115.043 64.4258 115.071 64.7905 115.043 64.8186C114.902 64.987 113.191 65.2395 113.191 65.1273Z" fill="white"/>
<path d="M105.53 64.4262C105.418 64.3421 105.334 64.0053 105.334 63.6967C105.334 63.2477 105.418 63.2197 105.755 63.5003C105.979 63.6967 106.176 64.0334 106.176 64.2298C106.176 64.6507 105.839 64.763 105.53 64.4262Z" fill="white"/>
<path d="M115.632 63.8645C115.464 62.9947 115.828 62.6018 116.698 62.7141C117.119 62.7702 117.26 63.0227 117.26 63.64C117.26 64.3415 117.147 64.5099 116.53 64.566C115.913 64.6502 115.772 64.5099 115.632 63.8645Z" fill="white"/>
<path d="M118.382 63.9761C118.017 62.8537 118.129 62.5169 118.887 62.4328C119.56 62.3486 119.645 62.4328 119.645 63.1623C119.645 63.7796 119.476 64.0322 119.055 64.1444C118.747 64.2286 118.438 64.1444 118.382 63.9761Z" fill="white"/>
<path d="M102.584 62.3778C102.584 61.8447 102.64 61.6202 102.724 61.9008C102.781 62.1533 102.781 62.6023 102.724 62.8829C102.64 63.1354 102.584 62.911 102.584 62.3778Z" fill="white"/>
<path d="M103.286 62.7426C102.921 62.4059 103.089 61.3116 103.538 61.1432C104.184 60.8907 104.492 61.1993 104.492 62.1253C104.492 62.7146 104.352 62.939 103.987 62.939C103.707 62.939 103.37 62.8549 103.286 62.7426Z" fill="white"/>
<path d="M104.969 61.985C104.857 61.5641 104.801 61.1152 104.913 61.031C105.194 60.7504 105.362 61.1994 105.278 62.0131L105.194 62.7988L104.969 61.985Z" fill="white"/>
<path d="M114.033 61.7875C114.033 61.4788 114.173 61.3105 114.313 61.3946C114.482 61.4788 114.594 61.7594 114.594 61.9839C114.594 62.2084 114.482 62.3767 114.313 62.3767C114.173 62.3767 114.033 62.1242 114.033 61.7875Z" fill="white"/>
<path d="M115.295 62.1522C114.903 61.7313 115.211 60.9737 115.857 60.8054C116.67 60.6089 116.698 60.6089 116.951 61.4227C117.119 61.9278 117.007 62.04 116.277 62.1522C115.829 62.2364 115.38 62.2084 115.295 62.1522Z" fill="white"/>
<path d="M117.877 61.6193C117.568 61.3387 117.652 60.4127 117.961 60.4127C118.129 60.4127 118.242 60.3004 118.242 60.1321C118.242 59.9918 118.073 59.8515 117.849 59.8515C117.372 59.8515 116.979 58.4765 117.372 58.0837C117.877 57.5786 118.438 58.1118 118.775 59.4867C118.971 60.2163 119.168 61.0581 119.252 61.3387C119.364 61.7034 119.252 61.8157 118.719 61.8157C118.354 61.8157 117.961 61.7315 117.877 61.6193Z" fill="white"/>
<path d="M119.392 60.1335C119.196 59.2917 118.691 57.6081 118.326 56.3734C117.765 54.5776 117.709 54.1286 118.017 53.9322C118.214 53.7919 118.466 53.6797 118.55 53.6797C118.859 53.6797 119.981 59.432 119.869 60.5544L119.785 61.6768L119.392 60.1335Z" fill="white"/>
<path d="M102.304 59.9915C102.304 59.5425 102.36 59.3742 102.444 59.6548C102.5 59.9073 102.5 60.3001 102.444 60.4966C102.36 60.6649 102.304 60.4685 102.304 59.9915Z" fill="white"/>
<path d="M102.865 59.9359C102.977 58.9538 103.791 58.7293 104.015 59.6272C104.212 60.3568 104.268 60.2726 103.426 60.5532C102.837 60.7216 102.781 60.6654 102.865 59.9359Z" fill="white"/>
<path d="M114.706 59.6831C114.482 58.8693 114.959 58.3923 115.857 58.5045C116.53 58.5887 116.783 59.7953 116.221 60.1601C115.52 60.609 114.874 60.4126 114.706 59.6831Z" fill="white"/>
<path d="M104.492 59.46C104.492 58.983 104.632 58.7305 104.941 58.7305C105.222 58.7305 105.334 58.9269 105.278 59.3478C105.138 60.2457 104.492 60.3299 104.492 59.46Z" fill="white"/>
<path d="M101.995 58.2815C101.995 57.9729 102.079 57.8887 102.163 58.1132C102.247 58.3096 102.219 58.5621 102.135 58.6463C102.051 58.7585 101.967 58.5902 101.995 58.2815Z" fill="white"/>
<path d="M102.528 58.1967C102.528 57.7758 102.696 57.6074 103.117 57.6074C103.51 57.6074 103.65 57.7477 103.594 58.0844C103.454 58.814 102.528 58.8982 102.528 58.1967Z" fill="white"/>
<path d="M104.071 57.9437C103.875 57.4386 103.875 57.4386 104.717 57.2141C105.222 57.0457 105.334 57.1299 105.334 57.5508C105.334 58.2243 104.324 58.561 104.071 57.9437Z" fill="white"/>
<path d="M114.229 57.5507C114.033 56.8492 114.397 56.4844 115.379 56.4844C115.856 56.4844 115.997 56.6527 115.997 57.1859C115.997 57.6068 115.828 57.8874 115.604 57.8874C115.379 57.8874 115.015 57.9716 114.79 58.0557C114.538 58.1399 114.341 57.9716 114.229 57.5507Z" fill="white"/>
<path d="M116.67 56.9059C116.446 56.3447 116.782 55.9238 117.428 55.9238C117.821 55.9238 117.961 56.1202 117.961 56.6253C117.961 57.1304 117.821 57.3268 117.4 57.3268C117.091 57.3268 116.754 57.1304 116.67 56.9059Z" fill="white"/>
<path d="M102.247 56.512C102.247 55.9228 102.893 55.2493 103.173 55.558C103.286 55.6422 103.37 56.035 103.37 56.3998C103.37 56.8488 103.201 57.0452 102.809 57.0452C102.444 57.0452 102.247 56.8488 102.247 56.512Z" fill="white"/>
<path d="M103.791 56.1754C103.566 55.4739 103.819 55.1653 104.773 55.025C105.643 54.9127 105.923 55.8387 105.166 56.3999C104.436 56.933 103.987 56.8489 103.791 56.1754Z" fill="white"/>
<path d="M113.948 56.0082C113.752 55.8398 113.668 54.8016 113.836 54.8016C113.864 54.8016 114.285 54.6893 114.79 54.549C115.632 54.2965 115.688 54.3246 115.66 55.0822C115.632 55.6434 115.464 55.924 115.043 56.0362C114.285 56.2326 114.173 56.2326 113.948 56.0082Z" fill="white"/>
<path d="M112.91 55.3617C112.91 55.1653 112.994 55.0811 113.107 55.1653C113.191 55.2776 113.191 55.4459 113.107 55.5582C112.994 55.6423 112.91 55.5582 112.91 55.3617Z" fill="white"/>
<path d="M116.053 54.9132C116.137 54.4362 117.007 53.7347 117.203 53.9592C117.288 54.0433 117.428 54.3801 117.512 54.7448C117.709 55.306 117.624 55.3622 116.839 55.3622C116.165 55.3622 115.969 55.2499 116.053 54.9132Z" fill="white"/>
<path d="M102.528 54.8858C102.528 54.7455 102.668 54.4649 102.809 54.2404C103.033 53.9037 103.089 53.9318 103.089 54.4649C103.089 54.8016 102.977 55.0822 102.809 55.0822C102.668 55.0822 102.528 54.998 102.528 54.8858Z" fill="white"/>
<path d="M103.37 54.2672C103.37 53.4815 103.959 53.2289 104.408 53.8182C104.689 54.2391 104.689 54.3794 104.408 54.5758C103.819 54.9406 103.37 54.8284 103.37 54.2672Z" fill="white"/>
<path d="M111.9 53.9039C111.395 53.3427 111.395 53.3146 111.872 53.483C112.153 53.5952 112.517 53.6794 112.658 53.6794C112.798 53.6794 112.91 53.8758 112.91 54.1003C112.91 54.6896 112.517 54.6335 111.9 53.9039Z" fill="white"/>
<path d="M105.867 53.8755C104.661 52.9495 104.492 50.873 105.615 50.873C106.372 50.873 107.074 52.0516 106.962 53.1459C106.877 54.1561 106.541 54.3805 105.867 53.8755Z" fill="white"/>
<path d="M113.556 54.0436C113.668 53.9594 113.836 53.9594 113.948 54.0436C114.033 54.1558 113.948 54.24 113.752 54.24C113.556 54.24 113.471 54.1558 113.556 54.0436Z" fill="white"/>
<path d="M117.793 52.9488C117.877 52.6963 117.961 52.4438 117.961 52.3876C117.961 52.3315 118.101 52.2754 118.242 52.2754C118.41 52.2754 118.522 52.5279 118.522 52.8366C118.522 53.1733 118.326 53.3978 118.073 53.3978C117.765 53.3978 117.68 53.2575 117.793 52.9488Z" fill="white"/>
<path d="M103.089 52.866C103.089 52.2206 103.678 51.1543 104.015 51.1543C104.604 51.1543 104.184 52.9501 103.566 53.0624C103.314 53.1185 103.089 53.0343 103.089 52.866Z" fill="white"/>
<path d="M109.403 52.5556L108.561 52.3591L109.319 52.1627C110.104 51.9382 110.665 52.1066 110.665 52.5836C110.665 52.8642 110.637 52.8642 109.403 52.5556Z" fill="white"/>
<path d="M108.421 51.2088C108.421 50.0583 109.066 49.89 109.655 50.9001C110.048 51.5736 110.076 51.7139 109.711 51.7139C109.487 51.7139 109.122 51.798 108.87 51.8822C108.533 52.0225 108.421 51.8542 108.421 51.2088Z" fill="white"/>
<path d="M113.303 51.602C112.04 51.0408 111.227 49.5536 111.227 47.7858C111.227 46.5231 111.339 46.2145 112.096 45.513C112.573 45.064 113.05 44.6992 113.191 44.6992C113.808 44.6992 116.081 46.8598 116.839 48.2067L117.708 49.75L116.782 50.7321C115.716 51.8545 114.538 52.1632 113.303 51.602Z" fill="white"/>
<path d="M107.438 50.8724C107.354 50.7321 107.41 50.5918 107.551 50.5918C107.719 50.5918 107.859 50.7321 107.859 50.8724C107.859 51.0408 107.803 51.153 107.747 51.153C107.663 51.153 107.523 51.0408 107.438 50.8724Z" fill="white"/>
<path d="M103.763 50.4234C103.847 50.1709 103.931 49.9184 103.931 49.8622C103.931 49.8061 104.184 49.75 104.492 49.75C105.194 49.75 105.222 50.199 104.52 50.5918C103.763 50.9846 103.566 50.9566 103.763 50.4234Z" fill="white"/>
<path d="M105.979 50.0874C105.334 50.0032 105.138 49.6384 105.558 49.3859C105.671 49.3017 106.176 49.1614 106.681 49.0492C107.438 48.8808 107.579 48.9369 107.579 49.414C107.579 50.0032 106.99 50.2558 105.979 50.0874Z" fill="white"/>
<path d="M108.14 49.133C108.14 48.7963 108.168 48.5999 108.224 48.656C108.252 48.7121 108.477 48.9927 108.673 49.2733C109.01 49.6662 108.982 49.7503 108.589 49.7503C108.308 49.7503 108.14 49.5259 108.14 49.133Z" fill="white"/>
<path d="M104.212 48.9359C104.212 48.7675 104.352 48.5711 104.492 48.4869C104.661 48.4028 104.773 48.515 104.773 48.7395C104.773 48.992 104.661 49.1884 104.492 49.1884C104.352 49.1884 104.212 49.0762 104.212 48.9359Z" fill="white"/>
<path d="M105.25 48.5154C105.025 47.9542 107.018 47.3369 107.354 47.87C107.607 48.319 107.354 48.5154 106.288 48.7399C105.643 48.8802 105.362 48.824 105.25 48.5154Z" fill="white"/>
<path d="M107.887 47.6175C107.887 47.3088 107.972 47.2246 108.056 47.4491C108.14 47.6455 108.112 47.8981 108.028 47.9822C107.944 48.0945 107.859 47.9261 107.887 47.6175Z" fill="white"/>
<path d="M105.502 47.1685C105.839 46.5512 106.821 45.541 107.074 45.541C107.354 45.541 107.382 46.8598 107.102 47.0282C106.962 47.0843 106.513 47.2246 106.092 47.3369C105.474 47.4772 105.334 47.4491 105.502 47.1685Z" fill="white"/>
<path d="M107.747 46.5244C107.439 45.6826 107.579 45.3178 108.252 45.2056C108.954 45.0653 108.954 45.0653 108.505 45.9352C107.944 47.0576 107.972 47.0576 107.747 46.5244Z" fill="white"/>
<path d="M107.579 44.8405C107.579 44.7844 108.14 44.3916 108.842 43.9987C109.683 43.4937 110.273 43.3253 110.694 43.4375C111.199 43.6059 111.058 43.7181 109.824 44.3074C108.449 44.9247 107.579 45.1492 107.579 44.8405Z" fill="white"/>
<path d="M123.152 19.9798C122.395 18.8854 120.795 17.1177 119.645 16.0514C118.494 14.9851 117.737 14.1152 117.961 14.1152C118.578 14.1152 123.292 15.406 124.471 15.9111C125.453 16.332 125.481 16.3881 125.229 17.258C125.088 17.763 124.976 19.0257 124.976 20.0639C124.976 21.1302 124.892 21.972 124.78 21.972C124.639 21.972 123.938 21.0741 123.152 19.9798Z" fill="white"/>
<path d="M66.0501 104.973C64.8997 104.384 64.6471 104.047 63.188 101.157C61.0835 97.06 61.0274 96.1059 63.0197 98.4349C63.8053 99.3609 65.6292 101.269 67.0603 102.672C69.5015 105.029 69.6138 105.197 68.8 105.085C68.2108 105.001 67.9863 105.057 68.1266 105.282C68.4633 105.787 67.397 105.646 66.0501 104.973Z" fill="white"/>
<path fill-rule="evenodd" clip-rule="evenodd" d="M113.075 156.095C112.842 155.542 113.102 154.905 113.655 154.672L114.26 154.415C120.138 151.9 123.511 150.39 125.804 147.991C128.096 145.592 128.37 142.068 128.801 139.924C128.919 139.336 130.251 140.369 130.84 140.487C131.428 140.606 131.809 141.178 131.691 141.767C131.173 144.345 129.779 146.802 127.534 149.135C125.297 151.46 120.965 153.952 114.499 156.675C113.945 156.908 113.308 156.648 113.075 156.095Z" fill="#00160A"/>
<path fill-rule="evenodd" clip-rule="evenodd" d="M139.655 44.1355C140.171 43.8285 140.838 43.9977 141.145 44.5134C144.219 49.6769 145.865 55.5794 145.865 61.7205C145.865 80.3251 130.783 95.4071 112.179 95.4071C107.235 95.4071 102.44 94.3408 98.0492 92.3094C97.5045 92.0574 95.447 90.0507 97.5193 90.8668C99.5916 91.6829 107.609 93.5147 112.236 93.5147C129.641 93.5147 141.953 79.1248 141.953 61.7205C141.953 55.9735 139.655 50.8724 139.277 45.6251C139.234 45.0169 139.14 44.4425 139.655 44.1355Z" fill="#00160A"/>
<path fill-rule="evenodd" clip-rule="evenodd" d="M32.0343 126.381C32.4184 125.92 33.1036 124.988 33.5648 125.372C35.4565 126.948 37.4752 128.773 39.6346 129.126C41.8817 129.492 44.5475 129.492 47.6285 129.119C48.2243 129.047 48.7657 129.472 48.8379 130.068C48.91 130.663 48.4855 131.205 47.8897 131.277C44.6178 131.673 41.7506 131.673 39.2846 131.271C36.7309 130.854 34.3561 129.729 32.1738 127.911C31.7127 127.527 31.6502 126.842 32.0343 126.381Z" fill="#00160A"/>
<path d="M55.1068 88.361C53.7038 87.2386 50.7014 83.9275 48.4285 81.0093C47.25 79.466 45.9312 76.3232 45.1455 73.1525C44.7807 71.7214 44.4159 70.4306 44.3317 70.2623C44.2195 70.122 43.7705 68.1297 43.3216 65.8288C42.6481 62.5739 42.7906 61.5252 42.1992 57.6318C41.9488 55.9834 41.7222 54.6717 41.7222 54.6717L42.4517 53.735C42.8726 53.1738 43.405 52.2451 43.6022 51.7146C44.5001 49.2986 51.0942 41.7253 51.2906 41.9217C51.3467 41.9778 51.1223 43.2967 50.7294 44.84C50.3646 46.3833 49.9157 48.7122 49.7193 50.031C49.4387 52.2197 49.3264 52.4723 48.4566 53.2018C47.3622 54.1278 45.2858 57.1022 45.2858 57.7195C45.2858 58.5613 46.5485 58.0001 47.8673 56.6251L49.2142 55.2221V56.7654C49.2142 57.7756 49.0178 58.7016 48.653 59.4311C47.9515 60.8061 47.9515 62.2652 48.6249 63.3876C48.9616 63.9488 49.2703 65.2957 49.4667 66.8951C50.3366 74.1346 52.1885 80.42 55.3593 86.7335C56.145 88.3048 56.7623 89.5956 56.7342 89.5956C56.6781 89.5956 55.9486 89.0344 55.1068 88.361Z" fill="white"/>
<path fill-rule="evenodd" clip-rule="evenodd" d="M171.864 105.675L173.885 106.573C174.303 106.766 178.925 108.987 184.476 111.654C193.426 115.955 204.793 121.417 204.863 121.417C204.975 121.417 205.502 120.199 205.62 118.779C205.901 115.72 206.939 111.567 208.146 108.677C208.707 107.387 209.156 105.773 209.156 105.633C209.156 105.569 208.7 105.385 207.953 105.084C207.064 104.725 205.763 104.2 204.33 103.514C197.259 100.119 183.425 93.1882 181.713 92.15C180.03 91.1679 179.693 91.0837 179.693 91.7291C179.693 92.5709 177.981 96.4712 176.663 98.5757C175.961 99.7262 174.586 101.803 173.604 103.178L171.864 105.675ZM204.386 116.366C205.19 116.832 203.796 117.516 203.46 117.628C201.477 117.797 199.143 117.424 197.23 116.31C196.23 115.601 188.357 111.226 183.134 108.324C180.746 106.998 178.912 105.979 178.543 105.759C177.364 105.058 176.242 104.3 176.045 104.075C175.456 103.318 176.017 102.981 177.673 103.121C178.668 103.206 202.648 115.358 204.386 116.366Z" fill="white"/>
<path d="M151.717 108.2C150.988 107.947 150.202 107.386 149.697 106.741L148.855 105.702L151.829 102.756C156.403 98.2664 159.77 93.3598 162.801 87.8882C163.811 86.0643 166.813 78.7086 167.178 77.8949C167.739 76.7164 168.16 76.2674 169.367 75.594C170.798 74.7522 172.425 74.4716 173.127 74.9486C174.474 75.8465 174.474 78.6806 173.127 83.563C171.64 88.9225 169.648 92.7667 165.523 98.2945C164.877 99.1363 163.671 100.792 162.801 101.942C160.472 105.029 158.957 106.516 156.908 107.667C154.888 108.789 153.709 108.929 151.717 108.2Z" fill="white"/>
<path d="M162.296 107.553L161.707 106.964C161.707 106.964 171.487 94.538 173.239 89.9595C174.577 86.4654 175.364 85.4746 176.426 85.4746C177.019 85.4746 177.504 85.6102 177.729 85.9469C178.122 86.5361 178.5 87.2657 177.995 89.763C177.153 93.8037 175.863 96.4694 171.99 102.222C171.092 103.54 169.942 105 169.437 105.505C168.258 106.599 165.607 107.721 164.064 107.974C163.081 108.114 162.801 108.058 162.296 107.553Z" fill="white"/>
<path fill-rule="evenodd" clip-rule="evenodd" d="M178.724 94.5616C179.29 93.2669 179.693 92.1377 179.693 91.7291C179.693 91.0837 180.03 91.1679 181.713 92.15C183.425 93.1882 197.258 100.119 204.33 103.514C206.967 104.777 209.156 105.493 209.156 105.633C209.156 105.773 178.124 95.9342 178.724 94.5616Z" fill="#E7EAEE"/>
<path fill-rule="evenodd" clip-rule="evenodd" d="M82.7178 96.1625C79.1542 93.8335 73.7667 88.3618 71.1571 84.4615C67.4251 78.8495 64.9558 72.8447 63.7493 66.3909C62.8794 61.7049 62.9075 54.4934 63.7773 50.3125C64.6752 46.0474 65.8257 42.7924 67.8741 38.6676C70.2592 33.8974 72.7846 30.3899 76.5727 26.6018C80.2874 22.8871 63.7773 38.2491 67.8741 65.735C71.1571 88.768 85.2663 97.8417 82.7178 96.1625Z" fill="#E7EAEE"/>
</svg>
