<svg width="87" height="34" viewBox="0 0 87 34" fill="none" xmlns="http://www.w3.org/2000/svg">
<path d="M11.704 27.28C9.72533 27.28 7.93333 26.8507 6.328 25.992C4.74133 25.1147 3.49067 23.9107 2.576 22.38C1.68 20.8493 1.232 19.1227 1.232 17.2C1.232 15.2773 1.68933 13.5507 2.604 12.02C3.51867 10.4893 4.76933 9.29467 6.356 8.436C7.96133 7.55867 9.75333 7.12 11.732 7.12C13.3373 7.12 14.8027 7.4 16.128 7.96C17.4533 8.52 18.5733 9.332 19.488 10.396L17.136 12.608C15.7173 11.0773 13.972 10.312 11.9 10.312C10.556 10.312 9.352 10.6107 8.288 11.208C7.224 11.7867 6.39333 12.5987 5.796 13.644C5.19867 14.6893 4.9 15.8747 4.9 17.2C4.9 18.5253 5.19867 19.7107 5.796 20.756C6.39333 21.8013 7.224 22.6227 8.288 23.22C9.352 23.7987 10.556 24.088 11.9 24.088C13.972 24.088 15.7173 23.3133 17.136 21.764L19.488 24.004C18.5733 25.068 17.444 25.88 16.1 26.44C14.7747 27 13.3093 27.28 11.704 27.28Z" fill="black"/>
<path d="M28.708 27.28C27.196 27.28 25.7307 27.0653 24.312 26.636C22.912 26.2067 21.8013 25.6373 20.98 24.928L22.24 22.1C23.0427 22.7347 24.0227 23.2573 25.18 23.668C26.356 24.06 27.532 24.256 28.708 24.256C30.164 24.256 31.2467 24.0227 31.956 23.556C32.684 23.0893 33.048 22.4733 33.048 21.708C33.048 21.148 32.8427 20.6907 32.432 20.336C32.04 19.9627 31.536 19.6733 30.92 19.468C30.304 19.2627 29.464 19.0293 28.4 18.768C26.9067 18.4133 25.6933 18.0587 24.76 17.704C23.8453 17.3493 23.052 16.7987 22.38 16.052C21.7267 15.2867 21.4 14.26 21.4 12.972C21.4 11.8893 21.6893 10.9093 22.268 10.032C22.8653 9.136 23.752 8.42667 24.928 7.904C26.1227 7.38133 27.5787 7.12 29.296 7.12C30.4907 7.12 31.6667 7.26933 32.824 7.568C33.9813 7.86667 34.98 8.296 35.82 8.856L34.672 11.684C33.8133 11.18 32.9173 10.7973 31.984 10.536C31.0507 10.2747 30.1453 10.144 29.268 10.144C27.8307 10.144 26.7573 10.3867 26.048 10.872C25.3573 11.3573 25.012 12.0013 25.012 12.804C25.012 13.364 25.208 13.8213 25.6 14.176C26.0107 14.5307 26.524 14.8107 27.14 15.016C27.756 15.2213 28.596 15.4547 29.66 15.716C31.116 16.052 32.3107 16.4067 33.244 16.78C34.1773 17.1347 34.9707 17.6853 35.624 18.432C36.296 19.1787 36.632 20.1867 36.632 21.456C36.632 22.5387 36.3333 23.5187 35.736 24.396C35.1573 25.2733 34.2707 25.9733 33.076 26.496C31.8813 27.0187 30.4253 27.28 28.708 27.28Z" fill="black"/>
<path d="M45.16 26.36C44.8933 26.6 44.5667 26.7867 44.18 26.92C43.7933 27.04 43.3867 27.1 42.96 27.1C41.9733 27.1 41.2133 26.8333 40.68 26.3C40.1467 25.7667 39.88 25.0133 39.88 24.04V14.18H41.3V16.48H44.48V17.68H41.3V23.96C41.3 24.5867 41.4533 25.0667 41.76 25.4C42.0667 25.72 42.5133 25.88 43.1 25.88C43.74 25.88 44.26 25.7 44.66 25.34L45.16 26.36ZM51.8628 25.84C52.5161 25.84 53.1161 25.7267 53.6628 25.5C54.2228 25.26 54.6961 24.9133 55.0828 24.46L55.8828 25.38C55.4161 25.94 54.8361 26.3667 54.1428 26.66C53.4495 26.9533 52.6828 27.1 51.8428 27.1C50.7628 27.1 49.8028 26.8733 48.9628 26.42C48.1228 25.9533 47.4695 25.3133 47.0028 24.5C46.5361 23.6867 46.3028 22.7667 46.3028 21.74C46.3028 20.7133 46.5228 19.7933 46.9628 18.98C47.4161 18.1667 48.0361 17.5333 48.8228 17.08C49.6095 16.6267 50.5028 16.4 51.5028 16.4C52.4361 16.4 53.2761 16.6133 54.0228 17.04C54.7828 17.4667 55.3828 18.06 55.8228 18.82C56.2761 19.58 56.5161 20.4467 56.5428 21.42L47.9028 23.1C48.1695 23.9533 48.6495 24.6267 49.3428 25.12C50.0495 25.6 50.8895 25.84 51.8628 25.84ZM51.5028 17.62C50.7695 17.62 50.1095 17.7933 49.5228 18.14C48.9495 18.4733 48.4961 18.9467 48.1628 19.56C47.8428 20.16 47.6828 20.8533 47.6828 21.64C47.6828 21.84 47.6895 21.9867 47.7028 22.08L55.1228 20.64C54.9628 19.76 54.5561 19.04 53.9028 18.48C53.2495 17.9067 52.4495 17.62 51.5028 17.62ZM63.7931 27.1C62.7531 27.1 61.8198 26.8733 60.9931 26.42C60.1798 25.9667 59.5398 25.3333 59.0731 24.52C58.6065 23.6933 58.3731 22.7667 58.3731 21.74C58.3731 20.7133 58.6065 19.7933 59.0731 18.98C59.5398 18.1667 60.1798 17.5333 60.9931 17.08C61.8198 16.6267 62.7531 16.4 63.7931 16.4C64.6998 16.4 65.5065 16.58 66.2131 16.94C66.9331 17.2867 67.4998 17.8 67.9131 18.48L66.8531 19.2C66.5065 18.68 66.0665 18.2933 65.5331 18.04C64.9998 17.7733 64.4198 17.64 63.7931 17.64C63.0331 17.64 62.3465 17.8133 61.7331 18.16C61.1331 18.4933 60.6598 18.9733 60.3131 19.6C59.9798 20.2267 59.8131 20.94 59.8131 21.74C59.8131 22.5533 59.9798 23.2733 60.3131 23.9C60.6598 24.5133 61.1331 24.9933 61.7331 25.34C62.3465 25.6733 63.0331 25.84 63.7931 25.84C64.4198 25.84 64.9998 25.7133 65.5331 25.46C66.0665 25.2067 66.5065 24.82 66.8531 24.3L67.9131 25.02C67.4998 25.7 66.9331 26.22 66.2131 26.58C65.4931 26.9267 64.6865 27.1 63.7931 27.1ZM75.9064 16.4C77.2264 16.4 78.2731 16.7867 79.0464 17.56C79.8331 18.32 80.2264 19.4333 80.2264 20.9V27H78.8064V21.04C78.8064 19.9467 78.5331 19.1133 77.9864 18.54C77.4397 17.9667 76.6597 17.68 75.6464 17.68C74.5131 17.68 73.6131 18.02 72.9464 18.7C72.2931 19.3667 71.9664 20.2933 71.9664 21.48V27H70.5464V12.16H71.9664V18.32C72.3531 17.7067 72.8864 17.2333 73.5664 16.9C74.2464 16.5667 75.0264 16.4 75.9064 16.4ZM84.2216 27.1C83.9282 27.1 83.6749 26.9933 83.4616 26.78C83.2616 26.5667 83.1616 26.3067 83.1616 26C83.1616 25.6933 83.2616 25.44 83.4616 25.24C83.6749 25.0267 83.9282 24.92 84.2216 24.92C84.5149 24.92 84.7682 25.0267 84.9816 25.24C85.1949 25.44 85.3016 25.6933 85.3016 26C85.3016 26.3067 85.1949 26.5667 84.9816 26.78C84.7682 26.9933 84.5149 27.1 84.2216 27.1Z" fill="black"/>
</svg>
