<svg width="207" height="204" viewBox="0 0 207 204" fill="none" xmlns="http://www.w3.org/2000/svg">
<path fill-rule="evenodd" clip-rule="evenodd" d="M3.41176 168.025C2.91425 165.737 2.36869 163.458 1.89229 161.166C1.6619 160.057 1.5302 158.927 1.3735 157.803C1.08129 155.709 0.792524 153.613 0.525621 151.515C0.431752 150.777 0.364467 150.031 0.356008 149.288C0.287507 143.267 0.123818 137.245 0.228953 131.227C0.277644 128.44 0.855516 125.662 1.20199 122.88C1.65772 119.222 2.61509 115.68 3.7197 112.175C5.30942 107.131 6.91907 102.093 8.52346 97.0538C9.38539 94.3465 10.311 91.6576 11.0944 88.9279C11.4559 87.6682 11.602 86.3365 11.7417 85.0264C11.8745 83.781 12.0165 82.5072 11.8971 81.2708C11.6737 78.9574 11.2894 76.658 10.9242 74.3604C10.6126 72.3991 10.2482 70.4458 9.88176 68.4937C9.31257 65.4619 9.14449 62.4022 9.20563 59.3257C9.25387 56.8988 9.17905 54.4592 9.40713 52.0488C9.73683 48.5644 10.2384 45.0732 11.6139 41.8214C12.6664 39.3334 13.8329 36.8752 15.1741 34.5328C16.4991 32.2188 18.0723 30.0424 19.6039 27.8527C20.5381 26.5171 21.5279 25.2057 22.6202 23.9987C24.3029 22.1392 26.0426 20.324 27.8529 18.5889C30.68 15.8792 33.8471 13.5951 37.213 11.6031C40.3894 9.72324 43.7513 8.23324 47.2817 7.14233C49.6982 6.39561 52.1355 5.71423 54.5404 4.93263C56.261 4.37345 57.9102 3.57398 59.6512 3.10337C61.8117 2.51935 64.0199 2.07083 66.2335 1.73588C68.5055 1.3921 70.8071 1.23609 73.0991 1.03547C74.7801 0.888322 76.465 0.766293 78.1508 0.69707C80.396 0.604869 82.6435 0.54989 84.8905 0.52464C87.4352 0.496044 89.9814 0.475149 92.5252 0.531978C94.4661 0.575343 96.4064 0.717139 98.3431 0.865453C100.947 1.06486 103.549 1.29057 106.148 1.54701C108.073 1.73691 109.999 1.93954 111.909 2.23406C114.51 2.63507 117.104 3.09292 119.688 3.59173C123.334 4.29536 126.994 4.94891 130.599 5.82677C134.407 6.75419 138.216 7.75436 141.792 9.41441C145.007 10.9071 148.228 12.4008 151.355 14.0655C154.204 15.5821 156.926 17.3367 159.714 18.9702C160.783 19.5971 161.897 20.1507 162.958 20.7911C163.67 21.2204 164.386 21.6765 164.995 22.2362C167.757 24.7783 170.495 27.3483 173.216 29.9355C174.528 31.1833 175.783 32.4914 177.063 33.7721C178.501 35.21 180.008 36.5867 181.36 38.101C183.076 40.0234 184.65 42.0721 186.317 44.0398C188.559 46.6861 190.062 49.7727 191.688 52.7966C192.792 54.8495 193.479 57.0531 194.285 59.2143C194.836 60.6912 195.467 62.1787 195.718 63.7177C196.102 66.0669 197.493 67.9327 198.328 70.054C199.183 72.2275 199.866 74.47 200.592 76.6929C201.213 78.5945 201.858 80.4929 202.364 82.4264C202.829 84.2063 203.127 86.0303 203.491 87.8365C203.77 89.2261 204.063 90.614 204.301 92.0109C204.47 93.0016 204.556 94.0064 204.685 95.0042C204.909 96.755 205.152 98.5036 205.36 100.256C205.499 101.426 205.625 102.6 205.697 103.776C205.788 105.254 205.822 106.736 205.875 108.217C205.935 109.867 206.099 111.523 206.024 113.168C205.847 117.044 199.467 132.626 196.891 136.449C195.397 138.665 193.958 140.92 192.425 143.109C190.417 145.978 188.364 148.815 186.289 151.635C183.805 155.013 181.309 158.382 178.757 161.708C177.551 163.279 176.229 164.765 174.909 166.245C173.806 167.481 172.699 168.73 171.472 169.837C169.074 172 166.603 174.081 164.141 176.171C160.897 178.926 157.337 181.255 153.659 183.351C150.657 185.062 147.48 186.502 144.28 187.82C139.456 189.807 134.554 191.607 129.668 193.442C125.934 194.844 122.199 196.252 118.418 197.52C115.221 198.591 111.982 199.559 108.716 200.396C105.951 201.105 103.128 201.602 100.317 202.114C98.3481 202.472 96.3597 202.737 94.3712 202.968C92.4332 203.192 90.4849 203.331 88.5395 203.486C87.515 203.568 86.4875 203.634 85.4604 203.655C82.0505 203.726 78.6404 203.801 75.23 203.819C73.5513 203.829 71.8678 203.772 70.1937 203.647C67.8435 203.473 65.4895 203.282 63.1563 202.96C60.4948 202.592 57.8564 202.059 55.204 201.621C53.0214 201.261 50.8231 200.989 48.6493 200.584C44.9174 199.889 41.1816 199.198 37.481 198.357C34.519 197.685 31.5699 196.907 28.6812 195.972C24.0854 194.484 19.7791 192.355 15.8908 189.462C14.5872 188.493 13.298 187.456 12.2013 186.266C9.58837 183.431 7.48734 180.233 5.96862 176.586C4.80632 173.769 4.04077 170.919 3.41176 168.025Z" fill="#FFB61D"/>
<path d="M113.415 174.202C113.074 175.99 112.938 177.77 112.341 179.378C111.565 181.464 109.771 182.725 107.699 183.366C105.422 184.071 103.078 184.565 100.748 185.082C99.9745 185.254 99.154 185.221 98.3542 185.269C95.4739 185.443 92.5929 185.604 89.713 185.784C88.1417 185.882 86.5732 186.028 85.0014 186.116C83.4942 186.2 81.9833 186.296 80.4758 186.273C80.1412 186.268 78.0501 186.57 75.1242 186.776C74.5559 186.816 75.4403 189.885 74.4187 190.207C72.1426 190.924 66.5678 190.723 65.5952 189.2C64.6226 187.678 64.9674 187.037 63.8892 186.597C58.6161 184.445 53.1846 183.942 51.5929 179.378C50.5335 176.34 52.55 169.142 51.9636 163.616C50.46 149.446 47.4696 133.636 47.372 133.554C47.3819 133.544 44.1876 133.817 43.9497 132.646C40.9981 118.118 39.6522 98.9723 47.372 94.1444C52.0205 91.2372 60.8753 88.2513 70.6922 85.8123C72.119 85.4578 72.9612 83.3616 74.4187 83.0321C74.7447 82.9584 75.7421 81.0644 76.5976 79.1617C77.4591 77.2457 78.1835 75.321 79.952 75.2368C83.5872 75.0638 89.8583 70.4076 94.1126 71.8606C98.0082 73.191 99.9834 80.6803 101.488 79.7734C103.004 78.8593 104.346 80.4463 106.423 80.4463C121.288 80.4463 132.484 108.686 134.04 115.634C131.439 119.389 123.733 119.389 116.452 121.613C115.247 120.127 112.826 115.67 112.044 113.163C111.24 110.583 110.962 116.434 110.906 118.507C110.833 121.189 111.073 123.88 111.206 126.566C111.293 128.336 111.438 130.103 111.539 131.873C111.717 134.98 111.905 138.087 112.044 141.196C112.142 143.384 112.1 145.579 112.241 147.763C112.385 150.001 112.684 152.229 112.901 154.463C113.029 155.777 113.146 157.092 113.24 158.408C113.319 159.518 113.43 160.633 113.399 161.742C113.338 163.891 113.114 166.037 113.104 168.185C113.099 169.307 113.475 170.426 113.553 171.554C113.611 172.401 113.468 173.262 113.415 174.202Z" fill="white"/>
<path d="M137.184 40.2064C136.225 39.2985 135.639 38.1642 134.886 37.1547C134.863 37.1249 134.842 37.0937 134.827 37.0604C134.237 35.7807 133.661 34.5014 133.38 33.1025C133.217 32.2857 133.224 31.4896 133.348 30.6794C133.41 30.2765 133.436 29.8672 133.515 29.4684C133.761 28.2444 134.358 27.1785 135.058 26.1647C135.269 25.8599 135.511 25.576 135.716 25.2673C136.485 24.1113 137.568 23.3671 138.831 22.8484C139.652 22.511 140.496 22.2265 141.299 21.8449C141.398 21.7979 141.507 21.7559 141.615 21.7457C142.945 21.6199 144.274 21.4892 145.606 21.383C146.904 21.2793 148.205 21.308 149.504 21.3918C150.208 21.437 150.915 21.4566 151.616 21.5277C153.138 21.6823 154.608 22.0257 156.02 22.6431C157.007 23.0745 158.001 23.4778 158.947 23.9995C160.034 24.5991 160.956 25.3952 161.828 26.26C162.228 26.656 162.534 27.12 162.807 27.6077C162.97 27.8989 163.115 28.2038 163.306 28.4757C164.417 30.0571 164.657 31.8179 164.387 33.6797C164.323 34.1187 164.182 34.5469 164.219 34.999C164 35.9009 163.787 36.8064 163.249 37.5875C162.827 38.2 162.371 38.7838 161.802 39.2719C161.605 39.4411 161.406 39.6114 161.228 39.8C160.842 40.2089 160.371 40.5018 159.925 40.8337C158.963 41.5485 157.892 42.0531 156.832 42.584C156.701 42.6499 156.561 42.7024 156.42 42.7452C155.853 42.9179 155.284 43.0847 154.714 43.2526C154.074 43.4414 153.436 43.6419 152.79 43.8136C151.78 44.0827 150.732 44.0865 149.702 44.2232C149.557 44.2425 149.403 44.232 149.258 44.2071C148.159 44.0207 147.046 43.9639 145.942 43.8262C145.759 43.8034 145.578 43.7558 145.397 43.7179C144.161 43.4607 142.917 43.2322 141.718 42.8233C141.418 42.721 141.147 42.7441 140.867 42.9085C140.547 43.0959 140.208 43.2494 139.874 43.4116C139.168 43.7544 138.554 44.2365 137.918 44.6861C137.737 44.8136 137.548 44.9296 137.356 45.039C137.207 45.1234 136.952 44.9966 136.913 44.8203C136.865 44.6041 136.818 44.39 136.882 44.1626C137.239 42.8944 137.227 41.5972 137.184 40.2064Z" fill="white"/>
<path fill-rule="evenodd" clip-rule="evenodd" d="M74.902 81.9773C74.902 81.9773 76.5202 79.7617 77.0788 78.6068C77.6375 77.452 78.1628 75.2363 78.1628 75.2363C78.1628 75.2363 89.7099 91.5856 87.8828 91.7985C84.2304 92.2239 74.902 81.9773 74.902 81.9773Z" fill="#E7EAEE"/>
<path d="M124.696 134.315C122.867 131.408 118.983 124.633 117.194 121.771C117.153 121.705 125.483 114.045 132.898 115.984C133.634 116.177 135.05 119.047 135.744 119.389C137.036 120.026 136.805 116.913 139.278 112.527C143.173 105.621 150.345 95.308 153.161 89.1512C154.306 86.649 153.497 84.6986 153.376 84.1522C152.929 82.131 151.88 80.4821 150.366 79.0972C149.384 78.199 149.345 76.1943 150.463 75.6419C151.289 75.2341 152.22 75.1049 153.161 75.5754C154.237 76.1126 155.307 76.6207 156.047 77.6221C156.147 77.7574 156.322 77.8369 156.463 77.9422C156.53 77.7715 156.605 77.6033 156.664 77.4299C157.261 75.6905 157.809 73.933 158.462 72.2153C159.039 70.6974 159.679 69.1966 160.405 67.7455C160.644 67.2672 161.248 66.6512 161.672 66.6609C162.296 66.6751 162.703 67.3491 162.797 68.0556C162.846 68.4303 162.899 68.8051 162.97 69.1762C163.001 69.3392 163.08 69.4931 163.137 69.6512C163.25 69.5158 163.355 69.3724 163.478 69.2465C163.849 68.8669 164.178 68.419 164.613 68.1369C165.211 67.7494 165.893 68.1802 165.845 68.9247C165.778 69.9532 165.698 70.9988 165.45 71.9938C165.003 73.7827 164.426 75.539 163.911 77.3109C163.88 77.4164 163.909 77.5394 163.911 77.6543C164.027 77.5921 164.2 77.5593 164.25 77.4628C164.575 76.833 164.922 76.2078 165.168 75.5461C165.566 74.4769 166.167 73.5611 167.038 72.838C167.24 72.6698 167.569 72.6532 167.84 72.5669C167.918 72.8183 168.113 73.1013 168.055 73.3159C167.636 74.8681 167.274 76.4488 166.691 77.941C165.221 81.7004 163.651 85.4208 162.107 89.1512C161.215 91.307 160.18 93.4115 159.422 95.6128C158.651 97.8571 158.201 100.21 157.5 102.482C156.758 104.89 155.901 107.265 155.066 109.644C153.796 113.259 152.653 116.93 151.168 120.457C150.007 123.212 148.496 125.835 146.976 128.42C145.838 130.357 144.534 132.219 143.116 133.962C142.284 134.985 141.101 135.732 140.047 136.566C138.358 137.901 136.441 138.753 134.342 139.234C131.927 139.788 129.783 139.357 127.98 137.595C126.888 136.527 125.818 135.437 124.696 134.315Z" fill="white"/>
<path fill-rule="evenodd" clip-rule="evenodd" d="M67.8681 62.6533C67.6354 63.1239 67.6505 63.5358 67.9538 63.9355C68.0897 64.1146 68.2366 64.2854 68.3836 64.4561C68.5414 64.6395 68.6992 64.8229 68.8432 65.0165C69.0609 65.3091 69.2856 65.5978 69.5105 65.8866C70.1008 66.645 70.6916 67.4039 71.1551 68.2335C71.8099 69.4057 72.5682 70.2701 73.9444 70.5184C74.503 70.6192 74.7138 71.0655 74.7807 71.6533C74.8738 72.4713 75.0261 73.3004 75.2977 74.0739C75.492 74.6275 76.0059 74.9944 76.6604 74.9235C76.9672 74.8903 77.2729 74.8385 77.5782 74.7867C78.0483 74.707 78.5177 74.6274 78.9894 74.6161C79.4415 74.6053 80.0278 74.7234 80.3317 75.0149C81.1437 75.7938 81.8914 76.6408 82.6382 77.4869L82.6385 77.4872C82.7928 77.662 82.947 77.8367 83.1018 78.0108C83.159 78.0751 83.2151 78.14 83.2708 78.2044L83.2709 78.2044C83.8163 78.8346 84.3232 79.4202 85.4071 79.0442C86.694 78.5977 88.0475 78.3977 89.4436 78.4886C90.724 78.5719 91.2241 78.1382 91.6181 76.8844C91.6585 76.7558 91.6928 76.6244 91.727 76.493C91.793 76.2394 91.859 75.986 91.9695 75.7536C92.0114 75.6654 92.0528 75.576 92.0944 75.4863C92.322 74.9954 92.5547 74.4934 92.9057 74.1077C93.54 73.4109 94.3622 73.518 95.205 73.8169C96.1534 74.1532 96.6454 73.9469 97.0546 73.0846C97.2278 72.7196 97.2851 72.7243 97.6018 72.9579C97.858 73.1469 98.2617 73.2342 98.5884 73.21C99.3966 73.1502 100.206 73.0371 100.998 72.8677C101.285 72.8066 101.664 72.5801 101.762 72.334C101.882 72.0329 102.002 71.732 102.123 71.431L102.123 71.4309L102.123 71.4308C102.802 69.7339 103.483 68.0346 104.027 66.2937C104.913 63.4619 105.572 60.5626 105.57 57.5714C105.569 55.5675 105.511 53.5635 105.452 51.5597L105.452 51.559C105.437 51.0515 105.422 50.544 105.408 50.0365C105.401 49.796 105.396 49.5552 105.39 49.3145L105.39 49.3126C105.364 48.2136 105.337 47.1133 105.227 46.0222C105.028 44.0535 104.771 42.0904 104.515 40.1277C104.472 39.7978 104.429 39.468 104.386 39.1381C104.26 38.1712 104.114 37.2069 103.968 36.2427L103.968 36.2426C103.92 35.9237 103.871 35.6048 103.824 35.2859L103.721 34.5949C103.492 33.062 103.264 31.5291 103.022 29.9982C103.013 29.9383 103.004 29.8765 102.995 29.8137V29.8137C102.951 29.4951 102.904 29.1538 102.724 28.9384C102.564 28.746 102.403 28.553 102.243 28.3599C101.217 27.1243 100.189 25.8853 99.0443 24.7673C98.1466 23.8901 97.0646 23.1857 96.0021 22.494L96.0021 22.494L95.864 22.4041C92.9606 20.5124 89.7086 19.6608 86.2903 19.4361C85.3536 19.3745 84.4122 19.3887 83.4705 19.4029C82.9067 19.4114 82.3428 19.4199 81.7798 19.4122C81.2657 19.4051 80.9874 19.5688 80.6538 20.0172C80.2112 20.6122 79.5497 21.0909 78.8967 21.4736C77.2656 22.4292 75.8304 23.5517 74.728 25.1296C73.28 27.2023 71.9533 29.3347 71.0862 31.7122C70.4175 33.5459 69.9548 35.4292 69.7952 37.4018C69.7437 38.0386 69.6153 38.6671 69.4869 39.296C69.2383 40.5128 68.9895 41.7311 69.2966 43.0141C69.4289 43.567 69.5059 44.134 69.5828 44.7006C69.673 45.365 69.7632 46.0287 69.9423 46.6684L70.0413 47.0211C70.6127 49.0528 71.1734 51.0465 71.0619 53.2329C70.942 55.583 70.1081 57.6362 69.1421 59.8608C69.0187 60.1338 68.8972 60.4077 68.7757 60.6816L68.7757 60.6817C68.4822 61.3434 68.1887 62.0051 67.8681 62.6533ZM106.092 47.1793C106.093 47.1994 106.091 47.2213 106.089 47.2429C106.085 47.2817 106.081 47.3199 106.097 47.3465C106.146 47.429 106.206 47.5055 106.265 47.582C106.289 47.6121 106.312 47.6423 106.335 47.6728C106.36 47.6502 106.387 47.6286 106.413 47.6069C106.47 47.5601 106.527 47.5133 106.573 47.4574C106.704 47.2986 106.836 47.1406 106.968 46.9826L106.968 46.9825C107.343 46.5328 107.718 46.083 108.07 45.6157C108.846 44.5851 109.605 43.5411 110.348 42.4866C110.786 41.8649 110.35 41.6073 109.83 41.5704C108.748 41.4937 107.832 41.951 106.902 42.4854C106.238 42.8673 105.749 43.1871 105.922 44.1951L105.948 44.6455L105.948 44.6466C105.996 45.4908 106.044 46.335 106.092 47.1793ZM69.0357 47.6576C69.0123 47.6958 68.9889 47.734 68.9718 47.771C68.5091 47.5503 68.0799 47.2868 67.6551 47.026C67.2832 46.7976 66.9146 46.5713 66.5296 46.3775C65.6594 45.9394 65.3532 45.1439 65.0746 44.3533C64.7539 43.4434 65.4676 42.5742 66.4352 42.5808C66.4783 42.5811 66.5215 42.5813 66.5649 42.5814C66.9098 42.5826 67.2599 42.5839 67.5916 42.6566C68.2431 42.7994 68.3077 43.3044 68.37 43.7909C68.3894 43.9419 68.4085 44.0912 68.4448 44.2272C68.6775 45.098 68.8474 45.9858 69.0172 46.8729C69.0524 47.0564 69.0875 47.2399 69.1232 47.4232C69.1368 47.493 69.0862 47.5753 69.0357 47.6576Z" fill="white"/>
<circle cx="100.072" cy="57.7539" r="2.27733" fill="#669DEF"/>
<circle cx="76.3227" cy="55.8027" r="2.27733" fill="#669DEF"/>
<path fill-rule="evenodd" clip-rule="evenodd" d="M87.0888 28.3614C88.3864 28.6401 89.7937 28.9784 91.1052 28.2662C91.5493 28.0251 91.9668 27.7281 92.3715 27.4235C92.6184 27.2377 92.8405 27.0071 93.0346 26.7651C94.575 24.8449 95.7117 25.1316 97.8328 26.3854C100.546 27.9894 103.689 32.6618 95.2753 32.6618C91.0377 32.6618 74.1115 30.3543 76.4748 28.0604C77.4407 27.1229 78.7061 26.4954 79.8272 25.7155C80.2494 25.4218 80.6793 25.1277 81.0519 24.7767C81.5917 24.2683 81.9193 24.5368 82.2563 25.0042C82.6992 25.6185 83.1617 26.2188 83.6583 26.8677C84.8265 27.4115 85.91 28.1081 87.0888 28.3614Z" fill="#E7EAEE"/>
<path fill-rule="evenodd" clip-rule="evenodd" d="M132.435 116.207C131.996 116.472 131.556 116.736 131.084 116.915C129.942 117.348 128.785 117.74 127.616 118.135L127.615 118.135L127.614 118.136L127.614 118.136L127.614 118.136L127.614 118.136L127.614 118.136L127.614 118.136L127.614 118.136L127.613 118.136L127.613 118.136L127.613 118.136L127.613 118.136L127.613 118.136C126.872 118.387 126.126 118.639 125.377 118.905C125.151 118.993 124.952 119.05 124.76 119.106L124.76 119.106L124.76 119.106L124.76 119.106L124.758 119.107L124.753 119.109L124.745 119.111C124.705 119.122 124.665 119.134 124.625 119.146C123.956 119.345 123.287 119.547 122.618 119.748L122.617 119.748C120.938 120.253 119.26 120.758 117.573 121.231C116.89 121.423 116.325 121.208 115.954 120.47C115.032 118.634 114.044 116.831 113.051 115.032C112.982 114.907 112.812 114.839 112.642 114.77C112.563 114.738 112.484 114.706 112.415 114.668C112.389 114.755 112.348 114.85 112.307 114.945C112.218 115.149 112.13 115.354 112.195 115.478C113.302 117.606 114.439 119.719 115.628 121.802C115.776 122.06 116.308 122.296 116.602 122.238C118.163 121.93 119.713 121.553 121.252 121.146C121.847 120.988 122.436 120.803 123.024 120.619L123.025 120.619L123.025 120.619C123.873 120.353 124.72 120.088 125.585 119.903C128.556 119.267 131.398 118.348 133.948 116.65C134.863 116.04 135.114 115.107 134.669 114.141C134.514 113.803 134.355 113.467 134.197 113.13C133.65 111.969 133.103 110.807 132.676 109.604C131.364 105.915 129.887 102.298 128.149 98.7938C127.049 96.5762 125.88 94.3876 124.639 92.2462C122.98 89.3851 121.243 86.5266 118.576 84.4908C116.723 83.077 114.739 81.7454 112.63 80.779C109.547 79.3665 106.161 79.0571 102.792 78.8222C102.104 78.7743 101.381 78.516 100.773 78.1768C99.5534 77.4966 99.0581 76.2917 98.5593 75.0784C98.5047 74.9456 98.4501 74.8127 98.3945 74.6804C98.1484 74.0951 98.5445 73.9856 98.7937 73.934C99.4356 73.8011 100.114 73.6959 100.759 73.7611C101.764 73.8627 102.317 73.3946 102.686 72.5611C103.591 70.5163 104.384 68.4369 104.982 66.273C105.811 63.277 106.518 60.2812 106.443 57.1415C106.41 55.7807 106.417 54.4189 106.425 53.0571C106.429 52.347 106.433 51.6368 106.431 50.9268C106.431 50.7331 106.407 50.5304 106.384 50.3284C106.337 49.9222 106.29 49.5186 106.431 49.195C106.779 48.399 107.35 47.6847 107.904 46.9983C108.342 46.4553 108.8 45.9279 109.258 45.4006L109.258 45.4006L109.258 45.4004C109.813 44.7615 110.368 44.1227 110.887 43.4563C111.305 42.9195 111.618 42.2358 111.196 41.523C110.785 40.8269 110.124 40.5443 109.358 40.7173C109.226 40.7469 109.094 40.7749 108.961 40.8029L108.961 40.803C107.997 41.007 107.022 41.2132 106.342 42.0678C106.015 42.4784 105.826 42.4798 105.741 41.8842C105.678 41.4425 105.589 41.0046 105.499 40.5667L105.499 40.5665L105.499 40.5664L105.499 40.5663L105.499 40.5662L105.499 40.566L105.499 40.5659L105.499 40.5658L105.499 40.5656L105.499 40.5655L105.499 40.5654L105.499 40.5653L105.499 40.5651L105.499 40.565L105.499 40.5649C105.406 40.1107 105.314 39.6566 105.251 39.1983C105.173 38.6337 105.121 38.0656 105.068 37.4975V37.4974C105.018 36.9477 104.967 36.3979 104.893 35.8513C104.79 35.0845 104.673 34.3194 104.557 33.5543L104.557 33.5534L104.556 33.5525C104.38 32.3934 104.203 31.2346 104.073 30.0704C103.995 29.379 103.803 28.8253 103.339 28.3214C103.099 28.0599 102.854 27.801 102.61 27.5419C101.86 26.7479 101.11 25.953 100.463 25.0819C98.6796 22.6783 96.1463 21.4177 93.5174 20.2745C91.8234 19.5378 90.0718 19.0108 88.2091 18.9045C87.3894 18.8577 86.5703 18.7993 85.7513 18.7409C84.9149 18.6813 84.0785 18.6216 83.2414 18.5744C82.5527 18.5355 81.8525 18.5077 81.1725 18.5934C80.8343 18.636 80.4961 18.9063 80.2171 19.1434C79.9417 19.3774 79.6796 19.6277 79.4176 19.8779L79.4176 19.8779C79.08 20.2002 78.7427 20.5224 78.3773 20.8093C77.9921 21.1117 77.5841 21.3894 77.1766 21.6667C76.5076 22.122 75.84 22.5763 75.277 23.1377C74.6298 23.7831 74.1128 24.5608 73.5967 25.337L73.5966 25.3373C73.4067 25.623 73.2169 25.9084 73.0209 26.187C71.565 28.2554 70.4465 30.4908 69.8307 32.9516C69.4496 34.4747 69.1268 36.0131 68.8064 37.5506L68.7556 37.7939L68.7556 37.794L68.7556 37.794L68.7556 37.794L68.7556 37.794L68.7556 37.794L68.7556 37.7941L68.7556 37.7941L68.7556 37.7941L68.7556 37.7941L68.7556 37.7942L68.7556 37.7942L68.7556 37.7942L68.7556 37.7942L68.7556 37.7942C68.5206 38.9197 68.2851 40.0478 68.1371 41.1859L68.1305 41.2363C68.0135 42.1379 68.0046 42.2063 67.1397 41.8865C66.2465 41.5562 65.4767 41.7793 64.8479 42.3852C64.23 42.9806 64.162 43.7838 64.3768 44.5934C65.0059 46.9645 66.8182 47.9573 68.9846 48.5488C69.1738 48.6004 69.3826 48.7849 69.4727 48.963C70.4068 50.8106 70.4472 52.7757 69.856 54.6812C69.3115 56.4359 68.6667 58.1594 68.0219 59.8829L68.0218 59.883C67.7373 60.6435 67.4528 61.404 67.1768 62.1672C66.8927 62.9531 66.737 63.6737 67.3878 64.4349C68.7877 66.0722 70.1247 67.7667 71.1346 69.6872C71.535 70.4487 72.1496 70.997 72.974 71.1624C73.7593 71.3201 73.8658 71.7084 73.9583 72.4452C74.0802 73.4163 74.4034 74.4369 74.928 75.2504C75.0946 75.5087 75.5438 75.5785 76.0035 75.65L76.0036 75.6501C76.2469 75.6879 76.4932 75.7262 76.7022 75.7932C76.8729 75.8479 77.1438 76.0754 77.1228 76.1679C77.0855 76.3325 77.0492 76.4977 77.0128 76.6631L77.0128 76.6632L77.0128 76.6632L77.0128 76.6632L77.0128 76.6633L77.0128 76.6633L77.0128 76.6633L77.0127 76.6634L77.0127 76.6634L77.0127 76.6635L77.0127 76.6635L77.0127 76.6635L77.0127 76.6636L77.0127 76.6636L77.0127 76.6636C76.8385 77.4565 76.6634 78.2534 76.3691 79.0019C75.7247 80.641 74.3537 81.6664 73.0231 82.6617C72.8413 82.7977 72.6602 82.9332 72.4818 83.0695C70.1587 84.8457 67.3953 85.8209 64.6189 86.6625C63.3139 87.0581 61.9901 87.391 60.6661 87.7239C59.8073 87.9399 58.9485 88.1559 58.0946 88.389C57.5625 88.5343 57.0366 88.7061 56.5111 88.8779C55.7317 89.1326 54.953 89.3871 54.1552 89.5545C51.0907 90.1974 48.3875 91.5199 46.0132 93.5452C44.4173 94.9065 43.5607 96.7371 42.6993 98.5778L42.5736 98.8462C41.4093 101.328 40.3886 103.973 40.2448 106.658C40.2044 107.411 40.2619 108.169 40.3195 108.927C40.3486 109.311 40.3777 109.694 40.3941 110.077C40.4311 110.938 40.4628 111.8 40.4945 112.661L40.4946 112.661C40.5635 114.535 40.6325 116.408 40.756 118.278C40.8248 119.321 41.0103 120.357 41.1955 121.391L41.1955 121.392C41.2487 121.689 41.3018 121.985 41.3521 122.282C41.4892 123.09 41.6422 123.896 41.7952 124.701C41.8972 125.239 41.9993 125.776 42.0967 126.314C42.1601 126.665 42.2282 127.016 42.2964 127.366L42.2964 127.366C42.4797 128.31 42.6631 129.254 42.7562 130.206C42.8418 131.081 42.8169 131.967 42.7921 132.853C42.7847 133.115 42.7774 133.377 42.7729 133.638C42.765 134.099 42.8455 134.472 43.3991 134.347C43.9461 134.223 44.4836 134.057 45.0208 133.891L45.021 133.891C45.1899 133.839 45.3588 133.786 45.5279 133.736C46.0982 133.564 46.4477 133.765 46.5212 134.351C46.594 134.931 46.658 135.513 46.7221 136.094L46.7222 136.094C46.8194 136.976 46.9167 137.858 47.0442 138.735C47.3541 140.869 47.6951 142.999 48.0628 145.124C48.7378 149.023 49.7109 152.854 50.9893 156.596C52.1258 159.924 53.3552 163.22 54.5963 166.51C55.3112 168.405 56.0759 170.281 56.8404 172.157C57.0358 172.637 57.2312 173.116 57.4258 173.596C58.214 175.54 59.0192 177.476 59.8256 179.413C60.0118 179.86 60.1957 180.308 60.3797 180.756L60.3799 180.756L60.3802 180.757L60.3805 180.758L60.3808 180.758L60.3811 180.759L60.3814 180.76L60.3817 180.761L60.3819 180.761L60.3822 180.762L60.3825 180.763C60.9248 182.083 61.4671 183.404 62.0658 184.699C62.5855 185.823 63.1761 186.914 63.7664 188.005L63.7665 188.005L63.767 188.006C63.941 188.328 64.1151 188.649 64.2873 188.972C64.3408 189.072 64.4484 189.144 64.556 189.215C64.6059 189.248 64.6558 189.281 64.7003 189.317C64.7218 189.258 64.7468 189.2 64.7718 189.141C64.8303 189.003 64.8888 188.866 64.9021 188.724C64.9126 188.613 64.8497 188.492 64.7895 188.376C64.7736 188.346 64.7579 188.315 64.7438 188.286C64.543 187.865 64.3353 187.447 64.1276 187.029C63.6921 186.152 63.2566 185.276 62.8848 184.373C61.5968 181.246 60.3612 178.097 59.1302 174.946C58.577 173.53 58.0362 172.11 57.4955 170.689C56.9631 169.291 56.4307 167.893 55.8865 166.499C55.5481 165.632 55.1904 164.772 54.8327 163.912C54.1925 162.373 53.5524 160.835 53.0237 159.258C51.9013 155.912 50.897 152.52 49.9876 149.109C49.4752 147.187 49.123 145.221 48.7715 143.257C48.7083 142.904 48.6451 142.551 48.581 142.199C48.4037 141.224 48.2908 140.237 48.1779 139.25C48.1394 138.914 48.1009 138.577 48.0598 138.241C47.8813 136.78 47.7131 135.318 47.5495 133.855C47.495 133.368 47.7109 133.137 48.2084 132.979C50.1135 132.376 52.0095 131.744 53.9055 131.113L53.9162 131.109C54.5855 130.886 55.2548 130.663 55.9245 130.441C56.4252 130.275 56.9584 130.116 57.5065 129.953C59.5359 129.348 61.7695 128.682 63.314 127.383C63.4035 127.307 63.6376 127.264 63.6937 127.319C63.7946 127.418 63.8659 127.607 63.8553 127.751C63.802 128.472 63.7373 129.193 63.6726 129.913L63.6726 129.913L63.6726 129.913L63.6726 129.913L63.6726 129.913L63.6726 129.913L63.6725 129.914L63.6725 129.914L63.6725 129.914L63.6725 129.914L63.6725 129.914L63.6725 129.914L63.6725 129.914L63.6725 129.914L63.6725 129.914C63.5449 131.336 63.4172 132.757 63.3772 134.181C63.3265 135.988 63.4132 137.799 63.4997 139.608L63.4997 139.608C63.5112 139.847 63.5226 140.086 63.5337 140.324C63.5871 141.472 63.6727 142.629 63.8786 143.757C64.4024 146.627 65.4893 149.313 66.7655 151.922C66.9511 152.301 67.1717 152.666 67.392 153.031C67.7216 153.576 68.0503 154.12 68.2594 154.708C68.5791 155.607 68.9171 156.5 69.2551 157.393C70.1832 159.846 71.1116 162.299 71.6628 164.88C71.8361 165.691 72.0386 166.497 72.241 167.302L72.241 167.302C72.4656 168.196 72.6903 169.09 72.8751 169.992C73.1603 171.383 73.3823 172.787 73.6042 174.191L73.6043 174.192C73.6555 174.515 73.7066 174.839 73.7585 175.162C73.8219 175.557 73.8927 175.952 73.9635 176.347C74.1556 177.42 74.348 178.493 74.3943 179.572C74.4865 181.719 74.5157 183.868 74.545 186.018V186.018C74.5606 187.166 74.5762 188.314 74.6014 189.461C74.6052 189.632 74.6779 189.802 74.7506 189.971L74.7506 189.971C74.7844 190.05 74.8182 190.129 74.845 190.208C74.89 190.128 74.946 190.049 75.0019 189.97C75.1229 189.798 75.2439 189.627 75.2543 189.45C75.3105 188.482 75.3435 187.513 75.3765 186.544C75.3978 185.919 75.419 185.294 75.4466 184.669C75.4597 184.371 75.4907 184.074 75.5216 183.776C75.5681 183.33 75.6145 182.885 75.6004 182.441C75.5857 181.976 75.5725 181.51 75.5592 181.044L75.5592 181.044C75.4987 178.915 75.438 176.784 75.238 174.667C75.1039 173.247 74.7676 171.843 74.4328 170.445C74.3686 170.176 74.3043 169.908 74.2416 169.64C74.0916 168.999 73.9453 168.357 73.7988 167.715L73.7982 167.712C73.2782 165.431 72.7578 163.148 72.0745 160.916C70.9522 157.25 69.4289 153.732 67.6788 150.307C66.8833 148.751 66.2165 147.089 65.7698 145.402C64.8926 142.088 64.8166 138.662 64.7411 135.256L64.7339 134.936C64.6988 133.368 64.7632 131.798 64.8277 130.229C64.8497 129.693 64.8717 129.157 64.8897 128.622C64.9134 127.919 64.9674 127.216 65.0214 126.514L65.0216 126.512C65.0333 126.359 65.0451 126.206 65.0566 126.053C65.1089 125.353 65.1728 124.654 65.2367 123.955C65.3764 122.426 65.516 120.898 65.5351 119.368C65.5504 118.137 65.4705 116.906 65.3906 115.675C65.3244 114.654 65.2582 113.634 65.2461 112.613C65.229 111.173 64.8133 109.842 64.3974 108.51L64.3973 108.509C64.2654 108.087 64.1334 107.664 64.0142 107.238C63.9683 107.075 63.7989 106.945 63.6295 106.816C63.551 106.756 63.4726 106.697 63.4064 106.633C63.3806 106.726 63.3433 106.821 63.3061 106.915C63.2248 107.122 63.1435 107.329 63.1806 107.511C63.255 107.878 63.3661 108.239 63.4769 108.599C63.632 109.103 63.7867 109.606 63.8402 110.121C64.0796 112.427 64.3065 114.744 64.3436 117.059C64.3592 118.028 64.2835 119 64.2079 119.971C64.1235 121.054 64.0392 122.137 64.0816 123.216C64.1422 124.755 63.3572 125.573 62.3059 126.353C60.9232 127.381 58.9482 127.974 57.1751 128.507L57.1748 128.507L57.1743 128.507L57.1738 128.507L57.1733 128.508L57.1728 128.508L57.1723 128.508L57.1716 128.508L57.1706 128.508C56.7024 128.649 56.2484 128.785 55.8231 128.925C53.1729 129.792 50.5385 130.707 47.9041 131.622L47.904 131.622L47.9038 131.622L47.9037 131.622L47.9036 131.623L47.9034 131.623L47.9033 131.623L47.9031 131.623L47.903 131.623L47.9028 131.623L47.9027 131.623L47.9026 131.623L47.9024 131.623L47.9023 131.623L47.9021 131.623C46.815 132.001 45.7279 132.378 44.6397 132.753L44.6214 132.759C44.2574 132.884 43.9571 132.988 43.9576 132.367C43.9582 131.609 43.8797 130.85 43.8015 130.094L43.7973 130.054C43.7529 129.624 43.7093 129.193 43.6657 128.763L43.6656 128.763C43.4972 127.1 43.3286 125.437 43.1094 123.781C42.9755 122.77 42.8129 121.762 42.6502 120.754L42.6502 120.754C42.4559 119.55 42.2616 118.345 42.1163 117.135C41.912 115.433 41.7908 113.713 41.777 111.999C41.763 110.264 41.8164 108.528 41.8698 106.792C41.8908 106.111 41.9117 105.43 41.9286 104.748C41.974 102.92 42.8715 101.243 43.7468 99.6079C44.0743 98.996 44.3987 98.3899 44.6741 97.7839C46.0712 94.7104 48.7019 93.0157 51.6632 91.8185C53.0863 91.2431 54.571 90.818 56.0547 90.3932L56.0556 90.3929C56.6005 90.2369 57.1452 90.081 57.6867 89.9176C58.9004 89.5514 60.1172 89.1948 61.334 88.8381C63.7346 88.1345 66.1352 87.4309 68.5119 86.6542C70.6317 85.9614 72.6503 84.969 74.3197 83.4329C74.7771 83.0121 75.0021 83.0868 75.4054 83.4723C76.7224 84.7311 78.0707 85.9573 79.4187 87.1832L79.6506 87.3941C81.9488 89.4845 84.5068 91.1937 87.351 92.4403C87.7724 92.6249 88.4625 92.5992 88.8542 92.3714C89.7373 91.8577 90.5633 91.2433 91.3875 90.6301C91.5573 90.5038 91.7271 90.3775 91.8972 90.2522C92.2381 90.0011 92.5796 89.7507 92.9211 89.5003L92.9223 89.4994L92.9235 89.4986L92.9247 89.4977C94.3491 88.4532 95.7738 87.4084 97.1591 86.3141C98.6307 85.1516 99.6837 83.62 100.733 82.0938L100.733 82.0936L100.733 82.0933L100.733 82.0931L100.734 82.0928C100.901 81.849 101.069 81.6054 101.238 81.3634C101.304 81.2682 101.07 80.7778 100.919 80.7473C100.33 80.6279 100.059 81.0121 99.775 81.4151C99.721 81.4917 99.6665 81.569 99.6093 81.6437C99.3737 81.9509 99.1438 82.2664 98.9136 82.5825C98.2001 83.5618 97.4827 84.5464 96.5811 85.3065C95.1423 86.5196 93.631 87.6461 92.1192 88.7729L92.1192 88.7729L92.1191 88.773L92.1191 88.773L92.119 88.7731L92.1189 88.7731L92.1189 88.7732L92.1188 88.7732L92.1188 88.7733L92.1187 88.7733L92.1187 88.7734L92.1186 88.7734L92.1185 88.7734L92.1185 88.7735L92.1184 88.7735C91.0439 89.5745 89.9691 90.3756 88.92 91.2081C88.2669 91.7263 87.7862 91.6883 87.1551 91.3321C87.0275 91.2601 86.9 91.1885 86.7725 91.1169L86.7449 91.1013L86.74 91.0986C85.2676 90.2716 83.8073 89.4514 82.5335 88.2808C80.8971 86.7769 79.1795 85.3609 77.4624 83.9453L77.4622 83.9452L77.4621 83.945L77.4619 83.9449L77.4618 83.9447L77.4616 83.9446L77.4614 83.9445L77.4613 83.9443L77.4611 83.9442L77.461 83.9441L77.4608 83.9439L77.4606 83.9438L77.4605 83.9436L77.4603 83.9435L77.4602 83.9434C76.969 83.5384 76.4778 83.1335 75.9886 82.7265C75.535 82.3492 75.6165 82.1159 76.0066 81.7591C77.3139 80.5633 78.0152 79.084 78.2054 77.299C78.217 77.1901 78.2209 77.0703 78.2249 76.946V76.9458C78.2431 76.3831 78.2644 75.7255 79.0172 75.5499C79.7408 75.3812 80.2804 75.8541 80.7122 76.3782C80.9893 76.7145 81.2537 77.0614 81.5181 77.4083L81.5182 77.4083L81.5183 77.4084L81.5183 77.4085L81.5184 77.4086L81.5185 77.4087L81.5186 77.4087L81.5186 77.4088L81.5187 77.4089L81.5188 77.409L81.5188 77.4091L81.5189 77.4091L81.519 77.4092L81.519 77.4093L81.5191 77.4094L81.5191 77.4094L81.5192 77.4095L81.5192 77.4096L81.5193 77.4096L81.5193 77.4097L81.5194 77.4097L81.5194 77.4098L81.5195 77.4098L81.5195 77.4099L81.5196 77.41L81.5196 77.41L81.5197 77.4101L81.5197 77.4101L81.5197 77.4102C81.8488 77.8418 82.1778 78.2733 82.531 78.6843L82.5974 78.7617C83.2728 79.5497 84.0167 80.4176 85.191 80.0115C86.8328 79.4439 88.4899 79.3382 90.1962 79.318C90.6812 79.3123 91.3548 78.9496 91.6035 78.5434C92.0146 77.8719 92.3183 77.1344 92.622 76.3972L92.622 76.3972L92.6221 76.3969L92.6222 76.3968C92.7396 76.1118 92.8569 75.8269 92.9805 75.5458C93.416 74.5552 93.8688 74.185 94.9592 74.582C95.4329 74.7546 96.0601 74.8919 96.4888 74.7214C97.3378 74.3838 97.4983 74.7931 97.7365 75.4002L97.7659 75.4751C98.3219 76.8833 98.8875 78.2956 100.229 79.214C101.114 79.8195 102.115 79.9871 103.117 80.1548L103.118 80.1549L103.118 80.155L103.119 80.1551C103.211 80.1706 103.304 80.1861 103.397 80.2019C104.268 80.3512 105.142 80.4851 106.016 80.6189L106.016 80.6189L106.016 80.6189L106.016 80.619L106.016 80.619L106.017 80.619L106.017 80.619L106.017 80.619L106.017 80.619L106.017 80.619L106.017 80.619L106.017 80.619L106.017 80.6191L106.017 80.6191L106.017 80.6191L106.018 80.6191L106.018 80.6191L106.018 80.6191L106.018 80.6192L106.018 80.6192L106.018 80.6192L106.018 80.6192L106.018 80.6193L106.018 80.6193L106.019 80.6193L106.019 80.6193L106.019 80.6194L106.019 80.6194L106.019 80.6194C107.276 80.8118 108.533 81.0042 109.781 81.2425C113.034 81.8633 115.821 83.534 118.211 85.6959C119.879 87.2059 121.227 89.1074 122.542 90.9616L122.58 91.0152C123.534 92.3617 124.31 93.8411 125.082 95.3116C125.171 95.4812 125.26 95.6507 125.349 95.8199C125.589 96.2753 125.831 96.7301 126.073 97.185C127.177 99.2629 128.284 101.343 129.22 103.496C130.305 105.986 131.293 108.519 132.282 111.052L132.282 111.052L132.282 111.052L132.282 111.052L132.282 111.052L132.282 111.052L132.282 111.052L132.282 111.052L132.282 111.052L132.282 111.052L132.282 111.052L132.282 111.052L132.282 111.052L132.282 111.052L132.282 111.052C132.762 112.282 133.242 113.512 133.733 114.737C133.897 115.147 133.95 115.407 133.451 115.642C133.102 115.806 132.769 116.007 132.435 116.207ZM68.7757 60.6811L68.7757 60.681L68.7758 60.681L68.7758 60.6809L68.7758 60.6808L68.7759 60.6807L68.7759 60.6806L68.7759 60.6806L68.776 60.6805L68.776 60.6804L68.776 60.6803L68.7761 60.6802L68.7761 60.6802L68.7761 60.6801C68.8975 60.4065 69.0188 60.1329 69.1421 59.8602C70.1081 57.6357 70.942 55.5825 71.0619 53.2323C71.1734 51.046 70.6127 49.0523 70.0413 47.0206L69.9423 46.6678C69.7632 46.0282 69.673 45.3645 69.5828 44.7002L69.5828 44.7001L69.5828 44.7001L69.5828 44.7001L69.5828 44.7L69.5828 44.7L69.5828 44.7L69.5828 44.6999L69.5828 44.6999L69.5828 44.6999L69.5828 44.6999L69.5828 44.6998L69.5828 44.6998L69.5828 44.6998L69.5828 44.6997L69.5828 44.6997C69.5058 44.1332 69.4289 43.5663 69.2966 43.0135C68.9895 41.7305 69.2383 40.5123 69.4869 39.2955C69.6153 38.6666 69.7437 38.0381 69.7952 37.4012C69.9548 35.4287 70.4175 33.5454 71.0862 31.7117C71.9533 29.3342 73.28 27.2017 74.728 25.1291C75.8304 23.5512 77.2656 22.4287 78.8967 21.473C79.5497 21.0904 80.2112 20.6117 80.6538 20.0167C80.9874 19.5683 81.2657 19.4046 81.7798 19.4117C82.3428 19.4194 82.9067 19.4109 83.4705 19.4024C84.4122 19.3882 85.3536 19.374 86.2903 19.4356C89.7086 19.6603 92.9606 20.5119 95.864 22.4035L96.0021 22.4935C97.0646 23.1852 98.1466 23.8896 99.0443 24.7667C100.188 25.8848 101.217 27.1237 102.243 28.3592L102.243 28.3593L102.243 28.3593C102.403 28.5524 102.564 28.7454 102.724 28.9379C102.904 29.1533 102.951 29.4946 102.995 29.8131V29.8132C103.004 29.8759 103.013 29.9378 103.022 29.9977C103.263 31.528 103.492 33.0605 103.72 34.5928L103.72 34.5938L103.824 35.2854C103.871 35.6029 103.919 35.9203 103.967 36.2377L103.967 36.2387L103.968 36.2398L103.968 36.2409L103.968 36.242L103.968 36.2421L103.968 36.2423L103.968 36.2425L103.968 36.2427L103.968 36.2428L103.968 36.243L103.968 36.2432L103.968 36.2433L103.968 36.2435L103.968 36.2437L103.968 36.2439L103.968 36.244L103.968 36.2442L103.968 36.2444C104.114 37.2079 104.261 38.1714 104.386 39.1376C104.429 39.4655 104.471 39.7934 104.514 40.1213L104.515 40.1266L104.515 40.1269L104.515 40.1271L104.515 40.1273L104.515 40.1276L104.515 40.1278L104.515 40.128L104.515 40.1283L104.515 40.1285L104.515 40.1287L104.515 40.129L104.515 40.1292L104.515 40.1295L104.515 40.1297L104.515 40.1299C104.772 42.0917 105.028 44.0539 105.227 46.0217C105.337 47.1127 105.364 48.213 105.39 49.312C105.396 49.5534 105.401 49.7948 105.408 50.036C105.422 50.5434 105.437 51.0508 105.452 51.5582L105.452 51.5591L105.452 51.5599C105.511 53.5635 105.569 55.5672 105.57 57.5709C105.572 60.5621 104.913 63.4614 104.027 66.2932C103.483 68.0341 102.802 69.7336 102.123 71.4305C102.002 71.7315 101.881 72.0324 101.762 72.3335C101.664 72.5795 101.285 72.8061 100.998 72.8672C100.206 73.0366 99.3966 73.1497 98.5884 73.2095C98.2617 73.2337 97.858 73.1464 97.6018 72.9574C97.2851 72.7238 97.2278 72.7191 97.0546 73.0841C96.6454 73.9464 96.1534 74.1527 95.205 73.8164C94.3622 73.5175 93.54 73.4104 92.9057 74.1072C92.5547 74.4928 92.322 74.9948 92.0944 75.4858L92.0944 75.4858L92.0944 75.4858L92.0944 75.4859L92.0944 75.4859L92.0943 75.486L92.0943 75.486L92.0943 75.4861L92.0943 75.4861L92.0942 75.4862L92.0942 75.4862C92.0527 75.5758 92.0114 75.665 91.9695 75.7531C91.859 75.9855 91.793 76.2389 91.727 76.4925L91.727 76.4926L91.7269 76.4926L91.7269 76.4926L91.7269 76.4927L91.7269 76.4927L91.7269 76.4928L91.7269 76.4928L91.7269 76.4929L91.7269 76.4929L91.7269 76.493L91.7268 76.493L91.7268 76.4931L91.7268 76.4931L91.7268 76.4931C91.6927 76.6243 91.6585 76.7555 91.6181 76.8839C91.2241 78.1376 90.724 78.5714 89.4436 78.4881C88.0475 78.3972 86.694 78.5972 85.4071 79.0437C84.3232 79.4197 83.8164 78.8341 83.2709 78.2039C83.2151 78.1395 83.159 78.0746 83.1018 78.0103C82.9469 77.8361 82.7926 77.6613 82.6382 77.4864C81.8914 76.6403 81.1437 75.7933 80.3317 75.0144C80.0278 74.7229 79.4415 74.6047 78.9894 74.6156C78.5177 74.6269 78.0483 74.7065 77.5782 74.7862L77.5781 74.7863C77.2728 74.838 76.9671 74.8898 76.6604 74.923C76.0059 74.9938 75.492 74.627 75.2977 74.0734C75.0261 73.2999 74.8738 72.4707 74.7807 71.6528C74.7139 71.065 74.503 70.6187 73.9444 70.5179C72.5682 70.2696 71.8099 69.4052 71.1551 68.233C70.6916 67.4034 70.1008 66.6444 69.5105 65.8861L69.5104 65.886C69.2856 65.5972 69.0608 65.3085 68.8432 65.016C68.6992 64.8224 68.5414 64.639 68.3836 64.4556C68.2366 64.2849 68.0897 64.1141 67.9538 63.935C67.6505 63.5353 67.6354 63.1234 67.8681 62.6528C68.1887 62.0045 68.4822 61.3428 68.7757 60.6811ZM105.947 44.6334L105.922 44.1946C105.749 43.1866 106.238 42.8668 106.902 42.4849C107.832 41.9505 108.748 41.4931 109.83 41.5699C110.35 41.6067 110.786 41.8644 110.348 42.4861C109.605 43.5406 108.846 44.5846 108.07 45.6152C107.718 46.0825 107.343 46.5323 106.968 46.982L106.968 46.9821L106.968 46.9822L106.967 46.9823L106.967 46.9824L106.967 46.9824L106.967 46.9825C106.836 47.1404 106.704 47.2983 106.573 47.4569C106.527 47.5128 106.47 47.5596 106.413 47.6064C106.387 47.628 106.36 47.6497 106.335 47.6723C106.312 47.6418 106.289 47.6116 106.265 47.5815C106.206 47.505 106.146 47.4285 106.097 47.346C106.081 47.3194 106.085 47.2812 106.089 47.2424C106.091 47.2208 106.093 47.1989 106.092 47.1787C106.044 46.3303 105.996 45.4819 105.947 44.6334ZM69.0357 47.6571L69.0357 47.6571C69.0123 47.6953 68.9888 47.7335 68.9718 47.7704C68.5091 47.5498 68.0799 47.2863 67.6551 47.0254C67.2832 46.7971 66.9146 46.5707 66.5296 46.377C65.6594 45.9389 65.3532 45.1434 65.0746 44.3528C64.7539 43.4429 65.4676 42.5737 66.4352 42.5803L66.5648 42.5809H66.5649C66.9098 42.5821 67.2599 42.5834 67.5915 42.6561C68.2431 42.7989 68.3077 43.3039 68.37 43.7904C68.3894 43.9414 68.4085 44.0906 68.4448 44.2267C68.6775 45.0975 68.8474 45.9853 69.0172 46.8724C69.0524 47.0559 69.0875 47.2394 69.1232 47.4227C69.1367 47.4925 69.0862 47.5748 69.0357 47.6571ZM120.625 127.812L120.627 127.817L120.632 127.823L120.642 127.84C121.982 129.985 123.327 132.138 124.696 134.315C125.037 134.656 125.374 134.995 125.708 135.33L125.716 135.339L125.731 135.354L125.735 135.358L125.736 135.359L125.738 135.361L125.739 135.362L125.74 135.363C126.492 136.12 127.231 136.862 127.98 137.595C129.783 139.357 131.927 139.788 134.342 139.234C136.441 138.753 138.358 137.901 140.047 136.566C140.314 136.355 140.59 136.149 140.866 135.942C141.679 135.335 142.495 134.726 143.116 133.962C144.534 132.219 145.838 130.357 146.976 128.42C148.496 125.835 150.007 123.212 151.168 120.457C152.25 117.888 153.15 115.243 154.05 112.597L154.05 112.597C154.385 111.611 154.721 110.625 155.066 109.644C155.192 109.285 155.318 108.926 155.445 108.567C156.157 106.548 156.87 104.527 157.5 102.482C157.807 101.489 158.065 100.48 158.323 99.4723L158.323 99.4721L158.323 99.472L158.323 99.4719L158.323 99.4718L158.323 99.4717L158.323 99.4716L158.323 99.4715L158.323 99.4714L158.323 99.4713L158.323 99.4712L158.323 99.4711L158.323 99.4711L158.324 99.471L158.324 99.4709L158.324 99.4708C158.656 98.173 158.988 96.8757 159.423 95.6129C159.921 94.1626 160.541 92.7543 161.161 91.3456C161.482 90.6162 161.803 89.8867 162.107 89.1513C162.428 88.3775 162.749 87.6041 163.07 86.8307L163.071 86.8297L163.071 86.8296C164.298 83.875 165.526 80.9203 166.691 77.9411C167.152 76.7599 167.476 75.5233 167.798 74.2892L167.798 74.2891C167.883 73.9642 167.968 73.6395 168.055 73.316C168.095 73.1693 168.016 72.9907 167.937 72.812C167.901 72.7293 167.864 72.6465 167.84 72.567C167.754 72.5942 167.663 72.6145 167.572 72.6347C167.374 72.6788 167.177 72.7229 167.038 72.8381C166.167 73.5612 165.566 74.477 165.168 75.5462C164.964 76.0939 164.691 76.6167 164.419 77.1377L164.419 77.1378L164.419 77.138L164.356 77.2595C164.32 77.3273 164.285 77.3951 164.25 77.4629C164.216 77.5289 164.124 77.565 164.033 77.6012C163.99 77.618 163.948 77.6347 163.911 77.6544C163.911 77.6179 163.907 77.5806 163.904 77.5433C163.897 77.4632 163.89 77.383 163.911 77.311C164.075 76.7457 164.246 76.182 164.417 75.6183L164.417 75.6179L164.417 75.6174L164.417 75.617L164.417 75.6165L164.417 75.6161L164.417 75.6156L164.418 75.6151L164.418 75.6147L164.418 75.6142L164.418 75.6138L164.418 75.6133L164.418 75.6128L164.418 75.6124C164.782 74.4112 165.146 73.2101 165.45 71.9939C165.698 70.9989 165.778 69.9533 165.845 68.9248C165.893 68.1803 165.211 67.7495 164.613 68.137C164.303 68.338 164.047 68.6232 163.791 68.9079C163.688 69.0227 163.585 69.1375 163.478 69.2466C163.394 69.333 163.318 69.4277 163.242 69.5223C163.207 69.5656 163.173 69.6088 163.137 69.6513C163.119 69.6019 163.099 69.553 163.079 69.504L163.079 69.5039C163.035 69.3961 162.991 69.2884 162.97 69.1763C162.899 68.8052 162.846 68.4304 162.797 68.0557C162.703 67.3492 162.296 66.6752 161.672 66.661C161.248 66.6513 160.644 67.2673 160.405 67.7456C159.679 69.1967 159.039 70.6975 158.462 72.2154C158.013 73.3953 157.614 74.594 157.215 75.7927C157.033 76.3391 156.851 76.8854 156.664 77.43C156.624 77.5483 156.576 77.6641 156.529 77.78L156.528 77.7802L156.528 77.7804L156.528 77.7806C156.514 77.8156 156.5 77.8507 156.485 77.8858L156.463 77.9423C156.418 77.9089 156.37 77.8782 156.322 77.8474C156.219 77.7811 156.115 77.7147 156.047 77.6222C155.336 76.6598 154.319 76.153 153.287 75.638L153.161 75.5755C152.22 75.105 151.289 75.2342 150.463 75.642C149.345 76.1944 149.384 78.1991 150.366 79.0973C151.88 80.4822 152.929 82.1311 153.376 84.1523C153.983 86.8971 153.408 89.3778 151.785 91.6501L151.544 91.9873C150.736 93.1186 149.926 94.2512 149.182 95.4246C147.276 98.4313 145.388 101.451 143.544 104.496L143.434 104.677C141.729 107.492 140.023 110.309 138.447 113.197C137.734 114.503 137.156 115.883 136.579 117.262L136.578 117.263C136.374 117.749 136.171 118.236 135.961 118.719C135.774 119.15 135.641 119.302 135.284 118.863C135.017 118.534 134.712 118.226 134.378 117.968C134.275 117.889 134.12 117.878 133.964 117.867C133.893 117.862 133.823 117.857 133.757 117.846C133.755 117.87 133.751 117.895 133.747 117.92C133.744 117.938 133.741 117.955 133.737 117.972L133.731 118.004C133.707 118.123 133.682 118.242 133.731 118.296C133.794 118.367 133.857 118.439 133.92 118.51L133.921 118.512L133.921 118.512L133.921 118.512L133.921 118.512L133.921 118.512L133.921 118.512L133.921 118.512L133.921 118.512L133.921 118.512L133.921 118.512L133.921 118.512L133.921 118.512L133.921 118.512L133.921 118.512L133.922 118.512C134.25 118.887 134.583 119.266 134.982 119.547C136.227 120.427 136.375 120.325 136.924 118.874L137.012 118.643L137.131 118.327C137.607 117.059 138.086 115.783 138.737 114.606C140.503 111.412 142.367 108.27 144.243 105.138C146.098 102.041 147.986 98.9624 149.92 95.9141C150.356 95.2257 150.842 94.5659 151.327 93.9067L151.327 93.9065C152.007 92.9834 152.685 92.0613 153.228 91.0634C155.244 87.355 154.949 83.6649 152.601 80.1724C152.368 79.826 152.066 79.5246 151.764 79.2239C151.432 78.8923 151.1 78.5613 150.862 78.1713C150.606 77.7511 150.578 76.9896 150.794 76.5545C150.94 76.2611 151.76 76.0535 152.162 76.1789C154.096 76.7817 155.935 77.5653 156.341 79.921C156.36 80.0314 156.489 80.1228 156.617 80.2143C156.677 80.2568 156.737 80.2994 156.786 80.3438C156.793 80.3333 156.8 80.323 156.807 80.3127C156.825 80.2882 156.843 80.264 156.862 80.2398C156.919 80.1657 156.975 80.0916 157.001 80.0079C157.24 79.2227 157.47 78.4347 157.701 77.6467L157.701 77.6456L157.808 77.2774C157.983 76.6815 158.151 76.0838 158.32 75.486L158.32 75.4857L158.32 75.4854L158.32 75.485L158.32 75.4847L158.32 75.4844L158.32 75.4841L158.32 75.4838L158.32 75.4835L158.32 75.4832L158.32 75.4829L158.321 75.4826L158.321 75.4823L158.321 75.482L158.321 75.4818C158.717 74.0749 159.114 72.6681 159.584 71.2864C159.879 70.4201 160.308 69.5984 160.736 68.7785L160.736 68.7776C160.869 68.5232 161.002 68.2691 161.13 68.0138C161.218 67.8385 161.45 67.7165 161.642 67.6248C161.692 67.601 161.919 67.7748 161.931 67.8745C161.953 68.0472 161.983 68.2229 162.013 68.3991C162.098 68.8905 162.184 69.3866 162.082 69.8379C161.875 70.7537 161.591 71.6519 161.308 72.5505L161.308 72.5506C161.147 73.0603 160.986 73.5701 160.839 74.0833C160.504 75.2528 160.195 76.4308 159.922 77.6159C159.898 77.7178 160.01 77.8507 160.121 77.9836L160.121 77.9837C160.173 78.0452 160.224 78.1068 160.262 78.1652C160.314 78.1204 160.374 78.0785 160.435 78.0367C160.565 77.9461 160.696 77.8556 160.738 77.7344C161.012 76.9396 161.263 76.1364 161.513 75.3333C161.6 75.0561 161.686 74.779 161.774 74.5022C162.359 72.6487 162.981 70.8122 164.368 69.365C164.454 69.2747 164.57 69.2126 164.686 69.1505C164.74 69.1217 164.794 69.0929 164.845 69.0612C164.862 69.1259 164.888 69.1927 164.914 69.2594L164.914 69.2596C164.97 69.4034 165.025 69.5472 164.996 69.6711C164.51 71.7359 164.002 73.7959 163.485 75.8534C163.409 76.1572 163.319 76.4582 163.23 76.759L163.23 76.7595C163.085 77.2443 162.941 77.7287 162.853 78.2235C162.813 78.4431 162.91 78.6868 163.006 78.9306C163.05 79.0415 163.094 79.1525 163.125 79.2611C163.211 79.2308 163.308 79.2086 163.405 79.1863C163.616 79.1378 163.827 79.0893 163.928 78.957C164.445 78.2808 164.923 77.5661 165.338 76.8225C165.582 76.3853 165.795 75.9306 166.007 75.4758L166.007 75.4756L166.007 75.4754L166.007 75.4752L166.007 75.4751L166.007 75.475L166.007 75.4748L166.007 75.4747L166.007 75.4745L166.008 75.4744L166.008 75.4743L166.008 75.4741L166.008 75.474L166.008 75.4739L166.008 75.4737L166.008 75.4736C166.184 75.0959 166.36 74.7181 166.555 74.3503C166.625 74.2179 166.774 74.1275 166.924 74.0371C166.993 73.9955 167.061 73.9539 167.122 73.9083C167.115 73.9763 167.112 74.0461 167.109 74.1158C167.103 74.2663 167.096 74.4168 167.046 74.5506L166.821 75.1457C166.284 76.5666 165.748 77.9877 165.171 79.3922C164.934 79.9698 164.668 80.5358 164.403 81.1017L164.402 81.102L164.402 81.1024C164.144 81.6527 163.886 82.2032 163.653 82.7643C163.221 83.8091 162.804 84.8606 162.387 85.9121L162.387 85.9128C161.644 87.7865 160.901 89.66 160.072 91.4946C158.897 94.0926 157.958 96.7578 157.173 99.4889C156.861 100.577 156.54 101.664 156.181 102.738C155.797 103.885 155.401 105.028 155.004 106.171C154.228 108.405 153.453 110.638 152.776 112.901C151.78 116.232 150.671 119.51 149.202 122.66C147.635 126.017 145.701 129.171 143.448 132.095C142.39 133.469 141.053 134.742 139.591 135.661C137.923 136.709 136.134 137.677 134.134 138.079C132.804 138.346 131.464 138.502 130.244 137.799C128 136.505 126.323 134.575 124.842 132.509C123.727 130.951 122.671 129.35 121.616 127.749C121.009 126.828 120.402 125.907 119.783 124.994C119.682 124.845 119.506 124.747 119.33 124.649C119.249 124.603 119.167 124.558 119.093 124.507C119.089 124.592 119.085 124.677 119.08 124.762C119.067 124.988 119.055 125.214 119.067 125.439C119.07 125.486 119.123 125.528 119.179 125.572C119.223 125.606 119.268 125.641 119.294 125.682C119.737 126.392 120.181 127.102 120.625 127.812ZM113.415 174.202C113.314 174.729 113.232 175.255 113.15 175.776C112.954 177.024 112.762 178.244 112.341 179.378C111.565 181.464 109.771 182.725 107.699 183.366C105.661 183.997 103.57 184.459 101.482 184.92C101.238 184.974 100.993 185.028 100.748 185.082C100.194 185.205 99.6161 185.223 99.0388 185.241L99.0376 185.241C98.8092 185.249 98.5809 185.256 98.3542 185.269C97.2092 185.338 96.0641 185.405 94.919 185.472C93.1836 185.574 91.4481 185.676 89.7131 185.784C89.0064 185.828 88.3003 185.882 87.5943 185.936C86.7303 186.002 85.8664 186.068 85.0015 186.116L84.5806 186.14C83.2131 186.217 81.8431 186.294 80.4759 186.273C79.5225 186.259 78.57 186.143 77.619 186.027C77.3701 185.997 77.1213 185.967 76.8727 185.939C76.7724 185.927 76.6818 185.832 76.5911 185.737C76.5491 185.693 76.507 185.649 76.4641 185.613C76.4974 185.577 76.5293 185.534 76.5612 185.49C76.6307 185.395 76.7001 185.3 76.7843 185.284C76.8723 185.268 76.961 185.25 77.0501 185.232C77.4485 185.15 77.8556 185.067 78.2413 185.117C80.9086 185.461 83.5541 185.236 86.2048 184.938C87.501 184.792 88.8042 184.702 90.1063 184.613L90.4044 184.593C91.3087 184.53 92.214 184.479 93.1193 184.428L93.1197 184.428L93.1201 184.428L93.1206 184.428L93.121 184.428L93.1214 184.428L93.1218 184.428L93.1223 184.428L93.1227 184.428L93.1231 184.428L93.1235 184.428L93.124 184.427L93.1244 184.427L93.1249 184.427C94.8451 184.33 96.5651 184.233 98.2776 184.06C101.601 183.725 104.888 183.128 107.998 181.852C109.795 181.114 111.032 179.71 111.502 177.859L111.549 177.671C112.067 175.631 112.593 173.558 112.384 171.413C112.336 170.913 112.253 170.414 112.17 169.917L112.17 169.916L112.17 169.916L112.17 169.916L112.17 169.916L112.17 169.916L112.17 169.916L112.17 169.916L112.17 169.915L112.17 169.915L112.17 169.915L112.17 169.915L112.17 169.915L112.17 169.915C112.043 169.15 111.917 168.387 111.914 167.623C111.909 166.617 111.983 165.611 112.057 164.605C112.122 163.729 112.186 162.852 112.199 161.975C112.211 161.193 112.108 160.409 112.006 159.625C111.962 159.292 111.919 158.958 111.884 158.625C111.854 158.336 111.826 158.046 111.798 157.756C111.723 156.985 111.648 156.214 111.535 155.448C111.129 152.694 110.972 149.93 111.018 147.146C111.03 146.417 110.984 145.687 110.939 144.957C110.908 144.462 110.878 143.967 110.865 143.471C110.836 142.359 110.815 141.246 110.794 140.133V140.132V140.132V140.132V140.132V140.132V140.132V140.132V140.132V140.132V140.131V140.131V140.131V140.131C110.765 138.544 110.735 136.957 110.682 135.37C110.638 134.067 110.563 132.765 110.488 131.463C110.44 130.627 110.392 129.792 110.352 128.956C110.32 128.272 110.297 127.587 110.274 126.902V126.902V126.902V126.902V126.902V126.902V126.902V126.901V126.901V126.901V126.901V126.901V126.901V126.901C110.246 126.077 110.219 125.253 110.174 124.43C110.143 123.846 110.088 123.26 110.034 122.675L110.034 122.675C109.933 121.574 109.831 120.474 109.879 119.38C109.932 118.193 110.141 117.013 110.35 115.833L110.35 115.833L110.35 115.833L110.35 115.832L110.35 115.832L110.35 115.831L110.35 115.831L110.35 115.83L110.351 115.83L110.351 115.83L110.351 115.829L110.351 115.829L110.351 115.828L110.351 115.827C110.444 115.303 110.537 114.778 110.616 114.253C110.669 113.9 110.724 113.548 110.778 113.196C110.926 112.24 111.074 111.283 111.194 110.323C111.262 109.783 111.312 109.24 111.362 108.697L111.362 108.697L111.362 108.697L111.362 108.696L111.362 108.696L111.362 108.695L111.362 108.695L111.362 108.695L111.362 108.694L111.362 108.694L111.362 108.694L111.362 108.693L111.362 108.693L111.362 108.692L111.362 108.692V108.692C111.42 108.062 111.478 107.433 111.564 106.807C111.583 106.669 111.739 106.549 111.896 106.429C111.968 106.374 112.04 106.318 112.099 106.261C112.13 106.327 112.171 106.394 112.213 106.461C112.302 106.605 112.391 106.749 112.377 106.881C112.177 108.692 111.949 110.499 111.711 112.305C111.622 112.977 111.511 113.649 111.401 114.321L111.401 114.322L111.401 114.322C111.172 115.715 110.944 117.109 110.906 118.508C110.852 120.503 110.971 122.503 111.09 124.503C111.131 125.191 111.172 125.879 111.206 126.566C111.256 127.574 111.324 128.582 111.392 129.589L111.392 129.589L111.392 129.59L111.392 129.59L111.392 129.59L111.392 129.59L111.392 129.591L111.392 129.591L111.392 129.591L111.392 129.591L111.392 129.592L111.393 129.592L111.393 129.592L111.393 129.592C111.444 130.353 111.496 131.113 111.539 131.873C111.569 132.39 111.599 132.907 111.629 133.424L111.629 133.427L111.629 133.429L111.629 133.431L111.629 133.434L111.629 133.436L111.63 133.439L111.63 133.439C111.779 136.024 111.929 138.609 112.044 141.196C112.087 142.143 112.103 143.092 112.119 144.04V144.041V144.041V144.041V144.041V144.041V144.042V144.042V144.042V144.042V144.042V144.042V144.043V144.043V144.043C112.14 145.285 112.161 146.526 112.241 147.764C112.336 149.23 112.496 150.692 112.657 152.154L112.657 152.154L112.657 152.154L112.657 152.155L112.657 152.155L112.657 152.155L112.657 152.155L112.657 152.156L112.657 152.156L112.657 152.156L112.657 152.156L112.657 152.157L112.657 152.157L112.657 152.157L112.657 152.158C112.742 152.926 112.826 153.695 112.901 154.463C113.029 155.777 113.146 157.092 113.24 158.408C113.254 158.612 113.27 158.815 113.285 159.019L113.285 159.019L113.285 159.019C113.355 159.927 113.425 160.836 113.399 161.742C113.373 162.67 113.316 163.596 113.259 164.523L113.259 164.524L113.259 164.524L113.259 164.525L113.259 164.525L113.259 164.526L113.259 164.526L113.259 164.527L113.259 164.527L113.259 164.528L113.259 164.529L113.259 164.529L113.259 164.53L113.259 164.53C113.184 165.749 113.11 166.967 113.104 168.185C113.102 168.813 113.218 169.44 113.335 170.068C113.427 170.562 113.519 171.058 113.553 171.555C113.592 172.126 113.54 172.703 113.485 173.306C113.459 173.598 113.432 173.896 113.415 174.202ZM50.8014 177.315C51.5164 180.348 53.4757 182.596 55.9881 184.462L56.197 184.545C57.2924 184.984 58.3461 185.406 59.4212 185.763C59.6272 185.832 59.8683 185.794 60.1094 185.757C60.22 185.74 60.3307 185.723 60.438 185.716C60.376 185.651 60.3143 185.585 60.2526 185.519L60.2525 185.519C60.0717 185.326 59.8909 185.133 59.7008 184.95C59.6763 184.927 59.6291 184.93 59.5794 184.934C59.5367 184.937 59.492 184.94 59.4582 184.927C59.1773 184.814 58.8827 184.718 58.588 184.622L58.5878 184.621C57.9131 184.401 57.2378 184.18 56.7249 183.761C55.4738 182.739 54.3328 181.537 53.3349 180.263C52.3488 179.003 51.846 177.49 51.9389 175.83C51.9725 175.229 51.9905 174.627 52.0085 174.026C52.0339 173.175 52.0594 172.325 52.1288 171.478C52.1816 170.835 52.2818 170.195 52.382 169.555C52.4705 168.991 52.5589 168.427 52.6148 167.859C52.7372 166.618 52.8135 165.371 52.8898 164.125C52.9081 163.827 52.9263 163.53 52.9452 163.232C52.9524 163.119 52.8781 162.961 52.7891 162.893C52.7157 162.838 52.5085 162.836 52.4572 162.895C52.4214 162.936 52.3829 162.978 52.3437 163.021C52.1726 163.206 51.9894 163.405 51.9636 163.616C51.8559 164.496 51.781 165.38 51.7061 166.264L51.706 166.264C51.672 166.667 51.6379 167.069 51.6007 167.471C51.5895 167.592 51.5645 167.711 51.5395 167.831C51.5204 167.921 51.5014 168.012 51.4884 168.104C51.4161 168.613 51.3381 169.122 51.26 169.631C51.0713 170.862 50.8826 172.093 50.7748 173.331C50.7666 173.425 50.7582 173.52 50.7497 173.615C50.6397 174.852 50.5249 176.143 50.8014 177.315ZM95.067 92.6815C95.5283 92.3603 95.9929 92.0466 96.456 91.7339C98.3014 90.4881 100.123 89.258 101.617 87.6282C102.404 86.7689 103.102 85.8279 103.8 84.8869L103.8 84.8867L103.8 84.8865L103.8 84.8863L103.801 84.8861L103.801 84.886L103.801 84.8858L103.801 84.8856L103.801 84.8854L103.801 84.8852L103.801 84.885L103.801 84.8849C104.108 84.4712 104.415 84.0576 104.729 83.6509C104.764 83.6057 104.794 83.5521 104.824 83.4989C104.877 83.4027 104.93 83.3079 105.011 83.267C105.175 83.1844 105.357 83.1384 105.54 83.0925C105.616 83.0734 105.692 83.0542 105.766 83.0324C105.742 83.1075 105.723 83.1866 105.705 83.2656C105.664 83.4363 105.623 83.607 105.528 83.7379C105.333 84.0062 105.139 84.2755 104.944 84.5449L104.942 84.5473C104.156 85.6373 103.369 86.7281 102.512 87.76C101.739 88.6905 100.887 89.5905 99.9349 90.329C98.2819 91.6109 96.5832 92.8558 94.7938 93.9339C92.8365 95.1132 90.7822 96.1435 88.7155 97.1238C87.6913 97.6096 86.5749 97.5464 85.5607 96.8858C82.4949 94.8886 79.5056 92.7917 76.9573 90.1393C76.2522 89.4055 75.6008 88.6149 74.9845 87.805C74.8846 87.6738 74.8978 87.4566 74.911 87.2394C74.9171 87.1395 74.9232 87.0395 74.9182 86.948C75.0096 86.9651 75.1115 86.9723 75.2133 86.9795L75.2135 86.9795C75.4352 86.9951 75.6569 87.0107 75.7714 87.1296C76.08 87.45 76.3626 87.7962 76.645 88.1423L76.6451 88.1424C76.9725 88.5436 77.2997 88.9446 77.6672 89.305C78.6154 90.2348 79.6128 91.1232 80.6543 91.947C81.9033 92.9349 83.1878 93.8781 84.4721 94.821L84.4723 94.8211C84.7575 95.0305 85.0426 95.2399 85.3274 95.4498C85.5155 95.5884 85.7182 95.7074 85.9207 95.8264C86.1316 95.9503 86.3424 96.0742 86.5368 96.2201C87.3477 96.8286 88.0463 96.4298 88.6869 96.0642L88.687 96.0641L88.6871 96.0641C88.846 95.9733 89.0014 95.8846 89.154 95.8139C90.673 95.1099 92.1414 94.2969 93.6315 93.4719L93.6321 93.4715L93.6328 93.4712L93.6334 93.4708L93.6361 93.4693L93.6395 93.4674C94.1124 93.2056 94.5875 92.9426 95.067 92.6815ZM160.532 84.0923C160.783 83.7837 161.039 83.4694 161.306 83.1459C161.487 83.1257 161.659 83.1234 161.826 83.1211H161.826C162.011 83.1187 162.188 83.1163 162.361 83.0901C162.507 83.068 162.644 82.9847 162.781 82.9014C162.842 82.864 162.904 82.8267 162.966 82.7949C162.916 82.7376 162.871 82.6711 162.825 82.6046C162.726 82.4608 162.626 82.317 162.492 82.267C161.227 81.7952 158.993 83.5308 159.06 84.9259C159.067 85.0563 159.142 85.1834 159.217 85.3105C159.252 85.3693 159.287 85.4281 159.315 85.4872C159.359 85.4441 159.403 85.402 159.448 85.36L159.448 85.3598C159.546 85.2683 159.644 85.1768 159.728 85.0745C159.996 84.7505 160.261 84.4247 160.532 84.0923ZM97.1104 60.6691C97.5195 60.766 97.886 60.9055 98.2525 61.045L98.2526 61.0451C98.1972 61.138 98.147 61.2363 98.0969 61.3346L98.0969 61.3346C97.9887 61.5466 97.8805 61.7586 97.7193 61.9165C95.7433 63.8514 93.3367 64.9817 90.659 65.5433C90.3346 65.6114 89.9731 65.5222 89.6197 65.4351C89.5128 65.4087 89.4066 65.3825 89.3024 65.361C89.2056 65.3409 89.06 65.0777 89.0776 65.059C89.1155 65.0187 89.154 64.9743 89.1932 64.929C89.3368 64.7633 89.49 64.5865 89.6615 64.5608C92.3454 64.159 94.5961 62.9262 96.541 61.0747C96.633 60.9872 96.7412 60.9169 96.8607 60.8392C96.9395 60.788 97.0233 60.7337 97.1104 60.6691ZM156.998 85.4768C157.399 84.4794 157.075 83.5337 156.708 82.5499C156.61 82.4376 156.516 82.3279 156.423 82.2205C156.157 81.9116 155.907 81.6214 155.645 81.3423C155.628 81.3242 155.31 81.5312 155.32 81.5542C155.452 81.8668 155.608 82.1707 155.776 82.4664C156.291 83.374 156.358 84.36 156.339 85.3737C156.337 85.515 156.421 85.6578 156.505 85.8007C156.543 85.8665 156.582 85.9324 156.612 85.9981C156.654 85.9435 156.7 85.8908 156.746 85.8381C156.845 85.7238 156.945 85.6096 156.998 85.4768ZM84.6409 27.3573L84.641 27.3573C85.452 27.7737 86.2461 28.1814 87.0888 28.3624L87.2203 28.3907C88.4811 28.6627 89.8379 28.9554 91.1052 28.2673C91.5493 28.0261 91.9668 27.7292 92.3715 27.4245C92.6184 27.2387 92.8405 27.0081 93.0346 26.7662C94.575 24.8459 95.7117 25.1326 97.8328 26.3864C100.546 27.9905 101.535 30.7283 102.49 33.4522C102.968 34.813 103.268 36.2401 103.566 37.6596C103.606 37.8503 103.646 38.0408 103.687 38.231C103.884 39.1585 103.967 40.1148 104.041 41.0628C104.128 42.1875 104.169 43.3161 104.21 44.4438L104.217 44.6508C104.24 45.2679 104.251 45.8858 104.263 46.5036V46.5038V46.5039V46.5041V46.5042V46.5044V46.5046V46.5047V46.5049C104.286 47.7087 104.309 48.9123 104.411 50.1094C104.566 51.9406 104.274 53.7057 103.865 55.4565C103.394 57.4728 101.862 58.4449 100.004 58.8979C99.2218 59.0887 98.405 59.1438 97.59 59.1988L97.5898 59.1989C97.3084 59.2179 97.0271 59.2368 96.7476 59.2614C93.8715 59.514 91.0134 59.87 88.2346 60.6938C87.3728 60.9493 86.5494 60.8317 85.8268 60.3513C84.3681 59.3816 82.7202 59.027 81.0399 58.7553C77.9061 58.2486 74.9311 57.3937 72.6345 55.01C72.0283 54.3809 71.6394 53.7074 71.6784 52.7597C71.7477 51.0791 71.5051 49.4251 71.2628 47.7729C71.1244 46.8292 70.9861 45.8861 70.906 44.939C70.6639 42.0754 70.77 39.1985 71.6455 36.3464C72.622 33.1654 74.1115 30.3553 76.4749 28.0615C77.124 27.4314 77.9083 26.9414 78.6933 26.451L78.6933 26.451C79.0764 26.2117 79.4595 25.9723 79.8272 25.7165L79.8891 25.6735C80.2913 25.3939 80.6975 25.1116 81.0519 24.7777C81.5917 24.2693 81.9193 24.5378 82.2563 25.0052C82.6587 25.5633 83.0772 26.1098 83.5229 26.6918L83.6584 26.8688C83.9914 27.0238 84.3175 27.1912 84.6409 27.3573ZM101.069 32.0197C101.024 31.9123 100.979 31.8051 100.934 31.6979C100.836 31.467 100.738 31.2362 100.644 31.0038C99.7479 28.7906 98.1641 27.2375 95.9954 26.3034C95.6585 26.1583 95.0722 26.2426 94.7685 26.4573C94.5156 26.6359 94.338 26.9167 94.1589 27.1999C94.0576 27.3601 93.9558 27.521 93.8397 27.6646C92.8021 28.9477 91.5855 29.9508 89.8098 29.7926C88.7111 29.6948 87.6009 29.5537 86.5371 29.2749C84.8695 28.8379 83.3512 28.0535 82.2725 26.6552L82.1673 26.5185C81.4586 25.5959 81.4498 25.5845 80.4838 26.2329C80.1654 26.4466 79.8381 26.6513 79.5105 26.8562L79.5104 26.8563L79.5103 26.8563C78.6939 27.367 77.8764 27.8783 77.1945 28.5301C74.8887 30.7342 73.3744 33.3837 72.4658 36.5199C71.6469 39.3464 71.5975 42.149 71.7318 44.9831C71.8408 47.2846 72.2072 49.5803 72.5729 51.8603L72.5969 52.0112C72.757 53.0212 72.9216 54.0599 73.8031 54.8416C75.4728 56.3224 77.4513 57.1191 79.5785 57.543C79.8671 57.6006 80.1559 57.656 80.4445 57.7114C82.4731 58.1007 84.4893 58.4876 86.3164 59.579C86.7428 59.8336 87.3879 59.8898 87.8966 59.8102C89.0411 59.6311 90.181 59.4224 91.3209 59.2138L91.3211 59.2138L91.3213 59.2137L91.3215 59.2137L91.3217 59.2137L91.3219 59.2136L91.3221 59.2136L91.3223 59.2136L91.3225 59.2135C92.504 58.9973 93.6855 58.781 94.8721 58.5976C95.5448 58.4937 96.2264 58.4376 96.9074 58.3816C97.8372 58.3051 98.7658 58.2287 99.6691 58.0307C100.913 57.7579 102.312 57.336 102.715 55.8802C103.107 54.4653 103.446 52.9941 103.499 51.5362C103.574 49.5211 103.489 47.4986 103.404 45.4789V45.4788V45.4787V45.4786V45.4785V45.4784V45.4783V45.4782V45.4782V45.4781V45.4781V45.4781V45.478V45.478V45.4779C103.388 45.1106 103.373 44.7434 103.358 44.3764C103.329 43.6283 103.266 42.8815 103.203 42.1347L103.203 42.1345C103.134 41.3124 103.064 40.4904 103.04 39.6669C102.963 37.1008 102.086 34.7482 101.175 32.3037L101.175 32.3037L101.069 32.0197ZM99.3334 40.5116C97.8918 39.3854 96.2013 39.1547 94.3434 39.3417C94.1709 39.3725 94.0243 39.407 93.8887 39.4389L93.8886 39.4389C93.7748 39.4656 93.6688 39.4906 93.5619 39.51C91.8061 39.8292 90.3009 40.5459 89.2667 42.0869C89.1582 42.2485 88.7527 42.3305 88.5289 42.2744C87.5422 42.0271 86.6264 42.0062 85.86 42.804C85.7651 42.9028 85.6769 43.008 85.5887 43.1133L85.5886 43.1134L85.5882 43.1139C85.5478 43.1621 85.5073 43.2104 85.4662 43.2581C85.4506 43.1875 85.4292 43.1164 85.4077 43.0454C85.3613 42.892 85.315 42.7387 85.3279 42.5905C85.4811 40.8276 84.6367 39.7299 83.0991 38.9887C81.6599 38.295 80.1484 38.147 78.5939 38.1489C76.226 38.1518 74.2093 39.6851 73.3769 41.9275C72.8686 43.2968 73.0065 44.6283 73.4448 45.8932C73.8727 47.1278 74.3591 48.4476 75.6308 49.1322C75.7918 49.2188 75.9538 49.3098 76.1169 49.4013C76.8638 49.8203 77.6328 50.2517 78.4278 50.3468L78.5037 50.3559L78.6428 50.3729C79.8223 50.5175 81.0872 50.6725 82.2014 49.8765C83.8854 48.6732 84.804 46.9725 85.2915 45.0425C85.5216 44.1317 85.9863 43.5837 86.7984 43.2197C88.0205 42.6718 88.7871 43.1536 88.9147 44.4192C89.0639 45.8995 89.3897 47.3557 90.2572 48.6238C91.2735 50.1095 92.6538 51.0129 94.3577 51.6413C96.4112 52.3985 97.8868 51.9371 99.3757 50.7331C102.143 48.4956 102.418 42.9216 99.3334 40.5116ZM92.9069 40.5787C94.0676 40.2325 95.3275 40.1206 96.557 40.4484C97.9531 40.5535 98.8699 41.3406 99.5464 42.2966C100.225 43.2562 100.841 44.3441 100.798 45.5879C100.751 46.9221 100.25 48.1234 99.4112 49.173C98.6918 50.0737 97.7548 50.6493 96.6431 50.8961C96.4101 50.9479 96.148 50.8804 95.8896 50.8139C95.7972 50.7902 95.7052 50.7665 95.6153 50.7485C92.6566 50.1553 90.6761 48.5352 90.0868 45.4629C90.0492 45.267 90.0015 45.0726 89.9539 44.8788C89.7628 44.0998 89.5737 43.3295 90.0516 42.4972C90.7056 41.3583 91.8146 40.9045 92.9069 40.5787ZM84.2945 42.5854C84.4789 44.1508 83.9723 45.5584 83.2752 46.919C83.1352 47.1052 83.0148 47.2824 82.9011 47.4498L82.9011 47.4498L82.901 47.4498L82.901 47.4499L82.901 47.4499L82.901 47.4499L82.9009 47.45L82.9009 47.45C82.7344 47.6951 82.5822 47.9191 82.4034 48.1194C81.4188 49.2224 80.2418 49.569 78.7484 49.2538C77.7016 49.0329 76.7703 48.762 75.9 48.0961C74.8515 47.2939 74.4018 46.1868 74.1009 45.0219C73.6216 43.1658 74.2746 41.6079 75.6051 40.2752C76.6793 39.1991 78.038 39.0653 79.3953 39.2017C80.7021 39.333 81.978 39.6572 83.131 40.4304C83.9575 40.9847 84.1925 41.7192 84.2945 42.5854ZM83.9564 36.1064C84.8227 36.1551 85.542 36.0636 86.1978 35.5341C86.3179 35.437 86.5699 35.5034 86.822 35.5698C86.9377 35.6002 87.0534 35.6307 87.1563 35.6454C87.1079 35.7012 87.0611 35.7589 87.0143 35.8165L87.0143 35.8166L87.0142 35.8167L87.0141 35.8168L87.014 35.8169L87.014 35.8169C86.9126 35.9419 86.8112 36.0668 86.6932 36.1735C85.5959 37.1653 84.3882 37.0961 83.0524 36.6828C81.8849 36.3216 80.6587 36.0429 79.4436 35.9674C77.6188 35.8541 76.0582 36.5641 74.8378 37.9712C74.7324 38.0927 74.5693 38.1641 74.4061 38.2355C74.3306 38.2686 74.255 38.3017 74.1851 38.3398C74.2074 38.2413 74.2199 38.1345 74.2324 38.0278C74.2594 37.7979 74.2864 37.568 74.411 37.4207C76.4473 35.0132 79.099 34.9136 81.9063 35.5141C82.2996 35.5982 82.685 35.7195 83.0867 35.846L83.0869 35.846C83.3661 35.9339 83.6532 36.0243 83.9564 36.1064ZM97.3961 36.7155C95.7374 36.4611 94.0864 36.4898 92.598 37.5963C92.3807 37.7569 92.1663 37.9107 91.9556 38.0618C91.5333 38.3646 91.1255 38.6571 90.7375 38.9737C90.65 39.0452 90.6365 39.2073 90.6231 39.3695C90.6169 39.4442 90.6107 39.5189 90.5972 39.5847C90.6554 39.5771 90.7165 39.5746 90.7777 39.5721H90.7777C90.913 39.5666 91.0482 39.561 91.1518 39.501C91.4487 39.3289 91.7185 39.1058 91.9847 38.8855L91.9973 38.8751C93.6488 37.5092 95.484 36.9578 97.5989 37.5698C98.334 37.7825 99.0756 37.9784 99.8242 38.1344C99.9456 38.1597 100.086 38.0951 100.226 38.0306C100.29 38.0009 100.355 37.9712 100.417 37.9502C100.37 37.8996 100.325 37.8407 100.28 37.7819C100.183 37.6541 100.086 37.5263 99.9599 37.4828C99.7997 37.4276 99.6395 37.3706 99.479 37.3135L99.4787 37.3134L99.4784 37.3133L99.4781 37.3132L99.4779 37.3131C98.7932 37.0693 98.104 36.824 97.3961 36.7155ZM88.4262 54.5391C87.428 54.61 86.4715 54.6682 85.5174 54.6409C85.391 54.6373 85.2691 54.4771 85.1472 54.317C85.0909 54.2431 85.0347 54.1692 84.978 54.1107C85.0514 54.0797 85.1244 54.0414 85.1974 54.0031L85.1975 54.0031C85.3566 53.9196 85.5157 53.8361 85.6783 53.8287C86.5569 53.7887 87.4381 53.7917 88.3181 53.8015C88.5281 53.8038 88.7379 53.8375 88.9476 53.8712L88.9477 53.8712C89.0435 53.8866 89.1392 53.902 89.235 53.9144C88.9796 54.1085 88.7242 54.3025 88.4262 54.5391ZM93.7037 42.2801C93.0975 42.9537 93.1636 44.3721 93.8751 45.0886C95.3175 45.1312 96.1829 43.6848 95.5112 42.4677C95.1383 41.792 94.2279 41.6975 93.7037 42.2801ZM80.8913 41.385C81.195 42.2819 80.9964 43.2107 80.3194 43.7112C80.1226 43.8567 79.6239 43.9021 79.485 43.7665C78.7024 43.0026 78.5712 41.7098 79.6911 41.0387C80.2012 40.733 80.565 40.8747 80.8913 41.385ZM136.067 37.2844C136.507 37.9455 136.95 38.6112 137.551 39.1809C137.59 40.4722 137.602 41.6765 137.271 42.8539C137.211 43.0651 137.255 43.2638 137.3 43.4646C137.336 43.6282 137.572 43.746 137.71 43.6676C137.888 43.5661 138.064 43.4584 138.232 43.34C138.344 43.2604 138.456 43.1797 138.568 43.099C139.042 42.7566 139.516 42.4142 140.047 42.1567C140.111 42.1254 140.176 42.0944 140.241 42.0634C140.487 41.9454 140.733 41.8274 140.968 41.6896C141.227 41.537 141.479 41.5155 141.758 41.6105C142.717 41.9379 143.707 42.1407 144.697 42.3435C144.855 42.3759 145.013 42.4082 145.171 42.4411C145.218 42.451 145.265 42.4616 145.313 42.4722C145.433 42.4993 145.554 42.5264 145.676 42.5416C146.07 42.5908 146.465 42.6288 146.86 42.6668C147.493 42.7278 148.125 42.7887 148.753 42.8952C148.887 42.9183 149.03 42.9281 149.165 42.9102C149.483 42.8679 149.804 42.8393 150.125 42.8107C150.765 42.7535 151.405 42.6964 152.03 42.5299C152.458 42.416 152.882 42.2885 153.307 42.1609C153.476 42.11 153.645 42.0591 153.815 42.009C153.894 41.9858 153.972 41.9627 154.051 41.9395C154.5 41.807 154.95 41.6745 155.398 41.538C155.529 41.4983 155.658 41.4495 155.78 41.3883C155.886 41.3353 155.992 41.2827 156.097 41.23C156.976 40.7925 157.853 40.3556 158.649 39.7633C158.749 39.6886 158.851 39.6162 158.952 39.5437C159.27 39.3171 159.587 39.0912 159.858 38.8035C160.023 38.6293 160.206 38.4718 160.388 38.3153L160.39 38.3132C160.918 37.8601 161.342 37.3181 161.733 36.7494C162.223 36.0379 162.422 35.2152 162.622 34.3934L162.633 34.3461C162.61 34.054 162.666 33.7725 162.722 33.4909C162.746 33.368 162.771 33.2451 162.789 33.1213C163.039 31.3928 162.816 29.758 161.786 28.2897C161.66 28.1105 161.556 27.9158 161.452 27.7212C161.409 27.6417 161.367 27.5623 161.323 27.4839C161.069 27.031 160.786 26.6003 160.415 26.2326C159.605 25.4297 158.75 24.6906 157.742 24.1339C157.026 23.7388 156.28 23.4168 155.533 23.0942C155.364 23.0213 155.195 22.9484 155.027 22.8746C153.717 22.3013 152.352 21.9825 150.941 21.839C150.506 21.7949 150.069 21.7721 149.632 21.7493C149.415 21.738 149.198 21.7267 148.981 21.7128C147.776 21.635 146.569 21.6084 145.364 21.7047C144.335 21.7868 143.306 21.8848 142.278 21.9828C142.073 22.0024 141.867 22.0219 141.662 22.0414C141.562 22.0508 141.461 22.0899 141.369 22.1334C140.887 22.3627 140.389 22.5542 139.891 22.7457C139.619 22.8501 139.348 22.9546 139.079 23.0652C137.908 23.5467 136.902 24.2377 136.189 25.311C136.086 25.4662 135.973 25.6146 135.86 25.7631C135.764 25.8887 135.669 26.0144 135.579 26.1442C134.929 27.0853 134.375 28.075 134.147 29.2114C134.103 29.4343 134.076 29.6608 134.05 29.8873C134.032 30.0371 134.015 30.1869 133.992 30.3357C133.877 31.0879 133.87 31.8271 134.022 32.5854C134.282 33.8842 134.817 35.072 135.364 36.2601C135.378 36.291 135.398 36.3199 135.419 36.3476C135.645 36.6514 135.856 36.9673 136.067 37.2844ZM138.186 42.1482C138.181 42.1487 138.176 42.1493 138.17 42.1499C138.167 42.1561 138.175 42.1649 138.195 42.1759C138.192 42.1667 138.189 42.1575 138.186 42.1482ZM138.271 42.1452C138.243 42.1455 138.214 42.1458 138.186 42.1482C138.129 41.9523 138.16 41.7542 138.215 41.5659C138.35 41.1053 138.409 40.6324 138.468 40.1596C138.503 39.8804 138.537 39.6013 138.588 39.3247C138.619 39.1507 138.58 38.973 138.395 38.8875C137.808 38.6161 137.424 38.1236 137.057 37.6261C136.751 37.2113 136.46 36.778 136.222 36.3216C136.001 35.897 135.837 35.4383 135.687 34.9818C135.493 34.3933 135.326 33.7953 135.17 33.1954C135.03 32.6586 135.017 32.1046 135.022 31.5525C135.023 31.4327 135.031 31.3129 135.039 31.193C135.049 31.0371 135.06 30.8813 135.055 30.7258C134.999 29.0295 135.681 27.5782 136.552 26.1907C137.099 25.3188 137.884 24.6818 138.78 24.2302C139.823 23.7048 140.906 23.2441 142.059 22.9982C143.137 22.7682 144.222 22.5775 145.329 22.5404C145.738 22.5268 146.143 22.5047 146.548 22.3654C146.827 22.2693 147.147 22.2718 147.455 22.2743C147.493 22.2746 147.531 22.2749 147.569 22.275C147.982 22.2763 148.396 22.3039 148.807 22.3495C148.843 22.3534 148.879 22.3574 148.914 22.3614C149.324 22.4072 149.731 22.4527 150.145 22.4581C150.42 22.4619 150.697 22.5221 150.969 22.5815C151 22.5882 151.031 22.595 151.062 22.6016C151.785 22.7573 152.486 22.9858 153.187 23.2143C153.632 23.3593 154.076 23.5042 154.527 23.6306C154.784 23.7565 155.042 23.8819 155.3 24.0073C155.878 24.2878 156.455 24.5684 157.029 24.8549C158.15 25.4132 159.04 26.2672 159.93 27.1202L160.024 27.2106C160.638 27.7978 161.002 28.5474 161.273 29.3295C161.531 30.0761 161.711 30.8472 161.765 31.6468C161.856 32.9794 161.627 34.2469 161.154 35.4916C160.662 36.7881 159.868 37.8646 158.772 38.674C157.356 39.7197 155.814 40.5662 154.131 41.1206C153.414 41.3571 152.696 41.5929 151.952 41.7484C150.829 41.9827 149.695 42.0025 148.557 42.0146C148.511 42.015 148.464 42.0128 148.418 42.0106C148.361 42.0079 148.304 42.0053 148.247 42.0074C146.181 42.0845 144.218 41.576 142.278 40.9452C142.092 40.8849 141.905 40.8312 141.717 40.7775C141.607 40.746 141.497 40.7145 141.388 40.6817C141.175 40.6179 140.976 40.6537 140.797 40.7747C140.45 41.0084 140.078 41.1989 139.706 41.3894C139.281 41.6073 138.856 41.8252 138.467 42.1079C138.419 42.1434 138.345 42.1443 138.271 42.1452Z" fill="#00160A"/>
<path fill-rule="evenodd" clip-rule="evenodd" d="M113.593 96.7381L113.594 96.7378C113.743 96.6072 113.894 96.474 114.053 96.342C114.159 96.2032 114.266 96.0709 114.372 95.9413L114.372 95.9411L114.372 95.9411C114.628 95.6261 114.871 95.3273 115.041 94.9916C115.463 94.159 115.239 93.8591 114.349 93.4597C113.944 93.2776 113.571 93.0233 113.198 92.7685C112.954 92.6017 112.71 92.4347 112.455 92.2875L112.398 92.2543C112.054 92.0547 111.678 91.837 111.304 91.8061C109.343 91.6442 107.662 94.2316 108.443 96.1056C109.251 98.0428 110.86 98.629 112.545 97.5664C112.914 97.3338 113.246 97.0427 113.593 96.7381ZM109.154 95.3171C109.102 94.6638 109.192 94.0657 109.668 93.575C109.791 93.481 109.895 93.4129 109.987 93.3532C110.075 93.2954 110.152 93.2454 110.222 93.1873C111.046 92.5001 111.576 92.5451 112.397 93.2119C112.881 93.6057 113.46 93.9117 114.039 94.1529C114.484 94.3382 114.53 94.5912 114.256 94.8543C114.082 95.0217 113.909 95.1941 113.736 95.3668L113.736 95.3669L113.736 95.367C113.128 95.9755 112.514 96.589 111.793 97.0085C110.694 97.6471 109.26 96.6285 109.154 95.3171ZM59.2659 96.5549L59.3918 96.4431C60.0975 95.8167 60.7745 95.2157 61.5316 94.7432C62.3723 94.2184 63.328 94.4433 64.0674 95.1351C65.2044 96.1987 65.9586 96.075 66.7004 95.1674C66.7718 95.08 66.8505 94.9933 66.9413 94.9279C67.04 94.857 67.1377 94.7788 67.2361 94.7001C67.6767 94.3476 68.1297 93.9852 68.7349 94.2178C69.4811 94.5046 69.781 95.1823 70.0165 95.9543C70.553 97.7127 69.4623 99.2062 68.0963 99.9849C66.527 100.88 64.8365 101.229 63.1023 101.488C61.8565 101.675 59.456 100.592 58.916 99.71C58.219 98.5719 58.6442 97.605 59.2659 96.5549ZM66.8064 99.5966L66.8069 99.5964C68.0909 98.9614 69.3675 98.3301 69.1515 96.4836C69.1401 96.386 69.1347 96.2839 69.1292 96.1815C69.1045 95.7174 69.0796 95.2494 68.4979 95.1899C68.1278 95.1521 67.6395 95.4623 67.333 95.7514C66.0629 96.9495 65.0095 97.063 63.6778 95.8073C63.2716 95.4243 62.8166 95.0271 62.0442 95.3326C60.6996 95.8646 60.1016 96.9724 59.6427 98.1563C59.4334 98.6963 59.4875 99.4546 60.2967 99.7094C60.5369 99.785 60.7782 99.8755 61.0199 99.9662C61.6375 100.198 62.2581 100.431 62.872 100.419C63.8427 100.401 64.8092 100.155 65.8198 99.8972L65.8199 99.8972L65.82 99.8972L65.82 99.8972L65.82 99.8972L65.8201 99.8972L65.8201 99.8972L65.8201 99.8972L65.8202 99.8971L65.8202 99.8971L65.8202 99.8971L65.8203 99.8971L65.8203 99.8971L65.8203 99.8971C66.0732 99.8326 66.3288 99.7675 66.5879 99.705C66.6603 99.6689 66.7329 99.6329 66.8055 99.597L66.8057 99.5969L66.806 99.5968L66.8062 99.5967L66.8064 99.5966ZM95.1522 143.169C95.1183 143.238 95.0847 143.307 95.0511 143.376C94.4987 144.514 93.9647 145.614 92.7236 146.098C91.4312 146.603 89.3442 146.769 88.3289 145.478C87.7273 144.714 87.6875 143.699 88.3618 142.973C88.5751 142.744 88.8015 142.521 89.0282 142.298L89.0282 142.298C89.6026 141.732 90.1784 141.165 90.5465 140.487C90.8986 139.838 91.0559 139.085 91.2132 138.33C91.2858 137.983 91.3584 137.635 91.4501 137.297C91.7418 136.222 92.0476 135.133 93.1031 134.537C93.8636 134.107 94.4689 134.386 95.0372 135.079C96.069 136.336 95.9705 137.758 95.873 139.165C95.8477 139.529 95.8225 139.893 95.817 140.253C95.8064 140.953 95.5972 141.651 95.383 142.365L95.383 142.365C95.3034 142.63 95.2232 142.898 95.1522 143.169ZM92.6405 137.677C92.623 137.785 92.606 137.893 92.589 138.001C92.4063 139.158 92.2221 140.326 91.4364 141.259C90.8409 141.966 90.1682 142.62 89.4612 143.217C88.7938 143.78 88.6788 144.444 89.2796 145.044C90.3373 146.1 92.902 145.62 93.6493 144.174C94.0932 143.316 94.4702 142.411 94.7686 141.491C95.3209 139.79 94.9787 138.126 94.3514 136.512C94.2564 136.268 93.9893 135.948 93.7812 135.932C93.5855 135.917 93.313 136.225 93.1631 136.45C92.9469 136.774 92.8108 137.152 92.6405 137.677ZM92.7552 102.146C91.9745 101.585 91.2322 101.576 90.4308 101.76C89.1189 102.06 87.7009 103.589 87.7009 105.153C87.7009 106.728 88.4016 107.881 89.6934 108.624C90.9402 109.341 92.2524 109.841 93.7989 109.7C95.6097 109.535 96.9784 108.825 97.7188 107.17C97.873 106.826 97.8585 106.406 97.844 105.986V105.985C97.8373 105.793 97.8307 105.601 97.8403 105.416C97.6811 105.416 97.5171 105.404 97.3531 105.392C96.9841 105.365 96.6151 105.338 96.3009 105.456C95.7156 105.677 95.4029 105.474 95.2062 105.038C94.6627 103.831 93.8395 102.925 92.7552 102.146ZM90.0049 103.041C90.7591 102.686 92.1492 102.29 92.974 103.041C93.7989 103.792 94.1114 104.495 94.3186 104.976C94.8188 106.137 95.5221 106.519 96.7098 106.199C96.8218 106.169 96.942 106.169 97.0621 106.169C97.1177 106.169 97.1734 106.169 97.2282 106.166C97.2113 106.221 97.1962 106.276 97.181 106.332C97.1484 106.452 97.1159 106.572 97.0663 106.684C95.8927 109.342 92.121 108.946 90.3578 107.824C89.2822 107.139 88.671 106.247 88.7229 104.945C88.7589 104.044 89.2286 103.406 90.0049 103.041ZM97.7063 124.097C97.5057 124.267 97.3157 124.447 97.1285 124.624L97.1285 124.624C96.7059 125.024 96.2976 125.41 95.8147 125.638C94.7596 126.136 93.6334 125.88 92.6071 125.375C90.8748 124.523 89.8063 123.228 89.9134 121.178C89.9896 119.717 90.8619 118.865 92.0402 118.162C93.0336 117.57 94.0037 117.445 95.0425 117.946C95.819 118.319 96.0327 119.044 96.2438 119.759L96.2439 119.759C96.2861 119.902 96.3283 120.045 96.3749 120.184C96.4354 120.366 96.4518 120.563 96.4682 120.759C96.486 120.973 96.5037 121.186 96.5782 121.378C96.6861 121.656 96.948 122.001 97.2087 122.073C98.4929 122.429 98.6206 122.744 97.8121 123.827C97.7903 123.856 97.7796 123.893 97.7666 123.938C97.7534 123.984 97.738 124.037 97.7063 124.097ZM96.0461 124.225C96.083 124.206 96.1215 124.189 96.1599 124.172C96.2428 124.135 96.3256 124.098 96.3934 124.043C97.2046 123.38 97.2021 123.378 96.422 122.702L96.3811 122.666C96.1528 122.468 95.968 122.155 95.8899 121.862C95.8093 121.558 95.7537 121.246 95.6983 120.934C95.6086 120.429 95.5191 119.926 95.3235 119.466C95.1499 119.058 94.5888 118.644 94.1409 118.56C93.2252 118.387 91.2055 120.02 91.1244 120.953C91.0152 122.211 91.3929 123.282 92.5604 123.987C93.6562 124.648 94.7481 125.029 96.0461 124.225ZM49.295 108.339C51.1726 107.133 52.3745 105.533 52.625 103.196C52.625 102.988 52.6321 102.789 52.6389 102.595C52.6536 102.179 52.6673 101.791 52.6086 101.414C52.4812 100.596 52.2117 99.8007 51.083 99.9835C50.5308 100.073 49.9635 100.327 49.4987 100.645C48.5373 101.305 48.2127 102.396 47.904 103.434L47.8763 103.527C47.4192 105.061 46.7096 106.14 44.8919 106.139C44.575 106.139 44.0598 106.734 43.9789 107.125C43.7586 108.19 44.8209 109.283 45.9629 109.327C47.1865 109.373 48.2586 109.004 49.295 108.339ZM46.8753 108.406C46.7763 108.428 46.6774 108.449 46.5801 108.474C45.7579 108.566 45.3659 108.136 44.9878 107.721L44.9877 107.721C44.958 107.688 44.9284 107.656 44.8987 107.624C44.8379 107.558 44.8702 107.291 44.9458 107.236L45.0008 107.196C45.2393 107.022 45.4986 106.833 45.7722 106.786C47.1551 106.551 47.9203 105.746 48.3986 104.438C48.8013 103.337 49.4069 102.291 50.0585 101.311C50.2667 100.998 50.9182 100.848 51.3484 100.88C51.5164 100.892 51.7467 101.605 51.7557 102.003C51.8263 105.148 50.0783 107.107 47.4983 108.229C47.302 108.314 47.0886 108.36 46.8753 108.406ZM50.5391 115.924C50.8745 114.909 51.6043 114.259 52.3242 113.618C52.5788 113.391 52.8322 113.166 53.0665 112.926C53.5312 112.449 54.6018 113.073 54.839 113.881C54.9381 114.219 55.0348 114.557 55.1314 114.895C55.3749 115.747 55.6184 116.6 55.901 117.439C56.1461 118.166 56.0447 118.736 55.5232 119.305C55.1283 119.737 54.7711 120.23 54.5109 120.752C53.8712 122.036 52.9299 122.356 51.5019 121.238C49.6159 119.762 49.8667 117.907 50.5391 115.924ZM55.0089 117.755L54.6909 116.959C54.3993 116.229 54.1078 115.499 53.8178 114.769C53.7583 114.619 53.7039 114.467 53.6496 114.315C53.6245 114.245 53.5995 114.176 53.574 114.106C53.5004 114.141 53.4244 114.173 53.3483 114.205C53.1834 114.274 53.0185 114.343 52.8783 114.446C51.8384 115.208 51.3466 116.343 51.1287 117.528C50.9552 118.471 50.9137 119.547 51.6632 120.328C52.0073 120.687 52.5561 120.901 53.0511 121.025C53.1268 121.044 53.2622 120.808 53.4059 120.558C53.4873 120.416 53.5714 120.27 53.6488 120.162C53.7799 119.98 53.916 119.802 54.052 119.623L54.052 119.623L54.0521 119.623L54.0521 119.623L54.0521 119.623L54.0522 119.623L54.0522 119.623L54.0522 119.623L54.0522 119.623L54.0523 119.623C54.2759 119.33 54.4994 119.036 54.7009 118.728C54.8383 118.518 54.8968 118.257 54.979 117.888L54.979 117.888L54.979 117.888L54.979 117.888L54.979 117.888L54.979 117.888L54.979 117.888L54.979 117.888L54.979 117.888L54.979 117.888L55.0089 117.755ZM74.196 112.81C72.4809 112.161 70.7724 112.553 70.6746 114.775C70.7781 115.013 70.8738 115.251 70.9681 115.485C71.2357 116.151 71.4927 116.79 71.889 117.326C73.319 119.261 75.1279 119.842 77.1395 119.037C78.4185 118.524 78.4243 117.354 77.5679 116.619C76.7631 115.929 76.0702 115.152 75.6443 114.107C75.4208 113.559 74.7732 113.028 74.196 112.81ZM75.9032 118.195C74.9785 118.364 74.0474 118.533 73.3139 117.669C72.4025 116.773 71.7727 115.863 71.6915 114.655C71.6589 114.169 71.8509 113.905 72.3054 113.725C72.9436 113.471 74.4121 113.781 74.5538 114.411C74.7544 115.304 75.2831 115.951 75.8124 116.599C76.0214 116.855 76.2305 117.111 76.4195 117.382C76.5293 117.539 76.6464 117.825 76.5765 117.941C76.491 118.082 76.2178 118.138 76.0155 118.175L75.9032 118.195ZM70.0676 134.932L70.0676 134.932C70.1141 134.458 70.1578 134.012 70.3672 133.667C70.9096 132.772 70.7829 132.002 70.3382 131.174C70.2946 131.092 70.2707 131.001 70.2468 130.909C70.2237 130.821 70.2007 130.732 70.1599 130.653C69.7984 129.95 69.968 129.261 70.5992 128.967C71.0431 128.761 71.7853 128.826 72.2334 129.068C73.6901 129.854 74.3507 131.249 74.5754 132.821C74.7716 134.195 74.4637 135.53 73.9046 136.791C73.1835 138.416 71.7274 138.209 70.7987 137.246C70.507 136.943 70.3503 136.51 70.1846 136.052C70.1244 135.886 70.063 135.717 69.9935 135.549C70.0275 135.342 70.0478 135.134 70.0676 134.932ZM72.8882 131.036C72.8013 130.949 72.7159 130.861 72.6305 130.772L72.6304 130.772C72.4201 130.553 72.2099 130.334 71.9767 130.144C71.8781 130.063 71.7359 130.036 71.5936 130.009C71.529 129.996 71.4644 129.984 71.4038 129.967C71.3895 130.034 71.3643 130.108 71.339 130.182C71.2846 130.341 71.2301 130.501 71.2853 130.598C71.8964 131.676 71.7572 132.67 71.117 133.685C70.9819 133.899 70.9326 134.167 70.8831 134.435L70.8831 134.435C70.8586 134.567 70.8341 134.7 70.7992 134.827C70.609 135.517 71.116 136.826 71.7617 137.025L71.8167 137.042C72.1609 137.15 72.6249 137.296 72.8986 136.721C73.7795 134.871 74.0718 133.043 72.8882 131.036ZM123.011 113.381C124.107 113.863 125.948 113.702 127.335 112.178C127.437 112.021 127.539 111.868 127.639 111.717L127.64 111.715L127.64 111.715L127.64 111.714C127.955 111.24 128.256 110.787 128.511 110.309C129.147 109.114 128.044 107.273 126.68 107.3C126.293 107.308 125.907 107.381 125.521 107.455C125.162 107.523 124.802 107.592 124.441 107.607C123.346 107.655 122.478 108.043 121.867 108.962C120.81 110.551 121.207 112.588 123.011 113.381ZM124.747 108.818C124.801 108.816 124.855 108.815 124.908 108.815C125.037 108.793 125.159 108.779 125.274 108.765C125.586 108.727 125.84 108.697 125.982 108.555C126.448 108.091 126.854 108.307 127.213 108.589C127.602 108.894 127.817 109.269 127.63 109.865C127.189 111.271 126.394 112.308 124.939 112.682C124.124 112.892 123.361 112.69 122.796 111.985C122.286 111.347 122.208 110.671 122.584 109.949C122.965 109.218 123.498 108.724 124.398 108.813C124.513 108.824 124.63 108.821 124.747 108.818ZM103.666 110.816C104.74 110.106 105.764 110.06 106.739 110.866C107.016 111.094 107.259 111.386 107.443 111.694C107.525 111.829 107.573 111.988 107.621 112.146C107.683 112.35 107.744 112.551 107.873 112.694C108.45 113.331 108.09 113.901 107.618 114.134C106.427 114.724 105.171 115.204 103.901 115.6C103.232 115.809 102.339 115.018 102.177 114.263C101.821 112.605 102.493 111.512 103.666 110.816ZM106.603 113.157C106.521 113.045 106.439 112.931 106.357 112.818L106.357 112.818L106.357 112.818L106.357 112.818L106.357 112.818L106.357 112.818C106.159 112.543 105.961 112.267 105.746 112.005L105.728 111.981C105.584 111.804 105.399 111.578 105.214 111.558C103.829 111.407 102.643 113.007 103.208 114.258C103.374 114.627 103.715 115.021 104.12 114.589C104.679 113.992 105.37 113.87 106.101 113.741L106.15 113.733C106.352 113.697 106.51 113.412 106.603 113.157ZM100.791 148.101L100.791 148.101C100.763 148.239 100.733 148.383 100.686 148.532C100.693 148.642 100.723 148.741 100.751 148.835C100.779 148.926 100.805 149.013 100.807 149.1C100.855 151.203 103.602 152.828 105.317 152.58C106.515 152.406 107.171 151.97 107.344 150.867C107.497 149.885 107.256 148.811 106.487 148.184C105.601 147.462 104.532 146.918 103.469 146.471C102.207 145.941 101.41 146.365 100.915 147.632C100.858 147.778 100.825 147.935 100.791 148.101ZM102.049 147.725L102.049 147.725C102.124 147.583 102.199 147.441 102.261 147.298C102.414 147.334 102.567 147.369 102.718 147.404L102.719 147.404C104.139 147.727 105.457 148.027 106.09 149.44C106.39 150.111 106.732 150.915 105.909 151.437C105.511 151.689 104.905 151.767 104.425 151.7C103.23 151.534 101.532 150.246 101.689 148.667C101.721 148.344 101.885 148.034 102.049 147.725ZM102.857 126.864C104.243 126.994 105.342 127.607 105.57 129.068C105.651 129.585 105.978 129.653 106.338 129.729C106.39 129.74 106.443 129.751 106.496 129.764C107.292 129.954 107.924 130.609 107.799 131.643C107.708 132.393 107.323 132.699 106.249 132.638C105.531 132.598 104.777 132.522 104.115 132.265C101.972 131.436 101.358 129.672 101.51 127.807C101.566 127.106 102.083 126.821 102.857 126.864ZM106.007 130.611C105.089 130.669 104.65 130.118 104.578 129.317C104.503 128.47 103.897 128.199 103.299 127.932L103.231 127.902C102.804 127.71 102.301 128.208 102.371 128.677C102.633 130.429 104.629 131.951 106.418 131.813C107.078 131.763 106.995 131.422 106.756 131.075C106.678 130.961 106.536 130.891 106.366 130.808C106.255 130.753 106.131 130.693 106.007 130.611ZM85.6591 159.899C85.6798 159.674 85.6811 159.446 85.6825 159.224C85.6855 158.733 85.6883 158.271 85.8973 157.937C86.4072 157.123 87.0219 156.375 87.6367 155.626L87.6367 155.626L87.637 155.626C87.8872 155.322 88.1375 155.017 88.3807 154.708C88.799 154.176 89.448 153.868 89.9773 154.156C90.5149 154.448 91.0367 155.042 91.2416 155.619C91.7287 156.991 91.1144 158.17 90.1957 159.177C89.9351 159.462 89.6397 159.715 89.3441 159.969C89.1111 160.168 88.878 160.368 88.6617 160.584C87.4613 161.781 86.3913 161.223 85.6591 159.899ZM88.639 159.558C89.8657 158.752 90.6572 157.705 90.6052 156.15C90.5871 155.606 90.3836 155.244 89.891 155.015C89.3734 154.774 89.0205 155.098 88.8612 155.448C88.4587 156.333 87.8839 157.087 87.3079 157.844C87.1086 158.106 86.9092 158.368 86.7167 158.635C86.5208 158.907 86.6418 159.565 86.8397 159.922C87.0703 160.338 87.5317 160.269 87.9215 159.949C88.0166 159.871 88.1315 159.817 88.2641 159.755L88.2642 159.755C88.3768 159.702 88.5022 159.643 88.639 159.558ZM81.5512 149.729C82.0818 148.499 82.162 147.178 81.8704 145.808C81.8461 145.784 81.8274 145.766 81.8127 145.753C81.7896 145.731 81.7767 145.719 81.7685 145.705C81.1802 144.658 80.5646 144.189 79.8733 144.418C78.9983 144.708 78.6722 145.363 78.6411 146.313C78.619 146.991 78.3501 147.589 77.439 147.854C76.0868 148.249 76.1842 149.461 77.0185 150.117C77.3371 150.368 77.7424 150.513 78.1436 150.656C78.2698 150.701 78.3956 150.746 78.5181 150.794C79.2854 151.095 81.1725 150.608 81.5512 149.729ZM80.9565 146.363C80.9906 146.42 81.0247 146.477 81.0616 146.532C81.0616 146.837 81.0813 147.13 81.1002 147.412C81.1398 148.001 81.1757 148.535 81.0197 149.007C80.6199 150.215 78.2444 150.43 77.4868 149.384C77.4058 149.272 77.6313 148.725 77.7866 148.689C79.0425 148.397 79.5087 147.583 79.5518 146.369C79.5611 146.106 79.8142 145.791 80.0454 145.627C80.1322 145.566 80.4985 145.84 80.695 146.01C80.8028 146.104 80.8797 146.233 80.9565 146.363Z" fill="#669DEF"/>
</svg>
