<svg width="304" height="223" viewBox="0 0 304 223" fill="none" xmlns="http://www.w3.org/2000/svg">
<path fill-rule="evenodd" clip-rule="evenodd" d="M33.066 198.581C56.0028 223.549 144.701 209.207 203.104 209.207C228.3 209.207 312.852 221.835 277.937 135.111C163.455 -149.241 -39.6095 119.472 33.066 198.581Z" fill="#D7403D"/>
<path fill-rule="evenodd" clip-rule="evenodd" d="M134.551 200.59C134.663 200.504 134.779 200.411 134.828 200.279C134.984 199.856 134.373 199.575 133.922 199.586C133.269 199.6 132.43 200.041 132.63 200.663C132.746 201.024 133.19 201.19 133.562 201.124C133.935 201.058 134.251 200.82 134.551 200.59ZM136.495 193.175C136.988 193.33 137.476 193.522 137.906 193.81C138.713 194.35 139.263 195.189 139.79 196.006C140.168 196.591 140.551 197.187 140.739 197.858C140.944 198.584 140.907 199.359 140.77 200.101C140.344 202.412 138.918 204.521 136.932 205.777C134.945 207.032 132.429 207.417 130.158 206.811C129.716 206.693 129.271 206.532 128.931 206.226C128.646 205.969 128.453 205.626 128.277 205.285C127.352 203.492 126.729 201.5 126.8 199.483C126.871 197.467 127.7 195.427 129.27 194.16C131.24 192.569 134.079 192.417 136.495 193.175" fill="white"/>
<path fill-rule="evenodd" clip-rule="evenodd" d="M240.766 83.4888C239.684 83.4752 238.669 84.3829 238.561 85.4602C238.518 85.9005 238.704 86.4478 239.143 86.5084C239.471 86.5539 239.759 86.3002 239.98 86.0528C240.447 85.5295 240.848 84.9475 241.171 84.3248C241.279 84.1159 241.374 83.8478 241.232 83.6604C241.128 83.5239 240.938 83.491 240.766 83.4888ZM240.298 78.6581C241.835 79.1945 243.228 80.1378 244.297 81.366C245.216 82.4216 245.915 83.7919 245.722 85.1778C245.651 85.6866 245.464 86.1718 245.25 86.6387C244.439 88.4073 243.044 90.1022 241.129 90.4447C240.124 90.6244 239.088 90.409 238.122 90.0803C237.005 89.7001 235.939 89.1669 234.965 88.5002C234.449 88.1466 233.936 87.7269 233.709 87.1431C233.553 86.7408 233.548 86.2978 233.554 85.8663C233.568 84.7991 233.639 83.714 234.011 82.7137C234.482 81.4481 235.403 80.4034 236.38 79.471C236.772 79.096 237.189 78.7266 237.694 78.5256C238.519 78.1968 239.459 78.3654 240.298 78.6581Z" fill="white"/>
<path fill-rule="evenodd" clip-rule="evenodd" d="M240.768 1.6645C247.128 8.2241 252.149 16.0679 255.435 24.5802C255.661 25.1649 255.88 25.8143 255.665 26.4028C254.007 30.9342 250.807 34.712 247.67 38.3853C245.665 40.7325 243.66 43.0797 241.656 45.4269C239.742 47.6677 237.828 49.9088 235.849 52.0932C225.776 63.2153 213.873 72.9406 200.088 78.9244C199.568 79.1503 199.01 79.3755 198.45 79.2852C197.889 79.195 197.364 78.6531 197.511 78.107C199.215 71.7601 200.931 65.1245 199.563 58.6973C199.233 57.147 198.865 55.1951 200.151 54.2622C210.563 46.7095 218.059 35.9138 225.242 25.2648C227.049 22.5871 228.85 19.902 230.449 17.0963C233.287 12.1147 235.472 6.7648 236.933 1.22473C237.134 0.464494 238.097 0.122158 238.86 0.32139C239.624 0.520621 240.22 1.09917 240.768 1.6645" fill="white"/>
<path fill-rule="evenodd" clip-rule="evenodd" d="M42.4049 27.1487C43.439 36.4975 46.3172 45.6388 50.8258 53.8936C53.6173 59.0047 57.0127 63.757 60.3991 68.4949C62.7556 71.7919 65.2755 75.2277 68.9524 76.9316C69.93 77.3847 69.7936 78.7942 69.5312 79.8392C68.3971 84.3565 67.8679 89.0252 67.9622 93.6817C67.9712 94.1217 67.9827 94.5777 67.8099 94.9823C67.2231 96.356 65.2127 96.1271 63.8287 95.5652C55.2654 92.089 48.6908 85.0982 42.5492 78.192C34.5753 69.2253 26.7199 59.8648 22.0094 48.8287C21.6891 48.0784 21.3784 47.2888 21.4319 46.4748C21.4865 45.6454 21.9126 44.8915 22.3449 44.1816C26.6152 37.1677 32.5559 31.1786 39.5349 26.8517C40.0264 26.5469 40.5513 26.2415 41.1293 26.2215C41.7073 26.2015 42.3413 26.5739 42.4049 27.1487Z" fill="white"/>
<path fill-rule="evenodd" clip-rule="evenodd" d="M239.52 191.152C240.258 189.902 241.172 188.525 242.605 188.287C243.17 188.194 243.467 187.58 243.66 187.041C246.028 180.399 246.256 173.013 244.302 166.237C243.745 164.303 244.431 162.253 245.111 160.358C246.863 155.468 248.616 150.579 250.369 145.689C249.365 143.952 246.717 144.003 245.36 142.525C243.615 140.623 244.931 137.598 246.299 135.408C254.288 122.613 262.278 109.818 270.267 97.0234C271.246 95.4559 273.394 94.9645 275.194 95.3822C276.994 95.7999 278.532 96.9329 280.012 98.0388C285.839 102.391 291.666 106.743 297.493 111.095C300.62 113.431 304.072 116.415 303.892 120.314C303.793 122.472 302.558 124.39 301.364 126.189C296.746 133.148 292.128 140.106 287.51 147.065C284.908 150.985 285.627 156.134 284.841 160.773C283.598 168.102 278.572 174.121 273.918 179.918C269.264 185.715 264.607 192.188 264.345 199.617C264.033 208.472 259.827 217.121 253.053 222.832C255.018 218.066 242.605 219.967 228.406 214.318C230.742 206.052 235.154 198.55 239.52 191.152Z" fill="white"/>
<path fill-rule="evenodd" clip-rule="evenodd" d="M83.6053 211.882C82.7199 211.157 82.4375 209.935 82.2812 208.798C80.4729 195.651 88.2388 182.673 86.8555 169.474C86.1426 162.672 83.0171 156.324 79.084 150.742C76.3679 146.887 76.2156 141.723 77.2289 137.111C78.2423 132.498 80.2864 128.185 81.6651 123.67C87.7962 103.589 80.3358 82.136 72.96 62.4823C87.6575 55.375 104.809 56.7515 121.091 57.7144C137.373 58.6774 154.885 58.7456 168.455 49.6523C170.315 69.3236 166.214 89.0167 162.136 108.347C182.829 106.331 203.522 104.315 224.215 102.299C224.808 102.241 225.457 102.197 225.95 102.534C226.608 102.983 226.709 103.9 226.747 104.698C227.714 125.156 228.3 145.631 228.506 166.111C228.511 166.625 228.493 167.197 228.133 167.562C227.824 167.874 227.353 167.939 226.918 167.987C197.927 171.218 168.935 174.449 139.944 177.68C137.437 177.959 133.866 177.306 134.012 174.775C134.667 163.491 134.285 152.146 132.873 140.932C125.168 140.641 117.411 141.816 110.134 144.376C108.483 144.957 106.498 146.519 107.388 148.033C113.279 158.043 105.967 173.09 113.968 181.493C116.719 184.382 116.529 188.928 115.984 192.889C114.815 201.38 112.83 209.757 110.064 217.866C111.401 208.533 84.4222 216.887 83.6053 211.882Z" fill="white"/>
<path fill-rule="evenodd" clip-rule="evenodd" d="M0.681836 0.0135448C0.706604 0.212837 0.598769 0.422102 0.422099 0.517592C0.281399 0.376825 0.1407 0.236058 0 0.0952902C0.210926 0.00303595 0.450141 -0.0232775 0.676077 0.0209223L0.681836 0.0135448Z" fill="#00160A"/>
<path fill-rule="evenodd" clip-rule="evenodd" d="M135.988 193.175C136.482 193.33 136.969 193.522 137.399 193.81C138.207 194.35 138.756 195.189 139.283 196.006C139.661 196.591 140.044 197.187 140.233 197.858C140.437 198.584 140.4 199.359 140.264 200.101C139.837 202.412 138.411 204.521 136.425 205.777C134.439 207.032 131.922 207.417 129.652 206.811C129.21 206.693 128.765 206.532 128.425 206.226C128.139 205.969 127.947 205.626 127.77 205.285C126.845 203.492 126.222 201.5 126.293 199.483C126.364 197.467 127.193 195.427 128.763 194.16C130.733 192.569 133.572 192.417 135.988 193.175M133.219 205.18C134.454 204.993 135.541 204.186 136.251 203.158C136.961 202.13 137.325 200.897 137.5 199.661C137.6 198.954 137.609 198.145 137.11 197.635C136.812 197.329 136.386 197.193 135.977 197.071C134.441 196.611 132.688 196.221 131.313 197.044C130.311 197.643 129.753 198.753 129.247 199.805C128.654 201.037 128.801 202.591 129.613 203.69C130.425 204.789 131.868 205.385 133.219 205.18V205.18Z" fill="#00160A"/>
<path fill-rule="evenodd" clip-rule="evenodd" d="M192.401 137.706C192.423 137.444 192.454 137.163 192.628 136.966C192.797 136.772 193.064 136.703 193.314 136.645C199.766 135.143 206.43 134.555 213.045 134.905C213.888 134.949 214.971 135.234 215.027 136.076C215.347 140.903 215.666 145.729 215.986 150.555C216.002 150.8 216.01 151.07 215.854 151.259C215.727 151.412 215.521 151.472 215.328 151.522C208.448 153.316 201.195 153.669 194.173 152.554C193.992 152.525 193.802 152.491 193.661 152.373C193.492 152.231 193.432 152 193.384 151.784C192.349 147.177 192.016 142.413 192.401 137.706ZM193.922 145.713C194.049 147.535 194.431 149.34 195.055 151.057C195.676 151.147 196.291 151.276 196.911 151.381C202.247 152.284 207.705 151.375 213.041 150.467C213.419 150.403 213.835 150.317 214.068 150.013C214.307 149.701 214.275 149.268 214.232 148.878C214.048 147.215 213.865 145.552 213.681 143.889C213.666 143.754 213.647 143.611 213.556 143.511C213.446 143.39 213.266 143.37 213.102 143.359C209.311 143.11 205.506 143.393 201.717 143.675C199.622 143.832 197.528 143.988 195.433 144.144C194.941 144.181 194.382 144.254 194.099 144.658C193.89 144.956 193.897 145.35 193.922 145.713ZM193.982 138.757C193.65 139.82 193.591 140.966 193.81 142.058C193.85 142.254 193.905 142.461 194.054 142.595C194.275 142.793 194.611 142.76 194.905 142.717C198.473 142.194 202.08 141.934 205.687 141.941C206.196 141.941 206.352 141.256 206.346 140.748C206.338 140.002 206.33 139.257 206.322 138.511C206.317 138.08 206.295 137.605 206 137.29C205.645 136.913 205.052 136.924 204.535 136.964C203.341 137.055 202.146 137.146 200.951 137.238C200.379 137.281 198.863 137.669 198.167 137.715C196.954 137.909 195.741 138.102 194.527 138.296C194.398 138.317 194.262 138.34 194.162 138.426C194.065 138.508 194.019 138.635 193.982 138.757ZM209.98 142C210.928 142.012 211.878 141.917 212.805 141.717C213.026 141.67 213.258 141.61 213.415 141.448C213.646 141.21 213.644 140.838 213.627 140.507C213.578 139.545 213.529 138.584 213.48 137.623C213.463 137.28 213.424 136.894 213.156 136.68C212.92 136.491 212.588 136.502 212.286 136.523C211.232 136.594 210.178 136.666 209.123 136.738C208.956 136.749 208.781 136.763 208.641 136.856C208.386 137.024 208.348 137.378 208.34 137.684C208.317 138.703 208.359 139.723 208.465 140.736C208.496 141.03 208.538 141.339 208.72 141.571C209.003 141.934 209.521 141.994 209.98 142Z" fill="#FFB61D"/>
<path fill-rule="evenodd" clip-rule="evenodd" d="M208.913 116.614C210.323 116.004 212.052 116.208 213.281 117.13C214.509 118.051 215.189 119.654 214.998 121.178C215.862 120.711 216.957 120.252 217.763 120.812C218.673 121.445 218.465 122.809 218.328 123.909C218.089 125.831 218.399 127.818 219.212 129.576C219.547 130.303 219.836 131.405 219.091 131.698C218.965 131.747 218.828 131.758 218.694 131.769C209.964 132.473 201.234 133.176 192.504 133.88C192.265 133.899 191.997 133.91 191.816 133.752C191.631 133.591 191.608 133.317 191.598 133.072C191.514 131.019 191.431 128.965 191.347 126.912C191.324 126.361 191.314 125.767 191.625 125.312C192.14 124.559 193.218 124.561 194.119 124.417C195.02 124.273 196.068 123.513 195.721 122.669C195.334 121.728 196.652 121.041 197.657 120.888C198.663 120.735 199.997 120.135 199.692 119.165C199.359 118.105 200.818 117.447 201.919 117.301C202.696 117.197 203.509 117.098 204.246 117.364C204.983 117.631 205.607 118.39 205.441 119.156C205.25 120.033 206.319 120.85 207.161 120.541C208.003 120.231 208.345 119.08 207.918 118.29C207.57 117.645 208.241 116.905 208.913 116.614ZM213.421 130.145C213.095 129.54 213.092 128.819 213.09 128.131C213.076 124.901 212.877 121.673 212.496 118.466C212.476 118.304 212.446 118.123 212.313 118.028C212.199 117.946 212.045 117.956 211.905 117.969C211.223 118.033 210.415 118.183 210.146 118.813C210.031 119.082 210.044 119.386 210.06 119.677C210.233 122.914 210.406 126.151 210.579 129.388C210.595 129.689 210.635 130.036 210.886 130.204C211.022 130.296 211.194 130.313 211.358 130.322C212.05 130.36 212.746 130.3 213.421 130.145ZM201.68 125.168C201.595 125.707 201.476 126.243 201.445 126.788C201.392 127.698 201.583 128.604 201.774 129.496C201.897 130.068 202.636 130.349 203.178 130.129C203.719 129.908 204.047 129.33 204.137 128.752C204.227 128.174 204.121 127.586 204.029 127.008C203.667 124.739 203.511 122.437 203.562 120.14C203.575 119.559 203.008 119.033 202.429 119.091C201.85 119.148 201.398 119.774 201.524 120.342C201.878 121.922 201.931 123.569 201.68 125.168ZM207.421 122.068C207.081 121.622 206.301 121.86 206.035 122.354C205.769 122.848 205.851 123.447 205.917 124.004C206.089 125.458 206.105 126.931 205.965 128.389C205.924 128.819 205.879 129.289 206.116 129.649C206.481 130.204 207.282 130.199 207.943 130.132C208.15 130.111 208.388 130.071 208.492 129.891C208.565 129.765 208.548 129.609 208.528 129.466C208.224 127.203 207.919 124.941 207.614 122.679C207.585 122.465 207.552 122.24 207.421 122.068ZM214.983 123.04C214.726 123.39 214.672 123.845 214.65 124.278C214.574 125.763 214.77 127.247 214.967 128.721C215.044 129.301 215.31 130.048 215.894 130.008C216.486 129.968 216.641 129.176 216.627 128.582C216.591 127.01 216.554 125.438 216.518 123.866C216.508 123.453 216.465 122.974 216.122 122.743C215.762 122.501 215.239 122.691 214.983 123.04ZM197.089 122.669C197.089 122.669 197.349 124.72 197.44 125.766C197.554 127.078 197.699 128.388 197.875 129.693C197.901 129.883 197.935 130.088 198.075 130.218C198.317 130.445 199.253 130.294 199.425 130.011C199.597 129.728 199.588 129.374 199.573 129.043C199.525 127.995 199.478 126.947 199.43 125.899C199.379 124.776 199.112 122.354 199.112 122.354M193.696 130.098C193.771 130.333 193.859 130.579 194.049 130.736C194.42 131.043 195.021 130.853 195.314 130.47C195.606 130.088 195.672 129.584 195.728 129.106C195.796 128.52 195.863 127.91 195.673 127.351C195.483 126.792 194.957 126.3 194.369 126.352C193.828 126.399 193.409 126.894 193.282 127.422C193.156 127.95 193.263 128.504 193.394 129.031C193.483 129.39 193.584 129.746 193.696 130.098Z" fill="#E7EAEE"/>
<path fill-rule="evenodd" clip-rule="evenodd" d="M229.084 46.0871C228.38 47.1451 227.616 48.2168 226.525 48.87C225.434 49.5232 223.929 49.6505 222.949 48.8407C221.868 47.9472 221.801 46.3365 221.886 44.9366C221.919 44.3976 221.962 43.8544 222.117 43.3369C222.385 42.4395 222.97 41.6737 223.58 40.9635C224.321 40.102 225.141 39.271 226.169 38.7861C227.197 38.3013 228.473 38.2162 229.436 38.8194C230.589 39.5414 231.015 41.0774 230.797 42.4197C230.578 43.762 229.838 44.9553 229.084 46.0871M226.846 47.2064C227.735 46.2598 228.497 45.1946 229.106 44.0479C229.507 43.2933 229.848 42.4731 229.832 41.6187C229.816 40.7644 229.366 39.8714 228.572 39.5544C227.539 39.1415 226.404 39.802 225.54 40.5038C224.926 41.0035 224.33 41.5516 223.936 42.2387C223.686 42.6732 223.524 43.1513 223.364 43.6259C223.06 44.5237 222.752 45.4592 222.868 46.3999C222.983 47.3406 223.656 48.2849 224.599 48.3824C225.472 48.4726 226.246 47.846 226.846 47.2064Z" fill="#FFB61D"/>
<path fill-rule="evenodd" clip-rule="evenodd" d="M47.525 58.0443C48.6291 59.1627 49.5405 60.4708 50.2073 61.894C50.8773 63.3244 50.2018 65.1626 48.8868 66.0376C47.5718 66.9126 45.7938 66.9011 44.352 66.2563C42.9101 65.6114 41.777 64.4079 40.9425 63.0668C40.3133 62.0558 39.8255 60.9227 39.7732 59.7331C39.7209 58.5434 40.1589 57.2914 41.1 56.5619C42.0519 55.824 43.3904 55.7186 44.5415 56.0726C45.6927 56.4267 46.6788 57.1872 47.525 58.0443M43.2169 57.3642C42.2615 57.2658 41.4128 58.1426 41.2489 59.089C41.0851 60.0353 41.4458 60.9955 41.9126 61.8348C42.9249 63.6549 44.7309 65.2716 46.8111 65.1709C47.8805 65.1192 49.0526 64.3785 49.0336 63.308C49.0254 62.8451 48.797 62.4181 48.5689 62.0152C47.9631 60.9449 47.3087 59.8856 46.4347 59.0203C45.5607 58.155 44.4403 57.4901 43.2169 57.3642Z" fill="#FFB61D"/>
<path fill-rule="evenodd" clip-rule="evenodd" d="M131.01 198.842C131.777 198.259 132.731 197.882 133.692 197.944C134.654 198.006 135.605 198.558 136.007 199.433C136.439 200.372 136.17 201.539 135.496 202.324C134.823 203.108 133.809 203.541 132.785 203.684C132.086 203.782 131.253 203.694 130.871 203.102C130.686 202.816 130.644 202.463 130.607 202.125C130.54 201.517 130.474 200.91 130.407 200.303C130.379 200.045 130.352 199.778 130.434 199.533C130.532 199.244 130.768 199.026 131.01 198.842M134.044 200.589C134.156 200.504 134.273 200.411 134.321 200.279C134.477 199.856 133.866 199.575 133.416 199.585C132.762 199.6 131.924 200.04 132.124 200.663C132.24 201.023 132.683 201.19 133.056 201.124C133.428 201.057 133.744 200.82 134.044 200.589H134.044Z" fill="#00160A"/>
<path fill-rule="evenodd" clip-rule="evenodd" d="M239.648 4.62586C245.624 10.8119 250.34 18.209 253.428 26.2366C253.64 26.788 253.846 27.4004 253.643 27.9555C252.086 32.2288 249.08 35.7915 246.132 39.2556L240.482 45.8963C238.684 48.0094 236.886 50.1229 235.027 52.1829C225.563 62.6716 214.381 71.8432 201.43 77.4863C200.941 77.6992 200.417 77.9116 199.891 77.8265C199.364 77.7414 198.871 77.2304 199.009 76.7153C200.61 70.7299 202.221 64.4722 200.937 58.411C200.627 56.9489 200.281 55.1082 201.489 54.2284C211.271 47.1058 218.313 36.9248 225.062 26.8822C226.759 24.357 228.452 21.8249 229.953 19.1789C232.62 14.481 234.673 9.43572 236.045 4.21113C236.234 3.49418 237.139 3.17134 237.856 3.35923C238.573 3.54712 239.133 4.09272 239.648 4.62586ZM235.466 12.3079C234.859 12.0567 234.299 12.736 233.989 13.3157C233.655 13.9434 233.32 14.5719 232.985 15.201C226.794 26.8307 220.507 38.6387 211.072 47.7987C210.181 48.6641 209.184 49.7097 209.349 50.9412C209.875 54.8889 207.768 59.0578 204.277 60.9744C202.691 61.8445 202.71 64.0897 202.942 65.8829C203.035 66.6009 203.307 67.5007 204.028 67.5615C206.144 67.7398 208.174 68.7813 209.553 70.3958C209.988 70.905 210.813 70.5867 211.38 70.2302C225.654 61.2569 236.621 48.0028 247.329 34.9803C247.698 34.531 248.091 33.9649 247.899 33.4161C246.278 28.8002 246.538 23.5545 248.606 19.1213C247.386 16.6928 245.932 14.382 244.27 12.2314C241.504 13.4319 238.252 13.4602 235.466 12.3079ZM201.611 75.1157C202.174 75.4106 202.855 75.1303 203.418 74.8362C204.899 74.0634 206.325 73.1863 207.682 72.2136C208.041 71.9565 208.148 71.443 208.021 71.0203C207.894 70.5976 207.577 70.2569 207.225 69.9901C206.128 69.1571 204.594 68.938 203.307 69.4305C203.069 69.5215 202.833 69.6403 202.669 69.835C202.477 70.0631 202.407 70.3668 202.345 70.6585C202.035 72.1323 201.789 73.62 201.611 75.1157ZM241.694 9.23427C240.724 7.33794 239.229 5.71398 237.418 4.59176C236.789 5.14687 236.666 5.99039 236.541 6.85034C236.456 7.44043 236.369 8.03826 236.116 8.55594C236.034 8.72454 235.934 8.88581 235.833 9.04673C235.642 9.35308 235.452 9.65813 235.39 10.0099C235.297 10.5466 235.751 11.2198 236.266 11.0422C236.685 10.8978 237.124 10.9906 237.566 11.0841C237.8 11.1334 238.034 11.183 238.268 11.1981C239.627 11.2858 240.755 10.2209 241.694 9.23427ZM249.381 20.6002C248.342 22.6668 248.506 25.1076 248.695 27.4129L248.966 30.719C248.996 31.0826 249.194 31.5732 249.544 31.4725C249.762 30.8635 250.176 30.3611 250.592 29.8574C250.955 29.4168 251.32 28.9752 251.554 28.4603C252.347 26.7166 251.467 24.707 250.599 22.9991L249.381 20.6002ZM202.873 57.2945C202.917 57.9412 203.589 58.4253 204.236 58.4071C204.884 58.389 205.468 57.9697 205.846 57.4436C206.225 56.9175 206.432 56.2909 206.635 55.6751L207.303 53.6417C207.489 53.0748 207.5 52.2081 206.907 52.1414C206.693 52.1173 206.489 52.2306 206.313 52.3554C205.649 52.8279 205.165 53.5065 204.694 54.172L203.411 55.9849C203.132 56.3781 202.841 56.8139 202.873 57.2945ZM49.8124 51.8669C45.3039 43.6121 42.4257 34.4709 41.3915 25.122C41.3279 24.5472 40.694 24.1748 40.116 24.1948C39.538 24.2148 39.0131 24.5202 38.5215 24.825C31.5426 29.152 25.6018 35.1411 21.3316 42.1549C20.8993 42.8648 20.4732 43.6187 20.4186 44.4481C20.365 45.2621 20.6758 46.0517 20.996 46.802C25.7066 57.8381 33.5619 67.1986 41.5359 76.1653C47.6775 83.0715 54.252 90.0623 62.8154 93.5386C64.1994 94.1004 66.2098 94.3293 66.7965 92.9556C66.9672 92.556 66.9581 92.1063 66.9492 91.6714L66.9489 91.6551C66.8545 86.9986 67.3837 82.3298 68.5179 77.8126C68.7802 76.7675 68.9166 75.358 67.939 74.905C64.2622 73.201 61.7422 69.7652 59.3858 66.4683C55.9994 61.7303 52.6039 56.978 49.8124 51.8669ZM57.7716 87.9505C57.2651 88.0856 56.7593 87.7661 56.3364 87.4563C48.5425 81.7459 42.5027 74.0173 36.5685 66.3925L26.0961 52.9368C27.8638 51.811 28.0883 49.3649 28.1268 47.2695C28.1769 44.5458 28.2134 41.7416 27.2295 39.2013C27.0108 38.6367 27.2955 38.011 27.6004 37.4878C28.908 35.2442 30.7214 33.2973 32.8666 31.8339C33.0743 31.6922 33.2941 31.5514 33.543 31.5162C34.2 31.4234 34.7039 32.0624 35.055 32.6253C36.4415 34.8487 38.3471 37.3632 40.9609 37.1801C41.9562 37.1104 42.5082 38.2827 42.7985 39.2373C46.4091 51.1074 53.1883 61.8138 61.1382 71.3393C62.1713 72.5771 62.4305 74.2477 62.6873 75.9032C62.9738 77.7492 63.2572 79.5764 64.6077 80.7633C65.7607 81.7767 65.5468 83.5968 65.2356 85.1C65.1719 85.4076 65.0961 85.7371 64.8625 85.9471C64.6889 86.103 64.4544 86.1679 64.229 86.2281L57.7716 87.9505ZM39.2948 34.4305C37.8651 33.4315 36.6301 32.1549 35.679 30.6929C35.4733 30.3767 35.2734 30.0222 35.3096 29.6467C35.3488 29.2383 35.656 28.9116 35.9617 28.638C36.7166 27.9624 37.5698 27.3968 38.4859 26.9646C38.8215 26.8063 39.2546 26.6778 39.5334 26.9226C39.6975 27.0667 39.7493 27.297 39.7921 27.5112L41.1126 34.1157C41.1907 34.5061 40.7812 34.8577 40.3832 34.8691C39.9852 34.8804 39.6212 34.6585 39.2948 34.4305ZM26.2268 47.2046C26.1988 48.4469 26.1039 49.841 25.1729 50.664C24.978 50.6871 24.8487 50.4733 24.7723 50.2926C24.1015 48.7047 23.4215 47.0786 23.3158 45.3581C23.2102 43.6376 23.7868 41.7745 25.1927 40.7773C25.383 40.6423 25.662 40.5309 25.8299 40.6928C25.8974 40.7578 25.9263 40.8522 25.9509 40.9427C26.3329 42.347 26.3029 43.8259 26.2701 45.2809L26.2268 47.2046ZM64.1662 88.526C64.392 88.7107 64.416 89.0412 64.4221 89.3329L64.4893 92.5259C63.1794 91.7998 61.9245 90.9745 60.7388 90.0596C60.514 89.8861 60.267 89.6051 60.4047 89.3568C60.473 89.2336 60.6149 89.1743 60.747 89.1255C61.5946 88.813 62.4709 88.5786 63.3613 88.4262C63.6366 88.3791 63.9501 88.3491 64.1662 88.526ZM64.2416 75.9482C64.2296 75.804 64.2296 75.6469 64.3153 75.5304C64.5415 75.2229 65.0324 75.5013 65.2399 75.8216C65.7397 76.5934 65.85 77.6041 65.5285 78.4654C64.7946 77.8363 64.3218 76.9115 64.2416 75.9482ZM259.347 51.7026C260.653 50.0584 263.033 49.8219 265.132 49.8731C265.622 49.8851 266.127 49.9088 266.573 50.1123C267.815 50.6782 268.078 52.3007 268.12 53.6646C268.158 54.9056 268.151 56.1629 267.85 57.3673C267.548 58.5717 266.924 59.7321 265.927 60.4712C265.478 60.8035 264.958 61.0456 264.408 61.1378C263.557 61.2802 262.687 61.0617 261.878 60.7609C260.801 60.36 259.78 59.8096 258.852 59.1302C258.4 58.7983 257.932 58.3638 257.917 57.8025C257.884 56.5081 258.028 55.2092 258.347 53.954C258.55 53.1518 258.833 52.3507 259.347 51.7026ZM262.733 59.8913C264.409 60.3725 266.192 59.0757 266.827 57.4515C267.462 55.8274 267.227 54.0031 266.878 52.2945C266.744 51.6385 266.043 51.2721 265.397 51.0967C264.397 50.8252 263.333 50.7892 262.317 50.9925C261.812 51.0935 261.296 51.2664 260.941 51.6402C260.748 51.8438 260.614 52.0953 260.483 52.3433L259.501 54.1993C259.329 54.5257 259.155 54.8551 259.053 55.2101C258.749 56.2721 259.151 57.4513 259.892 58.2699C260.634 59.0885 261.671 59.5865 262.733 59.8913ZM240.298 78.6572C241.835 79.1936 243.228 80.1369 244.297 81.3651C245.216 82.4207 245.915 83.791 245.722 85.1769C245.651 85.6857 245.464 86.1709 245.25 86.6378C244.439 88.4064 243.044 90.1013 241.129 90.4438C240.124 90.6234 239.088 90.4081 238.122 90.0794C237.005 89.6992 235.939 89.166 234.965 88.4993C234.449 88.1456 233.936 87.726 233.709 87.1422C233.553 86.7399 233.548 86.2969 233.554 85.8654C233.568 84.7982 233.639 83.7131 234.011 82.7128C234.482 81.4472 235.403 80.4025 236.38 79.4701C236.772 79.0951 237.189 78.7257 237.694 78.5247C238.519 78.1958 239.459 78.3645 240.298 78.6572ZM241.869 87.9588C242.98 86.8596 243.627 85.2662 243.451 83.7133C243.275 82.1605 242.224 80.7033 240.754 80.1732C240.143 79.9529 239.465 79.8914 238.839 80.0645C238.502 80.158 238.185 80.317 237.889 80.505C236.624 81.3098 235.736 82.6826 235.52 84.1666C235.304 85.6505 235.765 87.2194 236.749 88.3511C237.379 89.0758 238.407 89.3865 239.36 89.2661C240.313 89.1458 241.187 88.6342 241.869 87.9588ZM101.579 69.5032C101.528 68.771 100.549 68.5791 99.8149 68.6007C95.963 68.7139 92.1163 69.0025 88.2906 69.4653C87.6621 69.5413 87.6114 70.5544 88.1157 70.9371C88.6199 71.3198 89.3224 71.2487 89.9492 71.1595L101.579 69.5032ZM89.2656 74.4542C89.2987 74.0771 89.7726 73.9407 90.1487 73.8981L112.836 71.3288C113.247 71.2823 113.684 71.2403 114.053 71.4251C114.422 71.6098 114.66 72.1154 114.419 72.4506C114.241 72.6977 113.9 72.7479 113.597 72.7773L90.3923 75.0291C89.9098 75.0759 89.2232 74.9371 89.2656 74.4542ZM140.128 78.2757C138.858 78.5547 137.556 78.0966 136.338 77.6416C132.402 76.1706 128.481 74.6589 124.576 73.1069C123 72.4803 121.27 73.4186 119.852 74.3499C115.749 77.0451 111.799 79.9727 108.027 83.114C107.058 83.9209 105.567 83.3548 104.59 82.5579C104.384 82.3897 104.181 82.2104 103.977 82.0304L103.976 82.0294L103.976 82.0294L103.976 82.0293L103.976 82.0293L103.976 82.0292C103.215 81.3566 102.444 80.6753 101.459 80.5356C99.9457 80.3209 98.6144 81.4681 97.5179 82.533L90.4463 89.4008C89.4952 90.3245 88.4941 91.8036 89.3406 92.824C89.8991 93.4972 90.9244 93.4629 91.7933 93.3622C96.33 92.8363 100.844 92.0989 105.357 91.3617C112.816 90.1434 120.27 88.9258 127.814 88.6648C129.485 88.607 131.158 88.5963 132.831 88.5857C133.879 88.579 134.926 88.5724 135.973 88.5541C140.697 88.4718 145.416 88.1535 150.108 87.6009C150.335 87.5741 150.593 87.5274 150.711 87.3316C150.8 87.1837 150.778 86.9971 150.753 86.8264L148.765 73.3042C148.664 72.6171 148.488 71.823 147.86 71.5262C147.226 71.2263 146.478 71.6129 145.958 72.0832C145.143 72.8193 144.515 73.7968 143.896 74.761C142.88 76.3428 141.887 77.889 140.128 78.2757ZM107.854 85.6748C112.098 82.1849 116.524 78.9154 121.107 75.884C122.048 75.2616 123.192 74.6243 124.244 75.033L135.357 79.3515C137.212 80.0722 139.241 80.8023 141.145 80.2245C143.358 79.5527 144.681 77.3503 145.796 75.3233C146.013 74.9291 146.644 74.9744 146.956 75.2983C147.268 75.6222 147.347 76.0989 147.411 76.5442L148.225 82.1834C148.35 83.0492 148.473 83.9477 148.222 84.786C147.972 85.6243 147.237 86.3857 146.362 86.3688C132.057 86.0926 117.724 87.2722 103.656 89.8835C103.221 89.9643 102.785 90.0465 102.35 90.1288L102.349 90.1289L102.348 90.129C98.9877 90.7635 95.6147 91.4004 92.1993 91.4118C93.8485 89.0758 95.9383 87.0918 98.0134 85.1246C99.1528 84.0444 100.577 82.8793 102.107 83.2327C102.933 83.4234 103.567 84.017 104.197 84.6075L104.197 84.6075L104.197 84.6078L104.197 84.6078L104.197 84.6079L104.198 84.6079L104.198 84.608L104.198 84.608L104.198 84.6081L104.198 84.6081L104.198 84.6082L104.198 84.6082L104.198 84.6082C104.4 84.7974 104.601 84.9862 104.809 85.1613C105.664 85.8835 106.989 86.3858 107.854 85.6748ZM291.381 125.012C291.001 125.153 290.578 125.056 290.192 124.935C287.576 124.113 285.451 122.273 283.363 120.466C283.081 120.221 282.799 119.977 282.516 119.736C279.056 116.785 275.302 114.18 271.327 111.972C270.922 111.747 270.498 111.511 270.25 111.12C270.003 110.73 270.01 110.135 270.392 109.874C272.175 108.657 273.331 106.568 273.416 104.412C273.438 103.837 274.088 103.454 274.661 103.5C275.234 103.546 275.734 103.89 276.203 104.223L294.368 117.117C294.722 117.368 295.102 117.659 295.189 118.084C295.26 118.431 295.114 118.782 294.968 119.104C294.185 120.833 293.284 122.508 292.274 124.115C292.045 124.479 291.784 124.861 291.381 125.012ZM273.208 109.715C272.995 110.092 272.81 110.637 273.156 110.897L287.979 122.058C288.79 122.669 290.052 123.242 290.691 122.452C291.425 121.545 292.111 120.599 292.744 119.619C292.917 119.35 293.094 119.044 293.031 118.731C292.974 118.445 292.734 118.238 292.508 118.054C287.068 113.643 281.308 109.627 275.289 106.047L273.208 109.715ZM265.831 116.54C266.071 116.13 266.361 115.68 266.826 115.58C267.181 115.502 267.542 115.655 267.87 115.814C269.654 116.68 271.289 117.855 272.68 119.271C273.014 119.611 273.056 120.159 272.907 120.613C272.758 121.066 272.451 121.448 272.15 121.819C271.667 122.415 271.151 123.034 270.438 123.317C269.668 123.622 268.772 123.475 268.043 123.082C267.313 122.69 266.728 122.075 266.212 121.427C265.539 120.582 264.937 119.568 265.041 118.493C265.11 117.788 265.475 117.152 265.831 116.54ZM268.953 121.273C270.076 121.709 270.794 121.363 270.823 120.627C270.842 120.162 270.436 119.805 270.068 119.521L268.953 118.664C268.585 118.38 268.178 118.083 267.713 118.086C267.248 118.089 266.775 118.569 266.965 118.993C266.937 119.198 267.831 120.836 268.953 121.273ZM264.522 130.335C264.796 130.485 265.086 130.631 265.398 130.638C265.71 130.645 266.048 130.468 266.125 130.165C266.305 129.455 266.775 128.866 267.235 128.29C267.285 128.227 267.335 128.164 267.385 128.102C267.889 127.464 268.375 126.742 268.388 125.929C268.402 125.117 267.729 124.251 266.924 124.362C266.29 124.449 265.7 124.034 265.239 123.589C265.2 123.551 265.162 123.514 265.123 123.476C265.089 123.441 265.054 123.407 265.02 123.372C264.634 122.988 264.242 122.597 263.731 122.43C263.122 122.232 262.293 122.547 262.245 123.186C262.147 124.472 261.079 125.44 260.088 126.264C259.791 126.511 260.059 126.985 260.336 127.253C261.586 128.461 262.998 129.5 264.522 130.335ZM264.72 127.885L262.768 126.564C262.272 126.229 262.312 125.406 262.754 125.002C263.197 124.598 263.885 124.567 264.449 124.769C265.013 124.971 265.482 125.368 265.938 125.757C266.24 126.015 266.281 126.484 266.143 126.855C266.005 127.227 265.724 127.525 265.45 127.812C265.357 127.911 265.252 128.015 265.117 128.032C264.974 128.05 264.84 127.966 264.72 127.885ZM280.198 127.972L281.152 125.944C281.445 125.323 281.728 124.554 281.333 123.992C281.196 123.797 280.994 123.66 280.797 123.527L277.323 121.186C276.949 120.934 276.543 120.671 276.091 120.679C275.556 120.687 275.108 121.069 274.727 121.446C274.158 122.01 273.626 122.612 273.135 123.246C272.762 123.728 272.455 124.522 272.966 124.857L278.28 128.344C278.7 128.619 279.232 128.902 279.673 128.663C279.931 128.522 280.072 128.238 280.198 127.972ZM279.02 126.536C278.797 126.587 278.564 126.531 278.345 126.465C277.003 126.06 275.775 125.286 274.831 124.25C274.518 123.905 274.695 123.296 275.094 123.055C275.492 122.813 276.01 122.869 276.44 123.049C276.718 123.166 276.972 123.328 277.226 123.49L277.226 123.491L277.226 123.491C277.366 123.58 277.505 123.669 277.648 123.751C277.803 123.838 277.964 123.919 278.125 124C278.581 124.229 279.039 124.458 279.35 124.854C279.771 125.39 279.684 126.383 279.02 126.536ZM280.815 128.802C281.427 128.656 281.615 128.031 281.809 127.382C281.97 126.846 282.136 126.293 282.551 125.979C283.265 125.439 284.277 125.89 285.047 126.348L287.495 127.805C287.885 128.037 288.285 128.277 288.565 128.634C288.845 128.992 288.982 129.498 288.786 129.908C288.656 130.181 288.409 130.363 288.16 130.545C287.956 130.695 287.751 130.846 287.607 131.049C287.423 131.309 287.355 131.636 287.287 131.959C287.202 132.365 287.119 132.764 286.809 133.019C286.246 133.483 285.408 133.111 284.785 132.73L281.335 130.622C280.988 130.41 280.621 130.176 280.45 129.806C280.279 129.436 280.418 128.896 280.815 128.802ZM285.337 130.895C285.831 130.726 286.228 130.36 286.609 130.003C286.885 129.745 286.515 129.319 286.186 129.134L284.073 127.944C283.852 127.82 283.545 127.707 283.375 127.893C282.824 128.494 282.744 129.474 283.19 130.156C283.636 130.838 284.566 131.158 285.337 130.895ZM261.091 130.821C260.618 130.687 260.137 130.552 259.75 130.288C259.15 129.879 258.315 129.978 257.685 130.34C257.055 130.701 256.586 131.281 256.131 131.848C255.879 132.162 255.62 132.49 255.524 132.881C255.427 133.272 255.542 133.747 255.894 133.943L259.58 135.997C259.858 136.152 260.17 136.313 260.482 136.244C260.792 136.175 261.007 135.899 261.194 135.642L262.142 134.337C262.67 133.611 263.221 132.686 262.835 131.875C262.526 131.225 261.819 131.026 261.091 130.821ZM259.925 134.2C259.732 134.251 259.534 134.158 259.356 134.068L256.846 132.79C257.328 132.107 258.246 131.845 259.079 131.928C259.911 132.01 260.684 132.38 261.437 132.745L260.283 133.943C260.18 134.05 260.069 134.162 259.925 134.2ZM242.533 83.1115C242.921 83.7042 242.8 84.4961 242.542 85.1563C242.202 86.0264 241.628 86.8326 240.816 87.2955C240.005 87.7583 238.939 87.826 238.148 87.3285C237.358 86.8311 236.961 85.7247 237.385 84.8922C237.483 84.6997 237.616 84.5291 237.75 84.3585L237.75 84.3584C237.878 84.1952 238.006 84.0319 238.103 83.8492C238.166 83.7291 238.216 83.6017 238.265 83.4745L238.265 83.4742C238.337 83.2904 238.408 83.1071 238.521 82.9468C238.924 82.377 239.717 82.2649 240.414 82.2748C241.205 82.286 242.099 82.4496 242.533 83.1115ZM240.766 83.4879C239.684 83.4743 238.669 84.382 238.561 85.4593C238.518 85.8996 238.704 86.4468 239.143 86.5075C239.471 86.553 239.759 86.2993 239.98 86.0519C240.447 85.5286 240.848 84.9466 241.171 84.3239C241.279 84.115 241.374 83.8469 241.232 83.6595C241.128 83.523 240.938 83.4901 240.766 83.4879ZM266.657 55.2545C266.574 54.2633 265.91 53.2884 264.947 53.0401C263.723 52.7247 262.538 53.5862 261.566 54.3943C261.279 54.6334 260.979 54.8904 260.857 55.2439C260.651 55.8435 261.022 56.4754 261.388 56.9935C261.807 57.5868 262.255 58.1832 262.866 58.5753C263.477 58.9674 264.293 59.1197 264.934 58.7789C265.261 58.6052 265.515 58.3215 265.736 58.0245C266.33 57.2265 266.74 56.2458 266.657 55.2545ZM263.943 57.7958C263.529 57.8579 263.099 57.6904 262.793 57.403C262.336 56.9723 262.155 56.2801 262.314 55.6725C262.483 55.0329 263.02 54.5046 263.662 54.3468C264.304 54.1891 265.025 54.4085 265.47 54.8973C265.453 55.0306 265.439 55.1647 265.426 55.2989C265.378 55.7547 265.331 56.2113 265.173 56.6394C264.969 57.1936 264.527 57.7082 263.943 57.7958ZM231.008 212.412C233.264 204.431 237.524 197.188 241.739 190.045C242.452 188.838 243.335 187.508 244.718 187.279C245.263 187.189 245.551 186.596 245.736 186.076C248.023 179.663 248.243 172.531 246.357 165.989C245.819 164.122 246.482 162.142 247.137 160.313L252.214 146.149C251.687 145.236 250.688 144.835 249.677 144.428C248.83 144.088 247.975 143.745 247.378 143.094C245.693 141.258 246.964 138.337 248.285 136.222L271.426 99.1616C272.372 97.6481 274.445 97.1737 276.184 97.577C277.922 97.9803 279.406 99.0742 280.836 100.142L297.714 112.748C300.733 115.004 304.066 117.884 303.893 121.649C303.796 123.732 302.604 125.584 301.451 127.322L288.075 147.478C286.345 150.084 286.136 153.253 285.925 156.436C285.829 157.875 285.734 159.318 285.498 160.713C284.344 167.518 279.812 173.154 275.47 178.553L275.157 178.943L274.952 179.199C270.458 184.796 265.961 191.045 265.709 198.219C265.408 206.768 261.346 215.118 254.806 220.633L260.497 206.826C261.851 203.543 263.104 199.458 260.839 196.722C259.814 195.485 258.265 194.83 256.778 194.22L247.939 190.593C247.33 190.343 246.701 190.089 246.043 190.085C243.989 190.073 242.768 192.3 241.935 194.177C239.055 200.67 235.376 206.81 231.008 212.412ZM260.073 193.661C261.588 194.223 263.722 194.563 264.44 193.116C267.916 186.109 271.487 178.967 277.02 173.439C280.209 170.252 282.164 166.001 283.27 161.63C284.376 157.26 284.689 152.734 284.997 148.236C283.655 148.725 283.538 150.537 283.544 151.966C283.556 155.115 283.006 158.267 281.926 161.225C281.7 161.845 281.396 162.514 280.791 162.775C280.185 163.036 279.294 162.512 279.497 161.885C281.059 157.072 281.64 151.943 281.197 146.903C281.06 145.34 280.769 143.668 279.657 142.561C279.778 145.028 279.899 147.507 279.648 149.965C279.216 154.217 277.691 158.271 276.18 162.27C275.984 162.789 275.747 163.355 275.248 163.599C274.749 163.843 273.976 163.456 274.106 162.917L276.369 153.561C277.614 148.418 278.837 142.884 276.911 137.955C275.941 137.89 275.712 139.277 275.799 140.246C276.392 146.879 274.559 153.463 272.743 159.871C272.531 160.619 271.781 161.555 271.198 161.04C270.946 160.818 270.935 160.436 270.955 160.101C271.07 158.217 271.586 156.393 272.102 154.571L272.103 154.57C272.263 154.004 272.423 153.439 272.571 152.873C273.935 147.647 274.283 142.158 273.589 136.801C272.394 138.334 271.887 140.277 271.408 142.161L268.568 153.342C267.284 158.396 265.643 163.953 261.19 166.668C260.836 166.884 260.424 167.085 260.02 166.989C259.518 166.87 259.233 166.351 259.024 165.88C256.182 159.479 255.827 152.012 258.049 145.37C258.184 144.967 257.774 144.546 257.35 144.513C256.926 144.479 256.53 144.71 256.182 144.955C252.537 147.528 251.14 152.187 249.981 156.496L248.439 162.225C248.214 163.061 247.987 163.906 247.94 164.771C247.869 166.086 248.212 167.373 248.554 168.653C248.633 168.949 248.712 169.245 248.786 169.542C250.269 175.493 249.599 181.958 246.927 187.479C246.533 188.293 247.573 189.033 248.421 189.347L260.073 193.661ZM265.832 138.987C265.224 138.569 264.573 138.091 264.385 137.377C264.097 136.282 265.139 135.183 266.261 135.035C267.384 134.888 268.482 135.43 269.412 136.075C270.722 136.984 272.38 135.598 273.361 134.341C272.038 133.549 270.775 132.321 270.723 130.78C270.671 129.238 272.545 127.771 273.792 128.678C274.276 129.03 274.861 129.245 275.44 129.458C276.307 129.777 277.16 130.091 277.636 130.85C278.177 131.714 277.984 132.882 277.434 133.74C276.883 134.598 276.035 135.213 275.207 135.808C276.395 135.926 277.552 136.35 278.535 137.027L279.607 133.905C279.69 133.663 279.78 133.41 279.97 133.239C280.338 132.909 280.909 133.011 281.379 133.16C282.613 133.552 283.823 134.163 284.637 135.169C285.452 136.175 285.791 137.637 285.222 138.799C284.653 139.962 283.047 140.582 281.959 139.881C281.733 139.735 281.506 139.541 281.28 139.347C280.673 138.827 280.067 138.307 279.481 138.723C281.269 140.115 282.497 142.207 282.841 144.446C288.469 135.874 294.037 127.261 299.544 118.61C300.069 117.784 300.493 116.482 299.637 116.008C295.98 113.979 292.748 111.262 289.523 108.551C285.453 105.13 281.395 101.719 276.511 99.7157C276.201 99.5885 275.862 99.4655 275.538 99.5509C275.198 99.6405 274.959 99.9359 274.746 100.215C265.651 112.086 257.488 124.671 250.358 137.816C249.363 139.65 250.694 141.836 251.968 143.488C252.604 144.314 253.833 145.186 254.527 144.408C255.401 143.428 256.836 142.868 258.074 143.305C259.313 143.743 260.084 145.354 259.41 146.482C258.923 147.298 259.877 148.205 260.71 148.661C262.375 149.573 264.083 150.407 265.827 151.159C266.069 151.263 266.351 151.366 266.587 151.247C266.812 151.135 266.903 150.867 266.973 150.626L268.905 143.98C269.222 142.887 269.435 141.469 268.497 140.823L265.832 138.987ZM300.382 120.358C300.126 120.27 299.892 120.527 299.741 120.752L285.28 142.4C284.891 142.982 284.492 143.588 284.379 144.279C284.265 144.97 284.519 145.773 285.148 146.081C286.189 146.591 287.279 145.52 287.947 144.573L301.384 125.529C302.382 124.115 301.537 122.182 300.683 120.677C300.609 120.547 300.524 120.407 300.382 120.358ZM259.666 149.265C259.411 149.08 259.031 149.19 258.818 149.422C258.605 149.654 258.517 149.972 258.437 150.276C258.24 151.026 258.041 151.783 258.012 152.557C257.982 153.332 258.123 154.102 258.263 154.864L259.648 162.392C259.706 162.708 259.774 163.043 259.998 163.273C260.222 163.503 260.658 163.553 260.839 163.288C262.889 160.29 264.967 157.234 266.039 153.764C266.173 153.333 266.211 152.727 265.789 152.568C263.612 151.749 261.546 150.634 259.666 149.265ZM275.659 130.692C274.965 130.031 274.047 129.608 273.093 129.511C272.224 129.422 271.722 130.644 272.119 131.422C272.516 132.201 273.393 132.587 274.204 132.912C274.777 133.141 275.471 133.358 275.97 132.995C276.688 132.474 276.301 131.303 275.659 130.692ZM269.949 139.415C270.232 139.214 270.269 138.802 270.19 138.464C269.891 137.19 268.494 136.539 267.24 136.165C266.755 136.021 266.151 135.921 265.809 136.294C265.524 136.605 265.584 137.121 265.831 137.465C266.077 137.809 266.462 138.02 266.834 138.221L268.772 139.264C269.14 139.463 269.609 139.657 269.949 139.415ZM280.974 134.822C280.563 135.372 280.605 136.17 280.947 136.764C281.29 137.358 281.882 137.771 282.508 138.052C282.722 138.148 282.957 138.233 283.188 138.187C283.386 138.147 283.556 138.014 283.677 137.852C284.125 137.254 283.907 136.353 283.394 135.81C282.882 135.266 282.152 134.994 281.45 134.74C281.329 134.696 281.188 134.653 281.077 134.72C281.057 134.732 281.039 134.747 281.023 134.763C281.005 134.781 280.989 134.802 280.974 134.822ZM86.6631 184.611C86.9313 182.628 87.3073 180.446 88.8649 179.191C90.1069 178.19 91.8119 178.03 93.4069 177.999C98.6318 177.899 103.874 178.747 108.8 180.491C110.358 181.043 111.99 181.769 112.842 183.186C113.764 184.719 113.539 186.654 113.284 188.425L109.327 215.913C112.056 207.953 114.014 199.729 115.167 191.393C115.705 187.504 115.893 183.042 113.179 180.205C108.942 175.777 109.057 169.47 109.175 163.057C109.276 157.522 109.379 151.909 106.687 147.356C105.808 145.871 107.767 144.337 109.396 143.767C116.575 141.253 124.229 140.099 131.83 140.386C133.224 151.395 133.601 162.532 132.955 173.61C132.81 176.095 136.334 176.736 138.807 176.461L224.618 166.946C225.047 166.898 225.512 166.834 225.816 166.528C226.171 166.171 226.189 165.608 226.184 165.104C225.981 144.999 225.403 124.897 224.448 104.814C224.411 104.03 224.312 103.13 223.663 102.688C223.176 102.358 222.536 102.401 221.95 102.458L160.702 108.396C164.726 89.4186 168.772 70.0855 166.937 50.7736C153.548 59.7007 136.271 59.6337 120.206 58.6884C119.539 58.6491 118.87 58.6091 118.199 58.5691C102.74 57.6452 86.6177 56.6817 72.7195 63.3692C79.9966 82.6637 87.3571 103.724 81.3081 123.438C80.7729 125.183 80.1362 126.896 79.4997 128.608C78.5184 131.249 77.5377 133.887 76.9313 136.634C75.9315 141.162 76.0818 146.232 78.7616 150.016C82.642 155.496 85.7257 161.727 86.429 168.405C87.0965 174.743 85.6051 181.028 84.1155 187.305C82.559 193.865 81.0044 200.416 81.916 207.011C82.0702 208.127 82.3488 209.327 83.2223 210.038L86.6631 184.611ZM92.7342 104.977C94.357 105.035 95.002 107.072 95.2095 108.682L96.8525 121.435C93.6445 119.772 89.1317 122.595 89.2238 126.207C86.5207 120.989 86.11 115.01 85.7034 109.091C85.615 107.803 85.5267 106.518 85.4151 105.245C84.2217 91.627 80.1176 78.4553 76.0388 65.4079C75.4572 63.5475 77.9694 62.341 79.898 62.0582C92.5542 60.2027 105.363 60.4589 118.179 60.7152C123.987 60.8314 129.797 60.9476 135.595 60.8672C145.896 60.7243 156.796 59.7493 165.152 53.7232C167.031 66.2438 164.478 78.8764 161.957 91.3498C161.616 93.037 161.276 94.7214 160.947 96.4022C158.188 110.508 156.311 125.544 161.589 138.913C161.812 139.477 161.053 139.902 160.46 140.025C156.119 140.931 151.63 141.126 147.226 140.6C145.337 140.375 143.468 140.018 141.599 139.662C140.191 139.394 138.783 139.125 137.366 138.913C126.699 137.312 115.566 138.973 105.831 143.618C105.441 143.804 104.977 143.717 104.568 143.576C102.596 142.893 101.19 141.072 100.488 139.107C99.7865 137.142 99.686 135.021 99.5924 132.937L99.1997 124.196C99.1856 123.882 99.2679 123.455 99.5822 123.445C116.635 122.913 133.669 121.763 150.639 119.999C149.921 115.984 149.85 111.854 150.429 107.817C150.794 105.268 148.397 102.944 145.845 102.603C143.293 102.262 140.769 103.418 138.65 104.881C137.857 105.428 137.096 106.022 136.335 106.616C135.062 107.61 133.791 108.603 132.375 109.372C131.448 109.876 130.333 110.282 129.36 109.875C128.169 109.378 127.77 107.961 127.414 106.696C127.391 106.616 127.369 106.538 127.347 106.46C126.882 104.831 126.115 103.21 124.766 102.185C123.417 101.161 121.382 100.905 120.051 101.953C118.912 102.848 118.552 104.398 118.362 105.834C118.345 105.961 118.328 106.09 118.312 106.218C118.143 107.538 117.968 108.902 117.18 109.961C116.315 111.123 114.386 111.621 113.438 110.526C111.562 108.361 108.272 107.908 105.51 108.667C102.749 109.427 100.386 111.181 98.0947 112.9C96.7126 110.737 96.5983 107.825 97.8066 105.56L97.8268 105.522C98.0539 105.097 98.3149 104.609 98.1141 104.176C97.9897 103.908 97.7153 103.743 97.4436 103.627C95.8188 102.93 93.7428 103.525 92.7342 104.977ZM141.562 141.532C142.471 141.713 143.587 142.118 143.643 143.043C144.179 151.862 151.188 159.787 159.805 161.739C168.422 163.691 177.971 159.744 182.996 152.476C188.02 145.208 188.414 135.112 184.294 127.297C179.875 118.915 169.138 114.463 160.085 117.261C159.665 115.408 159.712 113.452 160.221 111.622C160.316 111.282 160.439 110.927 160.713 110.705C160.981 110.489 161.343 110.439 161.685 110.398L187.187 107.327C189.429 107.057 191.677 106.786 193.935 106.768C203.646 106.688 213.349 105.719 222.884 103.879C224.365 123.773 225.063 143.726 224.973 163.676C224.969 164.622 224.681 165.88 223.735 165.907C207.685 166.375 191.762 168.486 175.833 170.598C165.13 172.017 154.425 173.436 143.677 174.358C141.282 174.563 138.87 174.744 136.476 174.516C136.042 174.475 135.553 174.386 135.317 174.019C135.175 173.798 135.159 173.522 135.147 173.259L133.716 141.35C133.697 140.938 133.722 140.441 134.079 140.234C134.316 140.097 134.612 140.146 134.88 140.2L141.562 141.532ZM97.6523 134.144C97.3986 135.802 97.1133 137.666 98.1991 138.92C102.249 143.597 106.456 148.594 107.532 154.687C108.035 157.532 107.819 160.46 107.604 163.376C107.333 167.049 107.064 170.703 108.234 174.149C108.264 174.239 108.296 174.329 108.327 174.419C108.542 175.034 108.761 175.66 108.692 176.301C108.612 177.037 107.973 177.777 107.244 177.651L98.7775 176.191C95.9738 175.708 93.0117 175.237 90.3485 176.238C89.8336 176.431 89.2409 176.092 88.965 175.616C88.6891 175.14 88.6528 174.567 88.6289 174.018C88.6 173.354 88.5783 172.686 88.5565 172.016C88.4198 167.801 88.2805 163.508 86.3296 159.815L80.1053 148.032C79.1865 146.293 78.2461 144.476 78.1827 142.51C78.1404 141.197 78.4948 139.907 78.8462 138.641L81.9514 127.456C82.6051 125.101 83.2967 122.672 84.8448 120.781C88.6058 127.161 88.977 135.416 85.8037 142.109C85.5101 142.728 86.4069 143.365 87.0461 143.119C87.6854 142.872 88.0099 142.172 88.2353 141.524C89.1379 138.933 89.4544 136.2 89.7714 133.464C90.0278 131.25 90.2846 129.034 90.8523 126.887C91.2001 125.572 91.7019 124.229 92.7174 123.324C93.7329 122.419 95.3891 122.109 96.4532 122.957C97.2676 123.605 97.5323 124.713 97.6872 125.743C98.0959 128.459 98.094 131.236 97.6817 133.952C97.672 134.016 97.6621 134.08 97.6523 134.144ZM112.261 112.063C113.509 113.018 114.731 113.953 116.228 113.78C118.131 113.56 119.317 111.601 119.87 109.766C119.991 109.365 120.099 108.954 120.207 108.542C120.592 107.072 120.98 105.591 121.988 104.485C122.281 104.164 122.703 103.865 123.119 103.991C123.457 104.093 123.653 104.434 123.81 104.75C124.032 105.197 124.242 105.652 124.452 106.107C125.044 107.39 125.637 108.673 126.497 109.788C127.662 111.298 129.475 112.486 131.371 112.278C133.066 112.092 134.391 110.892 135.682 109.722C135.947 109.482 136.21 109.243 136.475 109.015C139.585 106.333 143.635 104.764 147.74 104.651C147.187 106.035 147.556 107.544 147.918 109.025C148.005 109.382 148.092 109.737 148.166 110.088C148.745 112.858 148.452 115.805 147.339 118.407L119.921 120.518C113.52 121.011 107.103 121.504 100.688 121.278C100.282 121.264 99.8668 121.244 99.494 121.085C98.7898 120.783 98.3715 120.032 98.22 119.281C97.8801 117.598 98.6563 115.844 99.8319 114.592C101.007 113.34 102.543 112.497 104.051 111.675C105.62 110.819 107.362 109.935 109.111 110.3C110.275 110.543 111.276 111.309 112.261 112.063ZM164.179 152.002C160.026 151.916 156.427 148.528 155.194 144.56C154.942 143.75 155.466 142.862 156.188 142.417C156.91 141.972 157.784 141.867 158.627 141.773L164.713 141.089C162.862 137.491 161.544 133.621 160.815 129.641C160.748 129.28 160.688 128.901 160.802 128.552C161.003 127.94 161.662 127.618 162.273 127.412C167.218 125.751 173.155 127.768 176.063 132.099C178.971 136.43 178.59 142.69 175.177 146.636C173.699 148.344 171.763 149.604 169.724 150.575C167.984 151.402 166.105 152.042 164.179 152.002ZM183.89 130.62C184.629 133.06 184.842 135.628 184.944 138.175C183.284 137.924 181.608 137.781 179.93 137.749C179.601 133.463 176.749 129.591 172.999 127.49C169.249 125.39 164.723 124.936 160.485 125.655C160.449 125.051 160.339 124.421 160.229 123.79C159.938 122.127 159.647 120.463 160.723 119.282C161.373 118.569 162.363 118.284 163.311 118.107C167.631 117.302 172.238 118.146 175.993 120.429C179.748 122.712 182.616 126.414 183.89 130.62ZM153.426 144.128C153.42 144.207 153.413 144.285 153.409 144.359C153.381 144.951 153.657 145.495 153.93 146.032C154.004 146.176 154.077 146.32 154.144 146.464C154.46 147.146 154.614 148.045 154.084 148.579C152.804 149.871 151.673 151.311 150.72 152.86C150.484 153.244 149.904 153.275 149.516 153.047C149.129 152.818 148.888 152.41 148.664 152.02C147.248 149.55 145.796 146.967 145.619 144.125C145.597 143.771 145.636 143.344 145.95 143.179C146.088 143.106 146.251 143.104 146.406 143.104L152.742 143.084C152.893 143.084 153.053 143.086 153.184 143.16C153.495 143.337 153.46 143.747 153.426 144.128Z" fill="#00160A"/>
</svg>
